<svg width="122" height="16" viewBox="0 0 122 16" fill="none" xmlns="http://www.w3.org/2000/svg">
<path d="M66.9594 6.15098C66.9594 7.9559 67.7991 9.40435 71.0813 10.0383C73.0398 10.4489 73.4495 10.7671 73.4495 11.4214C73.4495 12.0756 73.0398 12.4682 71.6486 12.4682C69.9811 12.438 68.3469 11.9947 66.8919 11.1777V14.1332C67.8802 14.6183 69.1858 15.1621 71.6193 15.1621C75.0523 15.1621 76.4143 13.6301 76.4143 11.3492M76.4143 11.3492C76.4143 9.19904 75.2774 8.19054 72.0673 7.4979C70.2956 7.10533 69.8657 6.71276 69.8657 6.14421C69.8657 5.43352 70.5005 5.13571 71.6666 5.13571C73.0848 5.13571 74.4828 5.56663 75.8087 6.16451V3.34658C74.5376 2.7666 73.1531 2.47906 71.7566 2.50503C68.5848 2.50503 66.9437 3.88806 66.9437 6.15098" fill="#495057" fill-opacity="0.5"/>
<path d="M113.667 14.9749V5.60959L114.767 8.09587L118.462 14.9749H121.744V2.69238H119.132V10.6205L118.144 8.31923L115.177 2.69238H111.055V14.9749H113.667Z" fill="#495057" fill-opacity="0.5"/>
<path d="M91.5917 2.69238H94.4462V14.9749H91.5917V2.69238Z" fill="#495057" fill-opacity="0.5"/>
<path d="M88.2982 11.3492C88.2982 9.19904 87.1614 8.19054 83.9513 7.4979C82.1796 7.10533 81.7496 6.71276 81.7496 6.14421C81.7496 5.43352 82.3845 5.13571 83.5506 5.13571C84.9688 5.13571 86.3668 5.56663 87.6927 6.16451V3.34658C86.4216 2.7666 85.037 2.47906 83.6406 2.50503C80.4687 2.50503 78.8276 3.88806 78.8276 6.15098C78.8276 7.9559 79.6673 9.40435 82.9495 10.0383C84.908 10.4489 85.3177 10.7671 85.3177 11.4214C85.3177 12.0756 84.908 12.4682 83.5168 12.4682C81.8493 12.438 80.2151 11.9947 78.7601 11.1777V14.1332C79.7484 14.6183 81.054 15.1621 83.4875 15.1621C86.9205 15.1621 88.2825 13.6301 88.2825 11.3492" fill="#495057" fill-opacity="0.5"/>
<path d="M50.6569 14.9749L51.5799 12.3216H47.6629V2.69238H44.7904V14.9749H50.6569Z" fill="#495057" fill-opacity="0.5"/>
<path d="M36.3712 5.34788V14.9749H39.2437V5.34788H42.6384V2.69238H33.1993V5.34788H36.3712Z" fill="#495057" fill-opacity="0.5"/>
<path d="M29.0345 2.69238H25.2705L20.9934 14.9749H24.2688L24.8676 12.906C26.3621 13.3471 27.9519 13.3471 29.4464 12.906L30.052 14.9749H33.3162L29.0345 2.69238ZM27.1525 10.6927C26.6192 10.6934 26.0885 10.6175 25.5767 10.4671L27.1525 5.10421L28.7283 10.4671C28.2165 10.6175 27.6858 10.6934 27.1525 10.6927Z" fill="#495057" fill-opacity="0.5"/>
<path d="M60.7688 2.69238H57.0049L52.7277 14.9749H55.9919L56.6019 12.906C58.0937 13.3453 59.68 13.3453 61.1718 12.906L61.7773 14.9749H65.0415L60.7688 2.69238ZM58.8869 10.6927C58.3535 10.6934 57.8228 10.6175 57.311 10.4671L58.8869 5.10421L60.4627 10.4671C59.9509 10.6175 59.4202 10.6934 58.8869 10.6927Z" fill="#495057" fill-opacity="0.5"/>
<path d="M104.729 2.69238H100.965L96.6881 14.9749H99.9523L100.562 12.906C102.054 13.3453 103.64 13.3453 105.132 12.906L105.738 14.9749H109.002L104.729 2.69238ZM102.847 10.6927C102.314 10.6934 101.783 10.6175 101.271 10.4671L102.847 5.10421L104.423 10.4671C103.911 10.6175 103.381 10.6934 102.847 10.6927Z" fill="#495057" fill-opacity="0.5"/>
<path d="M4.54158 7.01116V7.01109C4.50316 6.96619 4.45452 6.93121 4.39978 6.90909C4.34503 6.88697 4.28579 6.87837 4.22703 6.884C4.17744 6.89307 4.13089 6.91439 4.09158 6.94601C4.05227 6.97764 4.02145 7.01859 4.00189 7.06515L0.290646 14.5C0.265807 14.5496 0.254058 14.6049 0.256514 14.6604C0.258971 14.7159 0.275553 14.7698 0.304683 14.8171C0.333813 14.8644 0.374524 14.9034 0.422946 14.9305C0.471368 14.9576 0.525893 14.9718 0.581337 14.9718H5.74885C5.80937 14.973 5.86894 14.9566 5.92033 14.9245C5.97172 14.8924 6.01272 14.8461 6.03835 14.7912C7.12404 12.5458 6.45216 9.0567 4.54158 7.01116Z" fill="url(#paint0_linear_2100_74531)"/>
<path d="M15.1252 14.5027C15.0556 14.3631 8.17191 0.558911 8.00262 0.215682C7.98048 0.167595 7.94578 0.126403 7.90218 0.0964677C7.85859 0.0665327 7.80773 0.0489688 7.755 0.0456358L7.74329 0.0454102C7.683 0.0485242 7.62449 0.0669799 7.57328 0.0990365C7.52207 0.131093 7.47986 0.175694 7.45062 0.228632L7.4503 0.228948C5.58435 3.19146 5.37292 6.76838 6.8849 9.79729L9.37594 14.7902C9.4023 14.8453 9.44366 14.8918 9.49526 14.9244C9.54685 14.957 9.60659 14.9743 9.66757 14.9744H14.8343C14.8898 14.9744 14.9443 14.9603 14.9928 14.9332C15.0412 14.9062 15.082 14.8671 15.1111 14.8199C15.1403 14.7726 15.1569 14.7186 15.1593 14.6631C15.1618 14.6076 15.15 14.5523 15.1252 14.5027Z" fill="#495057" fill-opacity="0.5"/>
<defs>
<linearGradient id="paint0_linear_2100_74531" x1="6.60274" y1="8.18106" x2="2.12681" y2="15.9165" gradientUnits="userSpaceOnUse">
<stop stop-color="#505F79"/>
<stop offset="0.92" stop-color="#7A869A"/>
</linearGradient>
</defs>
</svg>
