<svg width="150" height="42" viewBox="0 0 150 42" fill="none" xmlns="http://www.w3.org/2000/svg">
<rect width="150" height="41.0911" fill="white"/>
<path d="M65.3549 23.6866V19.7274C65.3549 19.624 65.2865 19.5552 65.1842 19.5552H63.8866V18.0059H65.1842C65.2865 18.0059 65.3549 17.937 65.3549 17.8338V15.355H67.1987V17.8338C67.1987 17.937 67.267 18.0059 67.3695 18.0059H69.1792V19.5552H67.3695C67.267 19.5552 67.1987 19.624 67.1987 19.7274V23.2391C67.1987 24.8917 67.7792 25.0294 68.5304 25.0294C68.8036 25.0294 69.2133 24.9949 69.4523 24.9605V26.5786C69.145 26.6131 68.6329 26.6819 68.0523 26.6819C67.3353 26.6475 65.3549 26.6475 65.3549 23.6866ZM115.481 24.6507L116.983 23.8588C117.324 24.6507 117.973 25.1671 118.724 25.1671C119.305 25.1671 119.954 24.926 119.954 24.203C119.954 23.7211 119.646 23.4456 118.929 23.2047L117.905 22.8604C116.471 22.4128 115.754 21.5865 115.754 20.4159C115.754 18.9355 116.983 17.8338 118.656 17.8338C119.988 17.8338 121.115 18.5568 121.661 19.6929L120.159 20.5192C119.817 19.7962 119.271 19.3831 118.622 19.3831C117.973 19.3831 117.529 19.7274 117.529 20.2438C117.529 20.6913 117.871 21.0357 118.554 21.2422L119.578 21.5865C121.081 22.0685 121.798 22.8947 121.798 24.0309C121.798 25.8213 120.261 26.7508 118.724 26.7508C117.188 26.7164 115.959 25.9245 115.481 24.6507ZM109.812 23.1013C109.778 23.1358 109.744 23.1702 109.744 23.2047V26.5098H107.866V14.2876H109.744V20.9668C109.744 21.0357 109.778 21.1045 109.847 21.1045C109.915 21.1389 109.983 21.1045 110.017 21.07L113.056 17.9715H115.344L111.793 21.5865C111.725 21.6553 111.725 21.7242 111.793 21.793L115.651 26.5098H113.364L110.393 22.7915C110.359 22.7571 110.325 22.7226 110.291 22.7226C110.256 22.7226 110.222 22.7226 110.188 22.7571L109.812 23.1013ZM106.944 19.1421L105.749 20.2782C105.066 19.7618 104.383 19.5208 103.632 19.5208C102.061 19.5208 100.9 20.6913 100.9 22.2751C100.9 23.8588 102.061 25.0294 103.632 25.0294C104.315 25.0294 105.032 24.7883 105.783 24.2719L106.842 25.4081C105.305 26.5443 104.486 26.7508 103.427 26.7508C102.164 26.7508 101.037 26.3032 100.217 25.4769C99.4322 24.6851 98.9883 23.5145 98.9883 22.2751C98.9883 19.6929 100.866 17.7993 103.461 17.7993C104.315 17.7993 105.578 17.937 106.944 19.1421ZM98.1347 15.4582C98.1347 16.0779 97.6225 16.5944 97.0078 16.5944C96.3932 16.5944 95.881 16.0779 95.881 15.4582C95.881 14.8385 96.3932 14.322 97.0078 14.322C97.6225 14.322 98.1347 14.8385 98.1347 15.4582ZM97.964 26.5098H96.0859V18.0059H97.964V26.5098ZM91.9885 22.7915V26.5443H90.1104V18.0404H91.9543V19.0732C91.9543 19.1421 91.9885 19.211 92.0567 19.2453C92.125 19.2798 92.1933 19.2453 92.2275 19.1765C92.7055 18.3846 93.5933 17.8682 94.5494 17.8682C94.686 17.8682 94.7884 17.8682 94.8567 17.9027V19.8306C94.7542 19.7962 94.5835 19.7962 94.4128 19.7962C92.9104 19.7618 91.9885 20.9323 91.9885 22.7915ZM81.9155 22.2751C81.9155 20.7258 83.0765 19.5208 84.5788 19.5208C86.0812 19.5208 87.2422 20.7258 87.2422 22.2751C87.2422 23.8243 86.0812 25.0294 84.5788 25.0294C83.0765 25.0294 81.9155 23.8243 81.9155 22.2751ZM82.0862 25.5113C82.1204 25.5113 82.1204 25.5113 82.1545 25.5113C82.1886 25.5113 82.2569 25.5458 82.2911 25.5802C82.9398 26.3377 83.8959 26.7508 84.9886 26.7508C87.3105 26.7508 89.0861 24.7883 89.0861 22.2751C89.0861 21.0357 88.6763 19.934 87.8909 19.0732C87.1398 18.2469 86.0812 17.7993 84.9544 17.7993C83.8959 17.7993 82.9057 18.2469 82.2569 19.0387C82.2228 19.0732 82.1545 19.1076 82.0862 19.0732C82.0179 19.0387 81.9838 19.0044 81.9838 18.9355V14.322H80.1058V26.5443H81.9838V25.6835C81.9838 25.5802 82.0179 25.5458 82.0862 25.5113ZM74.301 25.0294C72.8328 25.0294 71.6376 23.8243 71.6376 22.2751C71.6376 20.7258 72.7986 19.5208 74.301 19.5208C75.8034 19.5208 76.9643 20.7258 76.9643 22.2751C76.9643 23.8243 75.7693 25.0294 74.301 25.0294ZM78.7058 26.5098V18.0059H76.862V18.8666C76.862 18.9355 76.8278 19.0044 76.7595 19.0044C76.6912 19.0387 76.6229 19.0044 76.5887 18.9699C75.9742 18.2125 75.0181 17.7993 73.8912 17.7993C71.5694 17.7993 69.7938 19.7618 69.7938 22.2751C69.7938 24.7883 71.6035 26.7508 73.8912 26.7508C74.9497 26.7508 75.94 26.3032 76.5887 25.5113C76.6229 25.4425 76.6912 25.4425 76.7595 25.4769C76.8278 25.5113 76.862 25.5458 76.862 25.6147V26.5443H78.7058V26.5098ZM58.4916 25.0294C57.0233 25.0294 55.8282 23.8243 55.8282 22.2751C55.8282 20.7258 56.9892 19.5208 58.4916 19.5208C59.9598 19.5208 61.1549 20.7258 61.1549 22.2751C61.1549 23.8243 59.9598 25.0294 58.4916 25.0294ZM62.8964 26.5098V18.0059H61.0525V18.8666C61.0525 18.9355 61.0184 19.0044 60.95 19.0044C60.8818 19.0387 60.8135 19.0044 60.7793 18.9699C60.1647 18.2125 59.2086 17.7993 58.0819 17.7993C55.7599 17.7993 53.9843 19.7618 53.9843 22.2751C53.9843 24.7883 55.7941 26.7508 58.0819 26.7508C59.1403 26.7508 60.1306 26.3032 60.7793 25.5113C60.8135 25.4425 60.8818 25.4425 60.95 25.4769C61.0184 25.5113 61.0525 25.5458 61.0525 25.6147V26.5443H62.8964V26.5098ZM48.521 25.0294C47.0186 25.0294 45.8577 23.8243 45.8577 22.2751C45.8577 20.7258 47.0186 19.5208 48.521 19.5208C49.9893 19.5208 51.1844 20.7258 51.1844 22.2751C51.1844 23.8243 49.9893 25.0294 48.521 25.0294ZM52.9258 26.5098V14.322H51.0478V18.901C51.0478 18.9699 51.0137 19.0387 50.9454 19.0387C50.8771 19.0732 50.8088 19.0387 50.7747 19.0044C50.1259 18.2469 49.1698 17.8338 48.0772 17.8338C45.7552 17.8338 43.9797 19.7962 43.9797 22.3095C43.9797 23.5489 44.3894 24.6507 45.1748 25.5113C45.926 26.3377 46.9845 26.7852 48.1113 26.7852C49.1698 26.7852 50.16 26.3377 50.8088 25.5458C50.843 25.5113 50.9112 25.4769 50.9795 25.5113C51.0478 25.5458 51.082 25.5802 51.082 25.6491V26.5443H52.9258V26.5098Z" fill="#495057" fill-opacity="0.5"/>
<path d="M39.0626 19.4368L33.9256 22.3568L28.4611 19.2456L28.2025 19.3847V21.6442L33.9256 24.9119L39.0626 21.9918V23.1911L33.9256 26.1112L28.4611 22.9999L28.2025 23.139V23.5214L33.9256 26.789L39.6659 23.5214V21.2618L39.4074 21.1228L33.9256 24.234L28.8058 21.314V20.132L33.9256 23.0347L39.6659 19.767V17.5423L39.3729 17.3858L33.9256 20.4797L29.0816 17.7161L33.9256 14.9699L37.9248 17.2294L38.2868 17.0382V16.7601L33.9256 14.292L28.2025 17.5423V17.8899L33.9256 21.1575L39.0626 18.2375V19.4368Z" fill="#495057" fill-opacity="0.5"/>
</svg>
