<svg width="150" height="42" viewBox="0 0 150 42" fill="none" xmlns="http://www.w3.org/2000/svg">
<rect width="150" height="41.0911" fill="white"/>
<path d="M28.4604 11.499H40.475V29.4225H28.4604V11.499Z" fill="white"/>
<path d="M31.4301 9.00781C26.0443 9.00781 21.6942 13.3676 21.6942 18.7654V32.1215H35.0207C40.4065 32.1215 44.7566 27.7617 44.7566 22.3639V9.00781H31.4301ZM39.3018 13.0908C39.3018 14.89 37.8517 16.2741 36.1255 16.2741H32.673V19.0422H37.2993V22.2255H32.7421V28.869H28.9444V12.2603H32.673V15.236C32.8111 13.5752 34.1921 12.2603 35.8493 12.2603H39.3018V13.0908Z" fill="#495057" fill-opacity="0.5"/>
<path d="M57.7362 17.5196V26.17H60.0148V21.4642C60.0148 21.1874 60.0148 20.3569 60.3601 20.0109C60.7053 19.5957 61.1887 19.3881 61.7411 19.4573H61.8101V17.312H61.7411C61.0506 17.2428 60.4291 17.5196 60.1529 17.7964L60.0148 17.9348C59.9458 18.0041 59.8767 18.0733 59.8077 18.1425V17.5888L57.7362 17.5196Z" fill="#495057" fill-opacity="0.5"/>
<path d="M80.5251 26.2388V21.4639C80.5251 20.149 81.1466 19.3878 82.1823 19.3878C82.5966 19.3878 82.9419 19.5262 83.2181 19.803C83.5633 20.149 83.7705 20.7026 83.7705 21.3947V26.1696H85.98V20.7718C85.98 18.9034 84.6681 17.3809 82.9419 17.2425C81.9752 17.1733 81.1466 17.3809 80.5251 18.0037V14.6128H78.3156V26.1696H80.5251V26.2388Z" fill="#495057" fill-opacity="0.5"/>
<path d="M92.9536 19.8722H92.8846L92.9536 19.803C93.8513 19.2494 94.1275 18.0729 93.9894 17.2425C93.6441 15.5816 92.3322 14.6128 90.2607 14.6128H87.2226V26.1696H90.4679C92.8846 26.1696 94.3346 25.1316 94.7489 23.1939C94.887 22.0867 94.1965 20.3566 92.9536 19.8722ZM89.4321 16.8965H90.3988C90.8131 16.8965 91.6417 16.9657 91.7108 17.8653C91.7108 18.1421 91.6417 18.4189 91.4346 18.6265C91.0893 18.9726 90.5369 19.0418 90.0536 19.0418H89.3631L89.4321 16.8965ZM92.1251 23.4707C91.7798 23.8167 91.1584 24.0244 90.1917 24.0244H89.4321V21.2562H90.675C91.4346 21.2562 92.3322 21.6023 92.4013 22.5019C92.4703 22.8479 92.3322 23.1939 92.1251 23.4707Z" fill="#495057" fill-opacity="0.5"/>
<path d="M102.826 18.6269C101.997 17.7964 100.824 17.312 99.5807 17.312C97.0258 17.3812 95.0234 19.4573 95.0925 22.0178C95.1615 24.4399 97.0949 26.4468 99.5116 26.516H99.5807C100.754 26.516 101.928 26.0315 102.757 25.2011C104.552 23.471 104.621 20.5645 102.895 18.7653C102.964 18.6961 102.895 18.6269 102.826 18.6269ZM99.7188 24.3707C99.0973 24.3707 98.4759 24.1631 98.0616 23.6787C97.5782 23.1942 97.302 22.5714 97.302 21.8794C97.302 20.5645 98.3378 19.5265 99.6497 19.4573H99.7188C101.031 19.4573 102.066 20.4953 102.135 21.8102C102.066 23.125 101.1 24.3015 99.7188 24.3707Z" fill="#495057" fill-opacity="0.5"/>
<path d="M112.564 18.6269C111.735 17.7964 110.561 17.312 109.318 17.312C106.763 17.3812 104.761 19.4573 104.83 22.0178C104.899 24.4399 106.832 26.4468 109.249 26.516H109.318C110.492 26.516 111.666 26.0315 112.494 25.2011C114.29 23.471 114.359 20.5645 112.633 18.7653C112.633 18.6961 112.564 18.6269 112.564 18.6269ZM111.113 23.5402C110.699 24.0247 110.078 24.3015 109.456 24.3015C108.835 24.3015 108.213 24.0939 107.799 23.6095C107.316 23.125 107.04 22.5022 107.04 21.8102C107.04 20.4953 108.075 19.4573 109.387 19.3881H109.456C110.768 19.3881 111.804 20.4261 111.804 21.741C111.735 22.5022 111.528 23.125 111.113 23.5402Z" fill="#495057" fill-opacity="0.5"/>
<path d="M116.706 22.2943L116.844 22.0867H117.052L119.537 26.2388H121.954L118.571 20.5642L121.954 17.5193H118.916L116.706 19.5262V14.6128H114.566V26.2388H116.706V22.2943Z" fill="#495057" fill-opacity="0.5"/>
<path d="M128.306 23.6102C128.306 21.7417 126.787 21.2573 125.613 20.9113V20.9805V20.9113C124.853 20.7037 124.232 20.4961 124.232 20.0117C124.232 19.6657 124.508 19.458 124.991 19.458C125.268 19.458 125.544 19.5273 125.751 19.7349L125.82 19.8041L127.27 18.3508L127.201 18.2816C126.649 17.728 125.82 17.4512 125.06 17.4512C123.265 17.4512 122.16 18.4892 122.16 20.0809C122.16 21.9493 123.61 22.3646 124.784 22.7106C125.613 22.9182 126.234 23.1258 126.234 23.6794C126.234 24.1638 125.751 24.5098 125.06 24.5098C124.37 24.5098 123.956 24.1638 123.956 23.6102V23.4718H121.746V23.6102C121.746 25.2711 123.127 26.5167 125.06 26.5167C126.925 26.5167 128.306 25.2711 128.306 23.6102Z" fill="#495057" fill-opacity="0.5"/>
<path d="M52.7678 16.9658V19.4571H56.5655V21.6716H52.8368V26.239H50.5582V14.6821H56.7726V16.9658H52.7678Z" fill="#495057" fill-opacity="0.5"/>
<path d="M70.9273 21.9487C70.9273 19.1114 69.3391 17.3813 66.7843 17.3813C64.1605 17.3813 62.2961 19.2498 62.2961 21.8103C62.2961 24.5092 64.2295 26.5161 66.7153 26.5161C68.0272 26.5161 69.3391 25.9625 70.2368 24.9936L70.3058 24.9244L68.7177 23.5404L68.6486 23.6096C68.1653 24.2324 67.4058 24.5784 66.6462 24.5784C65.4724 24.5784 64.5747 23.8172 64.3676 22.5715V22.3639H70.8582L70.9273 21.9487ZM64.5747 20.4263L64.6438 20.2879C65.0581 19.5958 65.7486 19.2498 66.6462 19.2498C67.6129 19.2498 68.3724 19.665 68.5796 20.4263H64.5747Z" fill="#495057" fill-opacity="0.5"/>
<path d="M75.0699 20.9107C74.3103 20.7031 73.6889 20.4955 73.6889 19.9418C73.6889 19.5958 73.9651 19.3882 74.4484 19.3882C74.7246 19.3882 75.0008 19.4574 75.208 19.665L75.277 19.7342L76.727 18.281L76.658 18.2118C76.1056 17.6582 75.277 17.3813 74.5175 17.3813C72.7222 17.3813 71.6174 18.4194 71.6174 20.011C71.6174 21.8795 73.0674 22.2947 74.2413 22.6407C75.0699 22.8484 75.6913 23.056 75.6913 23.6096C75.6913 24.094 75.208 24.44 74.5175 24.44C73.827 24.44 73.4127 24.094 73.4127 23.5404V23.402H71.2031V23.5404C71.2031 25.2012 72.5841 26.4469 74.5175 26.4469C76.4508 26.4469 77.8318 25.2012 77.8318 23.5404C77.7628 21.7411 76.2437 21.3259 75.0699 20.9107Z" fill="#495057" fill-opacity="0.5"/>
</svg>
