<svg width="150" height="42" viewBox="0 0 150 42" fill="none" xmlns="http://www.w3.org/2000/svg">
<rect width="150" height="41.0911" fill="white"/>
<path d="M44.3302 10.5605C44.5052 10.7087 44.7348 10.6944 44.9372 10.7601C46.6141 11.307 47.7974 12.8529 47.8059 14.6203C47.8251 18.5398 47.8651 22.4606 47.7949 26.3792C47.751 28.8439 45.8711 30.402 43.7466 30.4374C41.6597 30.4722 39.5722 30.4722 37.4839 30.4374C32.9178 30.3573 28.804 26.7706 28.053 22.2604C27.9442 21.6073 27.8905 20.9462 27.8926 20.284C27.8981 18.5172 27.8948 16.7507 27.8954 14.9839C27.8954 12.731 29.0372 11.2392 31.2147 10.6464C31.2781 10.629 31.3553 10.6464 31.3821 10.5609L44.3302 10.5605ZM38.822 24.6234V24.6463H40.7306C40.855 24.6463 40.9797 24.649 41.1041 24.6463C41.6392 24.6313 42.0023 24.297 42.0035 23.8213C42.0048 23.3455 41.6419 22.9962 41.1081 22.9932C39.8358 22.9861 38.5632 22.9932 37.2906 22.991C36.0231 22.991 35.3673 22.3423 35.3661 21.0889C35.3661 19.8464 35.3676 18.6037 35.3661 17.3609C35.3661 16.7498 35.056 16.3755 34.5542 16.3645C34.0282 16.3532 33.709 16.7202 33.7078 17.3506C33.7051 18.5933 33.7078 19.836 33.7078 21.0785C33.7078 21.6835 33.763 22.2733 34.038 22.8309C34.5115 23.7907 35.4795 24.5616 36.5835 24.6179C37.3271 24.6539 38.0753 24.6234 38.822 24.6234ZM39.5035 16.3599C38.9501 16.3599 38.3967 16.3495 37.8436 16.363C37.3342 16.3755 37.0326 16.6963 37.0284 17.1956C37.0244 17.6809 37.3372 18.0066 37.8564 18.0121C38.9492 18.0231 40.0418 18.0231 41.1343 18.0121C41.631 18.0075 41.9968 17.6485 42.0048 17.1999C42.013 16.7226 41.6499 16.3685 41.1206 16.3593C40.5822 16.3526 40.0428 16.3599 39.5035 16.3599ZM39.0848 19.675C38.6979 19.675 38.3107 19.6701 37.9241 19.675C37.3988 19.683 37.0399 20.0111 37.029 20.4832C37.018 20.9553 37.3808 21.3211 37.9064 21.3275C38.7077 21.3375 39.509 21.3375 40.3105 21.3275C40.8157 21.3205 41.1691 20.9725 41.1739 20.511C41.1791 20.0344 40.8163 19.686 40.2867 19.6753C39.8864 19.668 39.4855 19.675 39.0848 19.675Z" fill="#495057" fill-opacity="0.5"/>
<path d="M107.738 29.0558C105.945 29.067 104.307 28.5666 102.827 27.5548C102.619 27.413 102.588 27.3183 102.737 27.1072C103.04 26.6794 103.326 26.2381 103.587 25.7847C103.741 25.5176 103.856 25.55 104.09 25.6991C105.588 26.6519 107.22 26.9571 108.966 26.6338C109.165 26.5969 109.362 26.5085 109.542 26.412C109.927 26.206 110.135 25.8687 110.124 25.4342C110.113 25.0119 109.876 24.7115 109.502 24.5251C108.871 24.2104 108.181 24.1392 107.495 24.0668C106.583 23.9705 105.694 23.789 104.866 23.3866C103.716 22.828 102.96 21.9742 102.933 20.6365C102.906 19.2718 103.619 18.3539 104.777 17.7336C105.57 17.3085 106.432 17.1295 107.323 17.0751C109.047 16.9697 110.674 17.2871 112.17 18.188C112.407 18.3307 112.429 18.4449 112.28 18.6668C112.011 19.0677 111.754 19.4781 111.523 19.9013C111.38 20.1641 111.269 20.2053 110.989 20.047C109.608 19.2669 108.133 19.0555 106.588 19.4279C105.883 19.5978 105.509 19.9871 105.494 20.5011C105.48 20.9824 105.823 21.4264 106.287 21.5706C107.216 21.8615 108.192 21.8777 109.137 22.0769C109.705 22.1967 110.265 22.347 110.795 22.5863C111.934 23.099 112.624 23.9442 112.703 25.2169C112.779 26.4468 112.298 27.4237 111.283 28.1198C110.216 28.8519 109.004 29.064 107.738 29.0558Z" fill="#495057" fill-opacity="0.5"/>
<path d="M73.7775 19.2424C75.6892 16.2713 80.4583 16.5693 81.6437 19.7618C82.0257 19.099 82.459 18.4995 83.0825 18.065C84.6795 16.9512 86.392 16.8715 88.1113 17.661C89.7763 18.425 90.4114 19.9241 90.4626 21.6444C90.5306 23.934 90.4821 26.2279 90.4931 28.5197C90.4931 28.7336 90.4391 28.7929 90.2187 28.7978C89.1613 28.8219 89.162 28.8283 89.1613 27.7686C89.1597 25.8221 89.1574 23.8758 89.1543 21.9295C89.1566 21.3487 89.0444 20.7731 88.8241 20.2358C88.3692 19.1357 87.5262 18.5408 86.3545 18.436C83.9715 18.2221 82.2181 19.7887 82.1842 22.181C82.1538 24.2653 82.1696 26.3499 82.1815 28.4344C82.183 28.7198 82.1205 28.8036 81.8236 28.8011C80.8479 28.7877 80.8479 28.8011 80.8479 27.8193C80.8479 25.9556 80.8479 24.0916 80.8479 22.2274C80.8479 21.4904 80.7534 20.7702 80.4403 20.0921C80.057 19.2619 79.4183 18.7345 78.532 18.5194C76.0791 17.9238 73.9361 19.5828 73.8891 22.1523C73.8513 24.2222 73.8662 26.2936 73.8891 28.3642C73.8931 28.7464 73.7784 28.8097 73.4318 28.8002C72.5494 28.7758 72.5491 28.7923 72.5491 27.8914C72.5491 24.5091 72.5555 21.1271 72.5394 17.7451C72.5375 17.3857 72.6412 17.3173 72.9735 17.3289C73.7662 17.3536 73.7678 17.3362 73.7757 18.1362C73.7803 18.4632 73.7775 18.792 73.7775 19.2424Z" fill="#495057" fill-opacity="0.5"/>
<path d="M118.097 15.7175C118.097 16.1453 118.115 16.573 118.091 17.0008C118.076 17.2859 118.187 17.3489 118.449 17.3449C119.306 17.3318 120.164 17.3526 121.021 17.3336C121.32 17.3269 121.397 17.4283 121.385 17.7107C121.364 18.2066 121.366 18.705 121.385 19.2012C121.395 19.4597 121.307 19.53 121.055 19.5261C120.184 19.5126 119.312 19.5261 118.441 19.5178C118.211 19.5151 118.09 19.5484 118.092 19.8261C118.108 21.5932 118.088 23.3606 118.119 25.1271C118.137 26.1199 118.751 26.6549 119.75 26.6467C120.124 26.6471 120.494 26.571 120.838 26.423C121.089 26.3136 121.178 26.3943 121.251 26.6226C121.411 27.1212 121.582 27.6163 121.761 28.1085C121.835 28.3126 121.807 28.4275 121.584 28.5128C120.403 28.9653 119.198 29.105 117.967 28.778C116.536 28.3979 115.604 27.164 115.555 25.4809C115.501 23.6601 115.517 21.8368 115.532 20.0147C115.536 19.6174 115.433 19.4821 115.029 19.5138C114.576 19.5499 114.117 19.5111 113.661 19.527C113.424 19.5352 113.35 19.4527 113.356 19.2214C113.371 18.697 113.375 18.1718 113.356 17.6477C113.346 17.3727 113.466 17.3299 113.7 17.3364C114.198 17.3495 114.696 17.3302 115.194 17.3449C115.452 17.3522 115.532 17.2502 115.529 17.0039C115.52 16.2311 115.539 15.4574 115.52 14.6846C115.513 14.3965 115.613 14.3076 115.892 14.2874C116.512 14.2449 117.134 14.1921 117.747 14.0934C118.08 14.0399 118.115 14.1618 118.105 14.4338C118.085 14.861 118.096 15.2894 118.097 15.7175Z" fill="#495057" fill-opacity="0.5"/>
<path d="M65.4197 23.5696C63.8565 23.5696 62.2931 23.5836 60.7305 23.5595C60.3588 23.5537 60.3037 23.664 60.3518 23.9937C60.6613 26.1776 62.2754 27.6807 64.5053 27.7763C66.1091 27.8448 67.5719 27.4481 68.7378 26.2604C68.7912 26.206 68.8488 26.0881 68.9324 26.1544C69.205 26.3656 69.4652 26.5925 69.7116 26.8339C69.8251 26.9476 69.6595 27.0261 69.5949 27.097C68.6656 28.1179 67.4853 28.686 66.1469 28.9216C64.409 29.2272 62.7513 29.0096 61.2903 27.948C59.6213 26.7356 58.9591 25.01 58.9689 23.0192C58.9783 21.0434 59.6607 19.3485 61.3205 18.1479C63.5739 16.5174 67.6439 16.7924 69.4305 19.1935C70.3598 20.443 70.6224 21.863 70.5541 23.3771C70.5406 23.6728 70.3291 23.5647 70.1931 23.5653C68.6012 23.572 67.0106 23.5696 65.4197 23.5696ZM64.784 22.4084C66.1673 22.4084 67.5506 22.4017 68.9339 22.4145C69.1882 22.417 69.2638 22.362 69.2388 22.0986C69.126 20.8613 68.6144 19.8478 67.5838 19.1309C66.6231 18.4629 65.5328 18.2927 64.3867 18.3428C62.283 18.4345 60.5918 20.0045 60.3467 22.0943C60.3162 22.3482 60.3653 22.4182 60.6332 22.4151C62.0174 22.4011 63.4007 22.409 64.784 22.409V22.4084Z" fill="#495057" fill-opacity="0.5"/>
<path d="M95.9846 20.6906C95.9846 23.2574 95.9785 25.8242 95.9919 28.3885C95.9935 28.7112 95.9124 28.8132 95.5831 28.7992C94.9483 28.7726 94.3117 28.7812 93.6763 28.797C93.437 28.8028 93.3772 28.7252 93.3775 28.4933C93.384 23.2783 93.384 18.0633 93.3775 12.8483C93.3775 12.569 93.4863 12.5381 93.7168 12.5427C94.3525 12.5549 94.9888 12.5619 95.6236 12.5402C95.9169 12.5305 95.991 12.6221 95.9895 12.9091C95.9785 15.5027 95.9831 18.0961 95.9831 20.6897L95.9846 20.6906Z" fill="#495057" fill-opacity="0.5"/>
<path d="M101.009 23.0685C101.009 24.8478 101.002 26.6271 101.017 28.4062C101.019 28.7117 100.949 28.812 100.631 28.7988C99.9964 28.7725 99.3601 28.7826 98.7247 28.7958C98.4903 28.8006 98.3811 28.7628 98.3817 28.4865C98.3911 24.8725 98.3917 21.2586 98.3836 17.645C98.3836 17.3715 98.4909 17.3269 98.7278 17.3315C99.3769 17.344 100.027 17.3504 100.676 17.3296C100.964 17.3202 101.015 17.4332 101.014 17.689C101.004 19.4821 101.009 21.2751 101.009 23.0685Z" fill="#495057" fill-opacity="0.5"/>
<path d="M56.8044 20.6701C56.8044 23.25 56.7992 25.8299 56.8111 28.4098C56.8111 28.7056 56.7604 28.807 56.4342 28.7994C55.4796 28.7777 55.479 28.7954 55.479 27.8286C55.479 22.876 55.4763 17.9232 55.4708 12.9704C55.4708 12.6269 55.551 12.531 55.8976 12.5401C56.804 12.564 56.8047 12.5469 56.8047 13.4684L56.8044 20.6701Z" fill="#495057" fill-opacity="0.5"/>
<path d="M99.6866 15.611C98.7436 15.603 98.029 14.9002 98.0482 13.9997C98.0674 13.0855 98.7894 12.3952 99.7153 12.4059C100.691 12.4172 101.392 13.0955 101.394 14.0287C101.398 14.9445 100.669 15.6195 99.6866 15.611Z" fill="#495057" fill-opacity="0.5"/>
</svg>
