<svg width="92" height="31" viewBox="0 0 92 31" fill="none" xmlns="http://www.w3.org/2000/svg">
<path d="M11.8801 0.59082H12.6836C15.473 0.651596 18.217 1.77594 20.1878 3.76633C19.4601 4.51083 18.7173 5.22494 18.0048 5.96944C16.8981 4.96665 15.564 4.19176 14.1086 3.91827C11.9559 3.46246 9.63637 3.87269 7.83231 5.10339C5.86149 6.39487 4.5274 8.58278 4.23935 10.9226C3.92099 13.2321 4.57288 15.6631 6.07373 17.456C7.51395 19.2033 9.71217 20.2972 11.9862 20.3732C14.1086 20.4948 16.322 19.8414 17.8683 18.3524C19.0811 17.3041 19.6421 15.7087 19.824 14.1589C17.3074 14.1589 14.7908 14.1741 12.2742 14.1589V11.029H22.8712C23.4169 14.3868 22.6286 18.1701 20.0817 20.5707C18.3838 22.2724 16.034 23.2752 13.6386 23.4728C11.3191 23.7007 8.92384 23.26 6.86206 22.1357C4.39095 20.8138 2.42013 18.5803 1.44988 15.9518C0.540274 13.536 0.525114 10.8011 1.37408 8.37007C2.14725 6.15177 3.63295 4.19176 5.54313 2.82432C7.3775 1.47206 9.60605 0.727565 11.8801 0.59082Z" fill="#495057" fill-opacity="0.5"/>
<path d="M72.6725 1.38086H75.9168V23.0777C74.8404 23.0777 73.7489 23.0929 72.6725 23.0625C72.6877 15.8454 72.6725 8.61313 72.6725 1.38086Z" fill="#495057" fill-opacity="0.5"/>
<path d="M30.0874 8.90187C32.0885 8.52202 34.2564 8.94745 35.9089 10.1478C37.4097 11.2113 38.4558 12.8827 38.7741 14.7059C39.1835 16.8179 38.668 19.1273 37.3036 20.7987C35.8331 22.6675 33.4226 23.6703 31.0728 23.5183C28.92 23.3968 26.8279 22.318 25.5545 20.5555C24.1143 18.6107 23.7656 15.9366 24.5539 13.6575C25.3422 11.2113 27.5708 9.34249 30.0874 8.90187ZM30.5422 11.7887C29.7235 12.0014 28.9655 12.4724 28.4197 13.141C26.9492 14.9034 27.0402 17.7751 28.6623 19.416C29.5871 20.358 30.9818 20.7987 32.2704 20.5404C33.4681 20.3276 34.5141 19.5224 35.0902 18.4588C36.0908 16.6507 35.8027 14.1589 34.2716 12.7459C33.2862 11.8343 31.8459 11.4544 30.5422 11.7887Z" fill="#495057" fill-opacity="0.5"/>
<path d="M46.1572 8.90201C48.4464 8.46139 50.9479 9.09953 52.6609 10.7101C55.4504 13.2171 55.7536 17.912 53.3735 20.7988C51.9333 22.6221 49.5986 23.6248 47.2943 23.5185C45.096 23.4577 42.9281 22.3638 41.6244 20.5557C40.1538 18.5653 39.8355 15.8304 40.6693 13.5057C41.5031 11.1355 43.6861 9.32744 46.1572 8.90201ZM46.612 11.7888C45.7934 12.0016 45.0354 12.4726 44.4896 13.1259C43.0343 14.858 43.0949 17.6841 44.6564 19.3402C45.5812 20.3278 47.0214 20.814 48.3555 20.5405C49.538 20.3126 50.5992 19.5225 51.1753 18.4589C52.1607 16.6357 51.8726 14.1439 50.3263 12.7309C49.3409 11.8192 47.9007 11.4546 46.612 11.7888Z" fill="#495057" fill-opacity="0.5"/>
<path d="M59.7864 9.78324C61.5299 8.68928 63.8494 8.38541 65.7292 9.32742C66.3205 9.58572 66.8056 10.0263 67.2756 10.467C67.2907 10.0567 67.2756 9.6313 67.2907 9.20587C68.3065 9.22107 69.3222 9.20587 70.3531 9.22107V22.622C70.3379 24.6428 69.8225 26.7852 68.3671 28.259C66.7753 29.8847 64.3345 30.3861 62.1363 30.0518C59.7864 29.7024 57.7398 27.9855 56.8302 25.8127C57.7398 25.3721 58.6949 25.0227 59.6348 24.6124C60.1655 25.8583 61.2418 26.9219 62.5911 27.165C63.9403 27.4081 65.5018 27.0738 66.3811 25.9495C67.321 24.7948 67.321 23.2146 67.2756 21.8016C66.5782 22.4853 65.7747 23.0931 64.8045 23.321C62.6972 23.9135 60.3777 23.1842 58.7556 21.756C57.1183 20.3278 56.148 18.1247 56.239 15.9367C56.2845 13.4602 57.6792 11.0747 59.7864 9.78324ZM62.9246 11.7281C61.9998 11.88 61.1357 12.3966 60.5445 13.1107C59.1194 14.8124 59.1194 17.5321 60.5596 19.2034C61.3783 20.191 62.6972 20.738 63.9707 20.6013C65.1683 20.4797 66.275 19.72 66.8662 18.6716C67.8668 16.894 67.7001 14.4781 66.3508 12.9284C65.517 11.9712 64.1829 11.5001 62.9246 11.7281Z" fill="#495057" fill-opacity="0.5"/>
<path d="M79.8129 10.5578C81.6322 8.85613 84.4368 8.27877 86.7715 9.1752C88.9848 10.0109 90.3947 12.1228 91.1073 14.2955C87.8175 15.663 84.5429 17.0152 81.2531 18.3827C81.708 19.2487 82.4053 20.0388 83.3452 20.3579C84.6642 20.8289 86.2408 20.6618 87.3475 19.7805C87.7872 19.4462 88.1359 19.0056 88.4694 18.5802C89.3032 19.1424 90.137 19.6893 90.9708 20.2515C89.7883 22.0292 87.8023 23.2751 85.6648 23.4726C83.2998 23.7613 80.7832 22.8497 79.252 20.996C76.7354 18.0788 76.978 13.1864 79.8129 10.5578ZM81.4351 13.3687C80.9196 14.1132 80.7074 15.0248 80.7225 15.9213C82.9208 15.0096 85.119 14.098 87.3172 13.1712C86.9534 12.3203 86.0741 11.8037 85.1796 11.667C83.7394 11.4087 82.2386 12.1836 81.4351 13.3687Z" fill="#495057" fill-opacity="0.5"/>
</svg>
