<svg width="150" height="42" viewBox="0 0 150 42" fill="none" xmlns="http://www.w3.org/2000/svg">
<rect width="150" height="41.0911" fill="white"/>
<path d="M130.475 19.4362V17.4806H128.052V14.4405L127.97 14.4656L125.695 15.1635L125.65 15.1772V17.4807H122.058V16.1975C122.058 15.5999 122.191 15.1427 122.454 14.8377C122.715 14.5364 123.088 14.3832 123.564 14.3832C123.906 14.3832 124.26 14.464 124.617 14.6233L124.706 14.6633V12.6039L124.664 12.5884C124.331 12.4685 123.879 12.4082 123.318 12.4082C122.611 12.4082 121.969 12.5623 121.409 12.8678C120.849 13.1738 120.408 13.6105 120.099 14.1657C119.792 14.7204 119.635 15.3609 119.635 16.0698V17.4806H117.948V19.4362H119.635V27.6746H122.058V19.4362H125.65V24.6716C125.65 26.8277 126.665 27.9204 128.666 27.9204C128.995 27.9204 129.341 27.8818 129.694 27.8062C130.054 27.7285 130.299 27.651 130.443 27.5681L130.475 27.5492V25.5756L130.377 25.6409C130.245 25.7286 130.082 25.8004 129.89 25.8537C129.697 25.908 129.536 25.9353 129.411 25.9353C128.942 25.9353 128.595 25.8087 128.38 25.5588C128.163 25.3066 128.052 24.8657 128.052 24.2489V19.4362H130.475ZM112.539 25.9356C111.66 25.9356 110.967 25.6434 110.479 25.068C109.987 24.4896 109.738 23.665 109.738 22.6173C109.738 21.5363 109.987 20.6903 110.479 20.1017C110.968 19.517 111.654 19.2202 112.52 19.2202C113.359 19.2202 114.028 19.5036 114.507 20.0631C114.988 20.6254 115.232 21.4647 115.232 22.5582C115.232 23.6652 115.003 24.5155 114.55 25.0843C114.1 25.6488 113.424 25.9356 112.539 25.9356ZM112.647 17.235C110.97 17.235 109.638 17.7276 108.688 18.699C107.739 19.6706 107.257 21.0151 107.257 22.6955C107.257 24.2915 107.727 25.5753 108.654 26.5106C109.58 27.4463 110.842 27.9202 112.402 27.9202C114.028 27.9202 115.333 27.4208 116.283 26.4359C117.232 25.4521 117.713 24.1203 117.713 22.4791C117.713 20.8581 117.262 19.5647 116.371 18.6357C115.48 17.7062 114.227 17.235 112.647 17.235ZM103.352 17.235C102.211 17.235 101.268 17.5275 100.547 18.1042C99.8213 18.6843 99.4534 19.4451 99.4534 20.3658C99.4534 20.8443 99.5328 21.2694 99.6891 21.63C99.8463 21.9918 100.09 22.3103 100.413 22.5776C100.734 22.8427 101.229 23.1205 101.885 23.403C102.437 23.6305 102.848 23.823 103.11 23.9746C103.365 24.1233 103.546 24.2727 103.649 24.4182C103.748 24.5607 103.799 24.7556 103.799 24.9961C103.799 25.681 103.287 26.0142 102.234 26.0142C101.843 26.0142 101.398 25.9325 100.91 25.7713C100.425 25.6126 99.9678 25.3802 99.5537 25.0823L99.4532 25.01V27.3471L99.4901 27.3643C99.8328 27.5228 100.265 27.6565 100.774 27.7617C101.282 27.8671 101.744 27.9206 102.145 27.9206C103.384 27.9206 104.381 27.6267 105.108 27.0466C105.84 26.4626 106.211 25.6838 106.211 24.7313C106.211 24.0441 106.011 23.4549 105.618 22.9796C105.227 22.5083 104.548 22.0756 103.602 21.693C102.847 21.3897 102.364 21.1379 102.165 20.9446C101.973 20.7579 101.875 20.4938 101.875 20.1594C101.875 19.8629 101.996 19.6254 102.243 19.4331C102.492 19.2398 102.839 19.1415 103.274 19.1415C103.677 19.1415 104.09 19.2053 104.501 19.3306C104.911 19.4558 105.272 19.6235 105.572 19.8286L105.671 19.8964V17.6794L105.633 17.6631C105.356 17.5438 104.99 17.4417 104.545 17.3589C104.103 17.2766 103.701 17.235 103.352 17.235ZM93.1392 25.9356C92.2602 25.9356 91.5669 25.6434 91.0786 25.068C90.587 24.4896 90.3384 23.6652 90.3384 22.6173C90.3384 21.5363 90.5873 20.6903 91.0791 20.1017C91.5674 19.517 92.2538 19.2202 93.1197 19.2202C93.9592 19.2202 94.6278 19.5036 95.1068 20.0631C95.5882 20.6254 95.8323 21.4647 95.8323 22.5582C95.8323 23.6652 95.6026 24.5155 95.1496 25.0843C94.6998 25.6488 94.0238 25.9356 93.1392 25.9356ZM93.2471 17.235C91.5695 17.235 90.2372 17.7276 89.2879 18.699C88.3387 19.6706 87.8571 21.0151 87.8571 22.6955C87.8571 24.2922 88.3272 25.5753 89.2539 26.5106C90.1805 27.4463 91.4415 27.9202 93.0018 27.9202C94.6274 27.9202 95.9333 27.4208 96.8828 26.4359C97.8319 25.4521 98.313 24.1203 98.313 22.4791C98.313 20.8581 97.8616 19.5647 96.9709 18.6357C96.0797 17.7062 94.8268 17.235 93.2471 17.235ZM84.1805 19.246V17.4806H81.7879V27.6744H84.1805V22.4599C84.1805 21.5732 84.3811 20.8448 84.7769 20.2946C85.1677 19.7509 85.6884 19.4754 86.3242 19.4754C86.5397 19.4754 86.7817 19.5111 87.0437 19.5815C87.303 19.6515 87.4908 19.7276 87.6015 19.8076L87.7021 19.8807V17.4632L87.6634 17.4465C87.4406 17.3516 87.1253 17.3038 86.7265 17.3038C86.1252 17.3038 85.5872 17.4974 85.1263 17.8786C84.7218 18.2137 84.4295 18.6731 84.2059 19.246H84.1805ZM77.5032 17.235C76.4056 17.235 75.4266 17.4709 74.5938 17.936C73.7593 18.402 73.114 19.0674 72.6749 19.9136C72.2377 20.7576 72.0158 21.7436 72.0158 22.8431C72.0158 23.8063 72.231 24.6902 72.6563 25.4692C73.0819 26.2495 73.6842 26.8599 74.4466 27.2833C75.208 27.7061 76.088 27.9205 77.0623 27.9205C78.1994 27.9205 79.1702 27.6927 79.9485 27.2434L79.98 27.2253V25.0285L79.8794 25.102C79.5268 25.3595 79.1328 25.5649 78.7089 25.7129C78.286 25.8608 77.9005 25.9356 77.5624 25.9356C76.6236 25.9356 75.8699 25.6412 75.3229 25.0607C74.7746 24.4796 74.4967 23.6635 74.4967 22.6365C74.4967 21.6031 74.7866 20.766 75.3579 20.1484C75.9275 19.5326 76.6825 19.2202 77.6019 19.2202C78.3883 19.2202 79.1546 19.4871 79.8796 20.0141L79.98 20.0872V17.7725L79.9475 17.7542C79.6747 17.6011 79.3026 17.4747 78.8407 17.3789C78.3807 17.2832 77.9307 17.235 77.5032 17.235ZM70.368 17.4807H67.9754V27.6744H70.368V17.4807ZM69.1961 13.1382C68.8024 13.1382 68.4589 13.2725 68.1767 13.5387C67.8934 13.8057 67.7497 14.1419 67.7497 14.5386C67.7497 14.929 67.8917 15.259 68.1723 15.5189C68.4512 15.7781 68.7957 15.9094 69.1963 15.9094C69.5967 15.9094 69.9425 15.7781 70.2247 15.5194C70.5087 15.259 70.6527 14.9291 70.6527 14.5386C70.6527 14.1557 70.5125 13.823 70.2364 13.5495C69.9604 13.2765 69.6103 13.1382 69.1961 13.1382ZM63.2266 16.7286V27.6744H65.6683V13.4502H62.2888L57.9933 24.0155L53.8248 13.4502H50.3078V27.6743H52.6023V16.7275H52.6811L57.083 27.6744H58.8146L63.1478 16.7286H63.2266Z" fill="#495057" fill-opacity="0.5"/>
<path d="M30.7801 19.9771H19.5248V8.69678H30.7801V19.9771Z" fill="#495057" fill-opacity="0.5"/>
<path d="M43.2073 19.9771H31.9522V8.69678H43.2073V19.9771Z" fill="#495057" fill-opacity="0.5"/>
<path d="M30.7798 32.4365H19.5248V21.1562H30.7798V32.4365Z" fill="#495057" fill-opacity="0.5"/>
<path d="M43.2073 32.4365H31.9522V21.1562H43.2073V32.4365Z" fill="#495057" fill-opacity="0.5"/>
</svg>
