<svg width="150" height="42" viewBox="0 0 150 42" fill="none" xmlns="http://www.w3.org/2000/svg">
<rect width="150" height="41.0911" fill="white"/>
<path d="M127.42 15.1133C127.529 15.1133 127.637 15.1133 127.699 15.0044C127.715 14.9577 127.73 14.9111 127.73 14.8644C127.73 14.7711 127.684 14.6933 127.606 14.6466C127.529 14.6155 127.451 14.6155 127.28 14.6155H127.203V15.0978H127.42V15.1133ZM127.28 14.351C127.513 14.351 127.622 14.351 127.715 14.3977C128.025 14.491 128.056 14.7711 128.056 14.8644C128.056 14.88 128.056 14.9422 128.041 15.0044C128.025 15.0666 127.994 15.1911 127.824 15.3C127.792 15.3156 127.792 15.3156 127.746 15.3311L128.134 16.0467H127.761L127.42 15.3933H127.203V16.0467H126.861V14.351H127.28ZM127.42 16.7468C128.258 16.7468 128.926 16.0623 128.926 15.2378C128.926 14.3977 128.258 13.7287 127.42 13.7287C126.597 13.7287 125.93 14.3977 125.93 15.2378C125.93 16.0623 126.597 16.7468 127.42 16.7468ZM126.24 15.2378C126.24 14.5844 126.768 14.0399 127.42 14.0399C128.087 14.0399 128.615 14.5844 128.615 15.2378C128.615 15.8756 128.072 16.4201 127.42 16.4201C126.783 16.4201 126.24 15.8756 126.24 15.2378ZM115.778 24.8365C113.791 24.8365 112.13 23.4986 111.618 21.6784H122.608L124.129 19.3137H111.602C112.099 17.4936 113.791 16.1401 115.762 16.1401H123.337L124.843 13.7754H115.592C111.882 13.7754 108.886 16.7779 108.886 20.4805C108.886 24.1831 111.882 27.1856 115.592 27.1856H123.539L125.045 24.821H115.762L115.778 24.8365ZM84.2825 27.2012C80.5882 27.2012 77.5923 24.1987 77.5923 20.4961C77.5923 16.7935 80.5882 13.791 84.2825 13.791H93.534L92.0128 16.1556H84.4378C82.0473 16.1556 80.1069 18.1003 80.1069 20.4961C80.1069 22.8919 82.0473 24.8365 84.4378 24.8365H93.7203L92.1991 27.2012H84.2515H84.2825ZM35.3862 24.8365C37.7767 24.8365 39.7326 22.8919 39.7326 20.4961C39.7326 18.1003 37.7923 16.1556 35.3862 16.1556H27.9509C25.5604 16.1556 23.6201 18.1003 23.6201 20.4961C23.6201 22.8919 25.5604 24.8365 27.9509 24.8365H35.3862ZM27.7802 27.2012C24.0702 27.2012 21.0744 24.1987 21.0744 20.4961C21.0744 16.7935 24.0702 13.791 27.7802 13.791H35.557C39.2514 13.791 42.2472 16.7935 42.2472 20.4961C42.2472 24.1987 39.2514 27.2012 35.557 27.2012H27.7802ZM54.8827 22.8608C57.3973 22.8608 59.4153 20.8228 59.4153 18.3181C59.4153 15.8134 57.3973 13.7754 54.8827 13.7754H43.6132V27.2012H46.19V16.1401H54.7119C55.8916 16.1401 56.8696 17.1202 56.8696 18.3181C56.8696 19.516 55.8916 20.4805 54.7119 20.4805H47.4473L55.1155 27.2012H58.8565L53.6874 22.8608H54.8516H54.8827ZM97.4768 24.8365V13.791H94.9155V25.9255C94.9155 26.2678 95.0397 26.5789 95.2881 26.8278C95.5364 27.0612 95.8779 27.2168 96.235 27.2168H107.986L109.507 24.8521H97.4923L97.4768 24.8365ZM65.9658 22.4718H72.8424L69.2101 16.6068L62.5353 27.2168H59.5084L67.6112 14.491C67.9682 13.9776 68.5581 13.6665 69.2101 13.6665C69.831 13.6665 70.4208 13.9621 70.7778 14.4599L78.9117 27.2168H75.8693L74.4412 24.8521H67.487L65.9658 22.4874V22.4718Z" fill="#495057" fill-opacity="0.5"/>
</svg>
