<svg width="150" height="42" viewBox="0 0 150 42" fill="none" xmlns="http://www.w3.org/2000/svg">
<rect width="150" height="41.0911" fill="white"/>
<path d="M30.4774 21.9232C30.4774 19.8019 30.9176 17.7654 31.6965 15.9326C30.8838 16.5435 29.9863 17.5278 29.2921 18.5291C28.5301 19.6831 27.9375 20.9898 27.5819 22.3983C26.5998 26.1827 27.294 30.0859 29.4106 32.5466L29.5461 32.6993C30.9176 32.5127 32.3908 32.1563 33.9486 31.5963C31.7643 28.9828 30.4774 25.6057 30.4774 21.9232Z" fill="#495057" fill-opacity="0.5"/>
<path d="M38.2162 14.4393C38.6565 15.78 37.7252 19.174 32.0019 22.042C33.3226 21.8384 34.8635 21.3293 36.4891 20.5147C41.1286 18.1728 44.7184 14.1847 44.5152 11.6053C44.312 9.04273 40.4005 8.82211 35.7779 11.164C32.984 12.5895 30.5795 14.2357 28.446 16.1703C23.9927 20.1244 21.1311 24.7573 21.402 28.3041C21.6221 31.1042 23.7557 32.6485 26.9729 32.8352C25.0256 29.7635 24.7039 25.2324 26.4649 21.0068C27.1253 19.4456 27.9888 18.071 29.0048 16.9339C30.0885 15.763 31.3415 14.8126 32.3406 14.2696C35.253 12.7423 37.7082 12.8611 38.2162 14.4393Z" fill="#495057" fill-opacity="0.5"/>
<path d="M51.8472 12.9459C51.5932 9.65367 48.6977 8.0924 44.5153 8.43181C46.5641 8.73727 47.9018 9.87429 48.0542 11.7919C48.359 15.763 43.4655 21.5669 37.1326 24.7573C35.7272 25.47 34.3556 25.9792 33.0857 26.3186C33.7799 27.9817 34.7451 29.492 35.9473 30.7987C36.4045 30.5951 36.8786 30.3745 37.3527 30.1369C45.7683 25.9113 52.2535 18.2067 51.8472 12.9459Z" fill="#495057" fill-opacity="0.5"/>
<path d="M59.8563 22.1607V26.8955H57.7905V14.3374H62.6502C64.0387 14.3374 65.1224 14.6768 65.9182 15.3896C66.6971 16.1023 67.1035 17.0357 67.1035 18.2066C67.1035 19.3946 66.7141 20.3619 65.9182 21.0746C65.1393 21.7874 64.0387 22.1607 62.6502 22.1607H59.8563ZM59.8563 20.3958H62.6502C63.4291 20.3958 64.0048 20.2091 64.4112 19.7849C64.8007 19.3776 65.0039 18.8515 65.0039 18.2066C65.0039 17.5618 64.8007 17.0357 64.4112 16.5945C64.0218 16.1702 63.4291 15.9496 62.6502 15.9496H59.8563V20.3958Z" fill="#495057" fill-opacity="0.5"/>
<path d="M82.2074 22.517C82.2074 23.8746 81.8857 24.9777 81.2422 25.8093C80.5988 26.6408 79.7183 27.0651 78.5669 27.0651C78.042 27.0651 77.6017 26.9633 77.1784 26.7766C76.772 26.5899 76.4503 26.3014 76.1455 25.945V30.4591H73.9273V17.5956H75.756L75.9592 18.7496C76.264 18.3084 76.6196 17.969 77.0429 17.7314C77.4663 17.4938 77.9573 17.375 78.5161 17.375C79.6675 17.375 80.5649 17.8332 81.2084 18.7496C81.8518 19.666 82.1735 20.8709 82.1735 22.3643V22.517H82.2074ZM80.1416 22.3303C80.1416 21.38 79.9384 20.5994 79.5828 19.9884C79.2273 19.3775 78.6854 19.072 77.9573 19.072C77.517 19.072 77.1784 19.1739 76.8736 19.3605C76.5688 19.5472 76.3148 19.8018 76.1624 20.1412V24.3668C76.3148 24.6892 76.5688 24.9438 76.8736 25.1305C77.1784 25.3002 77.5509 25.402 77.9912 25.402C78.7023 25.402 79.2442 25.1305 79.5998 24.6044C79.9554 24.0783 80.1416 23.3825 80.1416 22.534V22.3303Z" fill="#495057" fill-opacity="0.5"/>
<path d="M88.5406 27.0819C87.2198 27.0819 86.153 26.6407 85.3741 25.7752C84.5952 24.9097 84.1888 23.7897 84.1888 22.432V22.0926C84.1888 20.735 84.5783 19.598 85.3572 18.6986C86.1361 17.7991 87.1182 17.3579 88.2866 17.3579C89.5396 17.3579 90.4878 17.7482 91.1482 18.5119C91.8255 19.2756 92.1303 20.2938 92.1303 21.5835V22.7545H86.3562L86.3393 22.8224C86.3732 23.5691 86.5933 24.18 86.9997 24.6552C87.4061 25.1303 87.9479 25.3679 88.6591 25.3679C89.2179 25.3679 89.7089 25.3 90.1153 25.1643C90.5217 25.0285 90.9111 24.8249 91.2837 24.5703L91.961 25.9449C91.6054 26.2504 91.1482 26.5219 90.5556 26.7425C89.9798 26.9631 89.3195 27.0819 88.5406 27.0819ZM88.3035 19.038C87.7786 19.038 87.3553 19.2416 87.0335 19.6489C86.6949 20.0562 86.4917 20.5823 86.407 21.2272L86.424 21.2781H90.0814V21.0574C90.0814 20.4635 89.946 19.9713 89.6412 19.598C89.3533 19.2246 88.9131 19.038 88.3035 19.038Z" fill="#495057" fill-opacity="0.5"/>
<path d="M96.4484 26.8956H94.3827V13.4551H96.4484V26.8956Z" fill="#495057" fill-opacity="0.5"/>
<path d="M71.4713 17.5957H69.4055V26.8955H71.4713V17.5957Z" fill="#495057" fill-opacity="0.5"/>
<path d="M70.4387 15.5253C71.0933 15.5253 71.624 14.9934 71.624 14.3373C71.624 13.6813 71.0933 13.1494 70.4387 13.1494C69.7841 13.1494 69.2534 13.6813 69.2534 14.3373C69.2534 14.9934 69.7841 15.5253 70.4387 15.5253Z" fill="#495057" fill-opacity="0.5"/>
<path d="M101.172 17.5957H99.1064V26.8955H101.172V17.5957Z" fill="#495057" fill-opacity="0.5"/>
<path d="M100.14 15.5253C100.794 15.5253 101.325 14.9934 101.325 14.3373C101.325 13.6813 100.794 13.1494 100.14 13.1494C99.4849 13.1494 98.9543 13.6813 98.9543 14.3373C98.9543 14.9934 99.4849 15.5253 100.14 15.5253Z" fill="#495057" fill-opacity="0.5"/>
<path d="M105.744 17.5956L105.862 18.9193C106.167 18.4441 106.557 18.0538 107.014 17.7823C107.471 17.5108 107.996 17.375 108.589 17.375C109.554 17.375 110.299 17.6635 110.841 18.2575C111.383 18.8514 111.637 19.7678 111.637 21.0236V26.8954H109.571V21.0236C109.571 20.3278 109.435 19.8187 109.147 19.5302C108.86 19.2248 108.419 19.089 107.827 19.089C107.42 19.089 107.031 19.1739 106.709 19.3605C106.387 19.5472 106.184 19.7848 105.896 20.1072V26.8954H103.831V17.5956H105.744Z" fill="#495057" fill-opacity="0.5"/>
<path d="M118.004 27.0819C116.683 27.0819 115.599 26.6407 114.82 25.7752C114.041 24.9097 113.618 23.7897 113.618 22.432V22.0926C113.618 20.735 114.024 19.598 114.803 18.6986C115.582 17.7991 116.564 17.3579 117.75 17.3579C119.003 17.3579 120.019 17.7482 120.679 18.5119C121.356 19.2756 121.712 20.2938 121.712 21.5835V22.7545H115.819L115.802 22.8224C115.836 23.5691 116.056 24.18 116.463 24.6552C116.869 25.1303 117.411 25.3679 118.122 25.3679C118.681 25.3679 119.172 25.3 119.578 25.1643C119.985 25.0285 120.374 24.8249 120.747 24.5703L121.424 25.9449C121.068 26.2504 120.611 26.5219 120.019 26.7425C119.443 26.9631 118.766 27.0819 118.004 27.0819ZM117.766 19.038C117.242 19.038 116.818 19.2416 116.497 19.6489C116.158 20.0562 115.955 20.5823 115.87 21.2272L115.887 21.2781H119.527V21.0574C119.527 20.4635 119.409 19.9713 119.104 19.598C118.799 19.2246 118.376 19.038 117.766 19.038Z" fill="#495057" fill-opacity="0.5"/>
<path d="M128.654 19.4284L127.757 19.3945C127.35 19.3945 127.046 19.4793 126.775 19.649C126.504 19.8187 126.318 20.0733 126.182 20.3788V26.8954H123.964V17.5956H125.928L126.064 18.9193C126.301 18.4441 126.605 18.0538 126.978 17.7823C127.35 17.5108 127.774 17.375 128.265 17.375C128.383 17.375 128.502 17.375 128.62 17.4089C128.722 17.4259 128.824 17.4599 128.925 17.4768L128.654 19.4284Z" fill="#495057" fill-opacity="0.5"/>
</svg>
