<svg width="150" height="42" viewBox="0 0 150 42" fill="none" xmlns="http://www.w3.org/2000/svg">
<rect width="150" height="41.0911" fill="white"/>
<path d="M29.2884 9.62894C34.6851 9.64416 39.0467 14.0208 39.0306 19.4053C39.0141 24.7822 34.6293 29.1427 29.2567 29.1248C23.873 29.1069 19.5097 24.7289 19.5248 19.361C19.5405 13.981 23.9212 9.61417 29.2884 9.62894ZM29.8243 18.0814C29.8243 19.7034 29.8243 21.3255 29.8243 22.9477C29.8243 23.0632 29.7904 23.1795 29.9918 23.1764C30.9215 23.1603 31.8531 23.1956 32.7806 23.1473C35.163 23.0242 36.8143 20.6858 36.1896 18.3826C35.7944 16.9236 34.3922 15.4288 32.1062 15.5904C32.0062 15.5975 31.9817 15.6351 31.9826 15.7246C31.9861 16.1035 31.9861 16.4829 31.9826 16.8628C31.9826 16.959 32.0138 16.997 32.1103 16.993C32.259 16.9881 32.4081 16.989 32.5568 16.993C33.8072 17.0279 34.766 17.9226 34.9048 19.186C35.0294 20.3183 34.2301 21.4179 33.0699 21.695C32.5341 21.823 31.9879 21.7353 31.4476 21.7666C31.2529 21.7778 31.2207 21.7093 31.2212 21.5307C31.2279 19.6926 31.2256 17.855 31.2252 16.0169C31.2252 15.4516 31.2332 14.8859 31.2198 14.3206C31.2042 13.6721 30.6862 13.1051 30.0588 13.0089C29.877 12.9807 29.8181 13.0169 29.819 13.2161C29.8274 14.8371 29.8239 16.4595 29.8239 18.0814H29.8243ZM28.7329 20.6907C28.7329 19.0616 28.7329 17.4325 28.7365 15.8034C28.7365 15.6463 28.711 15.5859 28.5338 15.5881C27.671 15.5984 26.8082 15.5827 25.9437 15.5953C23.4188 15.6329 21.6447 18.1204 22.4119 20.5278C22.8539 21.9152 24.2017 23.2945 26.4309 23.1741C26.5586 23.1674 26.5729 23.1124 26.5716 23.0081C26.5671 22.6501 26.5613 22.292 26.5716 21.9371C26.5774 21.7791 26.5153 21.7505 26.3791 21.7581C26.2308 21.7675 26.0817 21.7621 25.9325 21.7581C24.7241 21.7133 23.7681 20.7936 23.6444 19.5543C23.5327 18.4332 24.3236 17.347 25.4525 17.0686C25.966 16.9415 26.489 17.0073 27.0074 16.9943C27.3258 16.9863 27.3258 16.9943 27.3258 17.3103C27.3258 19.6462 27.3258 21.9819 27.3258 24.3172C27.3258 25.0534 27.8014 25.6196 28.4842 25.7462C28.6896 25.7843 28.732 25.7364 28.7307 25.5336C28.7289 23.9189 28.7325 22.3046 28.7325 20.6889L28.7329 20.6907Z" fill="#495057" fill-opacity="0.5"/>
<path d="M86.6086 20.0412C87.0511 19.6523 87.4789 19.3252 87.9929 19.1255C89.4665 18.5554 91.2372 19.0181 92.3085 20.2538C93.8268 22.0051 93.7031 24.9657 92.0441 26.5787C90.9353 27.6568 89.179 28.0193 87.8781 27.4406C87.3275 27.1958 86.8908 26.8172 86.5309 26.294C86.4692 26.5057 86.5108 26.6968 86.4987 26.879C86.4858 27.0777 86.5809 27.335 86.4616 27.4608C86.3424 27.5865 86.0821 27.4975 85.8838 27.4997C85.4153 27.506 84.946 27.4997 84.478 27.5042C84.344 27.5042 84.286 27.4858 84.2864 27.3252C84.2915 23.1071 84.2915 18.8888 84.2864 14.6702C84.2864 14.5274 84.3311 14.4983 84.4651 14.4996C85.1117 14.5063 85.7601 14.5086 86.4063 14.4996C86.5719 14.4969 86.6162 14.5386 86.6153 14.7082C86.6086 16.3897 86.6112 18.0711 86.6112 19.7526L86.6086 20.0412ZM91.0018 23.2779C91.0066 23.0024 90.9686 22.7277 90.8893 22.4638C90.6312 21.6497 90.1301 21.0661 89.2705 20.8813C88.4292 20.7023 87.7111 20.9489 87.1502 21.6059C86.3558 22.5377 86.3438 24.011 87.1136 24.9657C87.9116 25.9557 89.3781 26.0492 90.265 25.1572C90.7786 24.6403 90.992 23.9967 91.0018 23.2779Z" fill="#495057" fill-opacity="0.5"/>
<path d="M48.525 20.1451C48.525 19.8493 48.5286 19.553 48.5228 19.2572C48.5228 19.1511 48.5541 19.1189 48.6617 19.1193C49.3086 19.1241 49.9557 19.1241 50.6029 19.1193C50.719 19.1193 50.7369 19.1641 50.7333 19.263C50.727 19.4116 50.7333 19.5606 50.7333 19.7105C50.7333 23.5941 50.7352 27.4775 50.7391 31.3608C50.7391 31.5814 50.6801 31.6293 50.4711 31.6231C49.8768 31.6078 49.2811 31.6101 48.6849 31.6231C48.4951 31.6271 48.4362 31.5886 48.4375 31.3836C48.4478 29.8288 48.4429 28.274 48.4429 26.7192V26.5142C48.3625 26.4878 48.3428 26.5402 48.3156 26.5688C46.4351 28.5408 43.2016 27.9182 42.1124 25.4629C41.3162 23.6682 41.4122 21.9049 42.6679 20.3228C43.7254 18.9913 45.6862 18.5142 47.1394 19.1708C47.6056 19.3875 48.0234 19.6966 48.3674 20.0793C48.396 20.1102 48.4286 20.1371 48.4594 20.1657L48.525 20.1451ZM44.0197 23.2637C44.0144 23.6513 44.0925 24.0355 44.2488 24.3901C44.9186 25.9414 46.8263 26.2533 47.8824 24.9849C48.7019 24.0003 48.667 22.4822 47.8025 21.5298C47.0456 20.6956 45.784 20.5783 44.9066 21.281C44.2773 21.7849 44.0375 22.4791 44.0197 23.2637Z" fill="#495057" fill-opacity="0.5"/>
<path d="M83.5632 27.5015C82.5562 27.5015 81.5983 27.5015 80.6405 27.5042C80.5163 27.5042 80.477 27.4192 80.4207 27.3449C79.4767 26.0917 78.533 24.8386 77.5895 23.5854C77.5422 23.5232 77.4913 23.4637 77.4078 23.3616C77.402 23.4874 77.3953 23.5648 77.3953 23.6418C77.3953 24.8547 77.3917 26.0676 77.3984 27.2804C77.3984 27.45 77.3636 27.5091 77.1805 27.5042C76.541 27.4917 75.9011 27.4948 75.2603 27.5042C75.1156 27.5042 75.0718 27.4688 75.0718 27.3198C75.0757 23.1083 75.0757 18.8968 75.0718 14.6854C75.0718 14.5381 75.112 14.4978 75.2589 14.4996C75.8984 14.5077 76.5383 14.5104 77.1792 14.4996C77.3605 14.4965 77.3989 14.552 77.3984 14.7234C77.3931 17.253 77.3919 19.7827 77.3948 22.3126V22.5762C77.5043 22.5314 77.5485 22.4536 77.6029 22.3905C78.4929 21.3611 79.3843 20.3317 80.2671 19.2965C80.3134 19.2363 80.3737 19.1885 80.4428 19.1573C80.5119 19.1261 80.5876 19.1124 80.6632 19.1175C81.563 19.1251 82.4633 19.1211 83.3622 19.1211C83.3926 19.1945 83.3279 19.216 83.2988 19.2491C82.2463 20.4235 81.1951 21.5992 80.134 22.766C80.0095 22.9029 80.0251 22.9759 80.13 23.1088C81.2259 24.498 82.3176 25.8906 83.4051 27.2867C83.4507 27.3444 83.4926 27.4048 83.5632 27.5015Z" fill="#495057" fill-opacity="0.5"/>
<path d="M117.583 22.5738C117.966 22.1323 118.348 21.6907 118.73 21.2491C119.308 20.5793 119.886 19.9079 120.463 19.2351C120.523 19.1648 120.579 19.1161 120.686 19.1169C121.616 19.1219 122.546 19.1205 123.475 19.1214C123.487 19.1214 123.499 19.1326 123.53 19.1492C123.175 19.5426 122.825 19.9324 122.474 20.3209C121.736 21.1377 121 21.9571 120.255 22.7676C120.143 22.8898 120.137 22.9619 120.241 23.093C121.355 24.4971 122.464 25.9042 123.569 27.3143C123.605 27.3591 123.639 27.4079 123.675 27.4549C123.62 27.5323 123.547 27.4969 123.487 27.4969C122.624 27.5001 121.761 27.4947 120.897 27.5032C120.828 27.5083 120.76 27.4949 120.698 27.4643C120.637 27.4338 120.585 27.3872 120.547 27.3296C119.626 26.0976 118.701 24.868 117.773 23.6408C117.711 23.558 117.648 23.4757 117.574 23.3777C117.519 23.4672 117.54 23.5477 117.54 23.6229C117.54 24.8429 117.535 26.0634 117.543 27.2835C117.543 27.4625 117.495 27.5072 117.32 27.5032C116.68 27.4929 116.041 27.4947 115.4 27.5032C115.256 27.5032 115.213 27.4696 115.213 27.3193C115.217 23.1078 115.217 18.8965 115.213 14.6853C115.213 14.5389 115.25 14.4969 115.397 14.4986C116.044 14.5067 116.692 14.5094 117.338 14.4986C117.517 14.4955 117.539 14.5618 117.539 14.7166C117.534 17.2527 117.533 19.7901 117.536 22.3286V22.5492L117.583 22.5738Z" fill="#495057" fill-opacity="0.5"/>
<path d="M99.1858 18.8779C100.721 18.9227 102.153 19.5381 103.013 21.1063C104.351 23.5432 103.255 27.2141 99.702 27.7064C98.6039 27.8585 97.5536 27.6938 96.5842 27.1339C95.0051 26.2214 94.2772 24.5099 94.4893 22.6875C94.7439 20.4954 96.5234 18.8909 99.1858 18.8779ZM96.8191 23.2877C96.8138 23.653 96.879 24.0159 97.0111 24.3564C97.3464 25.2099 97.9546 25.7156 98.8866 25.7626C99.794 25.8074 100.498 25.4395 100.914 24.6205C101.346 23.7701 101.365 22.8893 100.943 22.0247C100.341 20.7885 98.7214 20.4202 97.668 21.2835C97.0414 21.7969 96.8298 22.5053 96.8182 23.2877H96.8191Z" fill="#495057" fill-opacity="0.5"/>
<path d="M108.808 27.7543C107.355 27.6997 105.911 27.0064 105.081 25.3348C104.146 23.4551 104.541 20.7653 106.737 19.5166C107.334 19.1769 107.978 18.9961 108.658 18.9245C109.946 18.7902 111.13 19.0588 112.148 19.8814C113.238 20.7617 113.726 21.9374 113.713 23.3275C113.689 25.9068 111.78 27.7601 108.808 27.7543ZM111.354 23.2855C111.357 23.0028 111.321 22.7211 111.246 22.4485C110.995 21.5208 110.322 20.9354 109.392 20.8373C108.496 20.7407 107.682 21.1506 107.282 21.9473C106.805 22.8988 106.827 23.8637 107.372 24.7781C108.109 26.0146 109.888 26.1261 110.788 25.0085C111.191 24.5077 111.348 23.9192 111.353 23.2846L111.354 23.2855Z" fill="#495057" fill-opacity="0.5"/>
<path d="M58.3114 26.2531C58.1276 26.5117 57.9165 26.7497 57.6817 26.9629C56.5341 28.0035 54.7679 28.0138 53.6734 26.9826C53.1005 26.4424 52.8388 25.7514 52.7303 24.9892C52.6958 24.7161 52.6809 24.4409 52.6856 24.1657C52.6856 22.5657 52.6888 20.9661 52.6821 19.3661C52.6821 19.1871 52.7102 19.1254 52.9053 19.1298C53.5372 19.1446 54.17 19.1419 54.8019 19.1298C54.9725 19.1267 55.0095 19.1746 55.0086 19.3402C55.0019 20.7759 55.0055 22.2121 55.0042 23.6483C54.9974 23.9607 55.0257 24.2728 55.0886 24.5788C55.3168 25.5818 56.1451 26.0217 57.0901 25.6082C57.9363 25.2376 58.244 24.5099 58.2533 23.6416C58.2685 22.213 58.2618 20.7844 58.2533 19.3559C58.2533 19.1571 58.3016 19.1119 58.4954 19.116C59.1277 19.1298 59.76 19.1249 60.3924 19.1182C60.533 19.1182 60.5822 19.146 60.5817 19.2972C60.577 21.9757 60.577 24.6543 60.5817 27.333C60.5817 27.4736 60.5536 27.5237 60.4031 27.5215C59.7779 27.5125 59.1527 27.5125 58.5275 27.5215C58.3833 27.5215 58.3561 27.4767 58.3592 27.3424C58.3681 26.9871 58.3623 26.6308 58.3623 26.275L58.3114 26.2531Z" fill="#495057" fill-opacity="0.5"/>
<path d="M127.193 27.7435C125.983 27.739 124.873 27.4414 123.95 26.6143C123.721 26.4093 123.726 26.4053 123.94 26.1869C124.3 25.8217 124.662 25.4578 125.019 25.0891C125.102 25.0027 125.148 24.9633 125.257 25.0756C125.739 25.5724 126.337 25.8504 127.021 25.9434C127.362 25.9955 127.71 25.9354 128.014 25.772C128.291 25.6217 128.437 25.3858 128.436 25.0649C128.436 24.7574 128.261 24.5726 128.008 24.4383C127.507 24.1805 126.953 24.0937 126.418 23.946C126.089 23.8564 125.767 23.7436 125.454 23.6086C123.705 22.8477 123.93 20.7693 124.807 19.9118C125.354 19.3747 126.019 19.095 126.76 18.9719C127.814 18.7983 128.831 18.9222 129.8 19.3877C130.128 19.5455 130.427 19.7598 130.682 20.021C130.761 20.1011 130.766 20.1517 130.679 20.2327C130.292 20.5907 129.909 20.9541 129.53 21.3229C129.438 21.4124 129.396 21.3972 129.302 21.3198C128.644 20.7746 127.915 20.4645 127.04 20.6865C126.881 20.7242 126.731 20.7949 126.6 20.8941C126.214 21.1971 126.249 21.7056 126.679 21.9396C127.021 22.1258 127.402 22.2014 127.776 22.2941C128.367 22.4409 128.946 22.6114 129.493 22.8929C131.405 23.8775 130.936 26.2308 129.749 27.0507C129.103 27.4982 128.382 27.6826 127.616 27.7386C127.474 27.752 127.333 27.7435 127.193 27.7435Z" fill="#495057" fill-opacity="0.5"/>
<path d="M72.4064 21.5435C71.6857 20.8171 70.5755 20.635 69.7802 21.1331C69.3118 21.4253 69.021 21.8581 68.8514 22.3737C68.6071 23.0945 68.6571 23.8828 68.9907 24.5667C69.6101 25.8776 71.2275 26.1779 72.347 25.1875C72.4694 25.0796 72.5221 25.0693 72.6351 25.1964C73.0209 25.6292 73.4152 26.0557 73.8216 26.4693C73.9489 26.5986 73.9149 26.659 73.8033 26.7602C73.2741 27.2386 72.6422 27.4986 71.9541 27.6307C70.8703 27.8383 69.7994 27.7891 68.7888 27.3254C67.1169 26.5588 66.339 25.1928 66.2778 23.391C66.2055 21.2718 67.5219 19.5129 69.5824 19.0247C71.0864 18.6666 72.4877 18.9038 73.7126 19.914C73.8698 20.0437 73.9078 20.1185 73.7349 20.2756C73.283 20.6837 72.8516 21.1152 72.4064 21.5435Z" fill="#495057" fill-opacity="0.5"/>
<path d="M64.8258 23.3249C64.8258 24.6488 64.8222 25.9731 64.8303 27.297C64.8303 27.4671 64.7856 27.5078 64.6204 27.5051C63.9662 27.4957 63.3115 27.4984 62.6555 27.5051C62.5216 27.5051 62.4769 27.4765 62.4769 27.3332C62.4894 24.6479 62.4977 21.9626 62.5019 19.2773C62.5019 19.147 62.5425 19.1193 62.6645 19.1202C63.3263 19.126 63.9885 19.1287 64.6503 19.1202C64.8062 19.1179 64.8289 19.1743 64.8289 19.3104C64.824 20.6472 64.8258 21.9868 64.8258 23.3249Z" fill="#495057" fill-opacity="0.5"/>
<path d="M56.5679 15.9792C56.2397 16.5203 55.8132 16.7955 55.2398 16.8009C54.394 16.8089 53.7831 16.2719 53.6715 15.4327C53.6489 15.2634 53.6373 15.0929 53.6367 14.9221C53.6331 14.1411 53.6366 13.3601 53.6326 12.5796C53.6326 12.452 53.6541 12.3903 53.801 12.3965C54.0533 12.4082 54.3069 12.4082 54.5601 12.3965C54.7048 12.3898 54.7316 12.448 54.7307 12.5755C54.7254 13.267 54.7267 13.9589 54.7307 14.6504C54.7307 14.8505 54.7307 15.0501 54.7812 15.2483C54.8571 15.5562 54.9969 15.806 55.3296 15.8825C55.6846 15.964 55.9994 15.8695 56.2347 15.592C56.4482 15.3414 56.521 15.0456 56.5098 14.7063C56.4857 13.9782 56.5018 13.2491 56.4982 12.5205C56.4982 12.4184 56.5429 12.3952 56.6322 12.3961C56.9073 12.3992 57.1823 12.4014 57.4574 12.3961C57.5704 12.3961 57.5914 12.4408 57.5914 12.5433C57.589 13.8749 57.589 15.2061 57.5914 16.5368C57.5914 16.6492 57.5651 16.6971 57.444 16.693C57.1989 16.6854 56.9528 16.6832 56.7081 16.693C56.5768 16.6988 56.5621 16.6402 56.5661 16.5342C56.5723 16.3744 56.5679 16.2133 56.5679 15.9792Z" fill="#495057" fill-opacity="0.5"/>
<path d="M45.9909 13.0777C46.3812 12.4117 47.206 12.1638 47.7897 12.3065C48.3908 12.4538 48.8427 12.9868 48.8882 13.6707C48.953 14.6356 48.9012 15.6032 48.915 16.5695C48.915 16.672 48.8735 16.6944 48.7811 16.693C48.5283 16.689 48.2751 16.6832 48.0219 16.693C47.8781 16.7002 47.8495 16.6483 47.8504 16.514C47.8571 15.8225 47.8558 15.1311 47.8504 14.4396C47.8514 14.2687 47.8397 14.098 47.8152 13.9289C47.7607 13.5879 47.6245 13.2894 47.2512 13.207C46.8778 13.1247 46.5438 13.2285 46.2991 13.5422C46.1026 13.7942 46.0468 14.0905 46.0463 14.4015C46.0463 15.093 46.041 15.7845 46.0499 16.4759C46.0499 16.6281 46.0182 16.6823 45.8579 16.6724C45.6132 16.6581 45.3667 16.663 45.1224 16.6724C45.0107 16.676 44.9884 16.638 44.9884 16.5332C44.9917 15.21 44.9917 13.8866 44.9884 12.563C44.9884 12.4404 45.0188 12.3902 45.1496 12.3956C45.3801 12.4054 45.6109 12.4046 45.8409 12.3956C45.9606 12.3911 45.9954 12.4341 45.9896 12.5491C45.9847 12.7268 45.9909 12.9013 45.9909 13.0777Z" fill="#495057" fill-opacity="0.5"/>
<path d="M62.241 12.4001C62.7541 12.4001 63.2681 12.4042 63.7807 12.397C63.9147 12.397 63.9665 12.4279 63.9593 12.5693C63.9477 12.778 63.9477 12.9872 63.9593 13.1959C63.9674 13.34 63.912 13.3704 63.7807 13.3655C63.5204 13.3557 63.2582 13.3803 63.0001 13.357C62.7885 13.3387 62.7643 13.4223 62.7661 13.6045C62.7746 14.5569 62.7661 15.5093 62.7746 16.4617C62.7746 16.6407 62.725 16.689 62.5513 16.6778C62.3211 16.664 62.0903 16.664 61.8601 16.6778C61.7131 16.6859 61.673 16.6411 61.6743 16.4939C61.6805 15.5191 61.6743 14.5444 61.681 13.5696C61.681 13.4107 61.6551 13.3458 61.4782 13.3579C61.1965 13.3753 60.9129 13.3579 60.6298 13.3646C60.5248 13.3646 60.4847 13.3369 60.4878 13.2272C60.4949 13.0034 60.4976 12.7797 60.4878 12.5559C60.4815 12.4216 60.5351 12.3961 60.6557 12.397C61.1844 12.4028 61.7127 12.4001 62.241 12.4001Z" fill="#495057" fill-opacity="0.5"/>
<path d="M51.2096 12.4001C51.7227 12.4001 52.2367 12.4045 52.7494 12.3965C52.8865 12.3965 52.932 12.4327 52.9244 12.5715C52.9124 12.7794 52.9124 12.9879 52.9244 13.1958C52.9333 13.3435 52.8726 13.3677 52.7436 13.3636C52.4756 13.3547 52.2077 13.3712 51.9398 13.3569C51.7754 13.348 51.7285 13.3909 51.7303 13.5619C51.7392 14.5215 51.7303 15.481 51.7388 16.4406C51.7388 16.6196 51.7093 16.693 51.5155 16.6769C51.2854 16.6608 51.0544 16.6608 50.8242 16.6769C50.6738 16.6854 50.6407 16.6321 50.6416 16.4902C50.6474 15.5155 50.6416 14.5411 50.6487 13.5664C50.6487 13.4044 50.6175 13.3471 50.4447 13.3574C50.1629 13.3735 49.8793 13.3574 49.5962 13.3641C49.4877 13.3668 49.4533 13.3305 49.4564 13.2244C49.4622 13.0007 49.4654 12.7769 49.4564 12.5531C49.4506 12.4188 49.5078 12.3951 49.6266 12.396C50.1535 12.4027 50.6818 12.4001 51.2096 12.4001Z" fill="#495057" fill-opacity="0.5"/>
<path d="M42.8239 14.5294C42.8239 13.897 42.8351 13.2647 42.8181 12.6332C42.8123 12.4241 42.8797 12.3834 43.0664 12.3968C43.2894 12.411 43.5132 12.411 43.7362 12.3968C43.8787 12.3892 43.9081 12.4416 43.9077 12.5759C43.9032 13.892 43.9032 15.2082 43.9077 16.5246C43.9077 16.6383 43.8822 16.6799 43.7617 16.6755C43.5018 16.6665 43.241 16.6661 42.9811 16.6755C42.8538 16.6804 42.8208 16.641 42.8221 16.5157C42.8275 15.8551 42.8239 15.1909 42.8239 14.5294Z" fill="#495057" fill-opacity="0.5"/>
<path d="M59.7483 14.5282C59.7483 15.1826 59.7443 15.8373 59.7519 16.4917C59.7519 16.6349 59.7193 16.6832 59.5706 16.6756C59.3183 16.6626 59.0646 16.6653 58.8114 16.6756C58.6904 16.6805 58.6654 16.6385 58.6659 16.5257C58.6694 15.2018 58.6694 13.8782 58.6659 12.555C58.6659 12.4207 58.7159 12.3957 58.8342 12.3992C59.0794 12.4068 59.3254 12.4118 59.5702 12.3992C59.7256 12.3907 59.7528 12.4503 59.7515 12.5899C59.7448 13.2344 59.7483 13.8815 59.7483 14.5282Z" fill="#495057" fill-opacity="0.5"/>
<path d="M51.1596 11.8577C51.0742 11.8567 50.9898 11.8388 50.9112 11.8051C50.8327 11.7714 50.7616 11.7224 50.7019 11.6611C50.6423 11.5998 50.5953 11.5273 50.5636 11.4477C50.532 11.3682 50.5163 11.2832 50.5175 11.1975C50.5249 11.0288 50.5962 10.8692 50.7168 10.7511C50.8374 10.6331 50.9983 10.5655 51.1668 10.562C51.3392 10.5635 51.5042 10.633 51.626 10.7553C51.7478 10.8776 51.8167 11.0431 51.8179 11.2159C51.8172 11.3015 51.7997 11.3861 51.7661 11.4649C51.7326 11.5436 51.6838 11.6149 51.6226 11.6746C51.5613 11.7343 51.4889 11.7813 51.4094 11.8127C51.33 11.8441 51.2451 11.8594 51.1596 11.8577Z" fill="#495057" fill-opacity="0.5"/>
<path d="M62.2307 10.5475C62.316 10.5476 62.4005 10.5649 62.4791 10.5983C62.5577 10.6316 62.6289 10.6804 62.6884 10.7418C62.7479 10.8031 62.7946 10.8758 62.8256 10.9555C62.8567 11.0352 62.8715 11.1203 62.8693 11.2058C62.8642 11.3748 62.7945 11.5354 62.6745 11.6542C62.5545 11.773 62.3935 11.841 62.2249 11.8441C62.0526 11.8409 61.8882 11.7709 61.7665 11.6486C61.6448 11.5264 61.5752 11.3615 61.5724 11.1888C61.5731 11.1033 61.5908 11.0187 61.6243 10.94C61.6579 10.8613 61.7067 10.79 61.7679 10.7304C61.8291 10.6707 61.9016 10.6238 61.981 10.5924C62.0604 10.5611 62.1453 10.5458 62.2307 10.5475Z" fill="#495057" fill-opacity="0.5"/>
<path d="M29.8238 18.0814C29.8238 16.4595 29.8274 14.8371 29.8189 13.2151C29.8189 13.016 29.8769 12.9797 30.0587 13.0079C30.6861 13.1042 31.2041 13.6712 31.2197 14.3197C31.2331 14.885 31.2251 15.4507 31.2251 16.0159C31.2251 17.854 31.2278 19.6917 31.2211 21.5298C31.2211 21.7088 31.2528 21.7768 31.4475 21.7657C31.9878 21.7343 32.5353 21.822 33.0698 21.694C34.2309 21.417 35.0294 20.3174 34.9048 19.1851C34.7659 17.9234 33.8085 17.0287 32.5567 16.9921C32.408 16.988 32.2589 16.9871 32.1102 16.9921C32.0137 16.9952 31.9811 16.958 31.9825 16.8618C31.9863 16.4823 31.9863 16.1029 31.9825 15.7237C31.9825 15.6315 32.0061 15.5957 32.1062 15.5894C34.3921 15.4287 35.7943 16.9227 36.1895 18.3817C36.8147 20.6862 35.1624 23.0233 32.7805 23.1464C31.853 23.1947 30.9214 23.1593 29.9917 23.1755C29.7903 23.1786 29.8242 23.0622 29.8242 22.9467C29.8239 21.3254 29.8238 19.7036 29.8238 18.0814Z" fill="#495057" fill-opacity="0.5"/>
<path d="M28.7325 20.6889C28.7325 22.3028 28.729 23.9171 28.737 25.5315C28.737 25.7342 28.6959 25.7821 28.4905 25.7441C27.8077 25.6174 27.333 25.0512 27.3321 24.315C27.3295 21.9791 27.3295 19.6435 27.3321 17.3081C27.3321 16.9908 27.3321 16.9841 27.0137 16.9922C26.4953 17.0051 25.9723 16.9393 25.4588 17.0664C24.3299 17.3448 23.5386 18.431 23.6507 19.5522C23.7744 20.7914 24.7305 21.7134 25.9389 21.7559C26.0876 21.7613 26.2367 21.7667 26.3854 21.7559C26.5194 21.7474 26.5837 21.776 26.5779 21.9349C26.5654 22.293 26.5712 22.651 26.5779 23.0059C26.5779 23.1102 26.5649 23.1653 26.4372 23.172C24.2071 23.2924 22.8594 21.9134 22.4182 20.5256C21.651 18.1182 23.4252 15.6307 25.95 15.5931C26.8128 15.5806 27.6755 15.5962 28.5401 15.5859C28.7187 15.5859 28.7433 15.6441 28.7428 15.8012C28.7308 17.4325 28.7325 19.0616 28.7325 20.6889Z" fill="#FEFEFE"/>
</svg>
