<svg width="150" height="42" viewBox="0 0 150 42" fill="none" xmlns="http://www.w3.org/2000/svg">
<rect width="150" height="41.0911" fill="white"/>
<path d="M44.5411 17.4463C44.5411 18.9027 43.3443 20.1021 41.8911 20.1021C40.4379 20.1021 39.2411 18.9027 39.2411 17.4463C39.2411 15.9898 40.4379 14.7904 41.8911 14.7904C43.3443 14.7904 44.5411 15.9898 44.5411 17.4463ZM41.8911 21.1302C40.4379 21.1302 39.2411 22.3297 39.2411 23.7861C39.2411 25.2426 40.4379 26.442 41.8911 26.442C43.3443 26.442 44.5411 25.2426 44.5411 23.7861C44.5411 22.3297 43.3443 21.1302 41.8911 21.1302ZM57.8765 20.6162C57.8765 27.7271 52.1491 33.4672 45.054 33.4672C37.9588 33.4672 32.2314 27.7271 32.2314 20.6162C32.2314 13.5053 37.9588 7.76514 45.054 7.76514C52.1491 7.76514 57.8765 13.5053 57.8765 20.6162ZM54.4572 20.6162C54.4572 15.3901 50.2685 11.1921 45.054 11.1921C39.8395 11.1921 35.6508 15.3901 35.6508 20.6162C35.6508 25.8423 39.8395 30.0403 45.054 30.0403C50.2685 30.0403 54.4572 25.8423 54.4572 20.6162ZM48.2169 21.1302C46.7636 21.1302 45.5669 22.3297 45.5669 23.7861C45.5669 25.2426 46.7636 26.442 48.2169 26.442C49.6701 26.442 50.8669 25.2426 50.8669 23.7861C50.8669 22.3297 49.6701 21.1302 48.2169 21.1302ZM48.2169 14.7904C46.7636 14.7904 45.5669 15.9898 45.5669 17.4463C45.5669 18.9027 46.7636 20.1021 48.2169 20.1021C49.6701 20.1021 50.8669 18.9027 50.8669 17.4463C50.8669 15.9898 49.6701 14.7904 48.2169 14.7904ZM92.3265 12.8199C92.412 12.8199 92.4974 12.9056 92.5829 12.9912V15.7328C92.5829 15.9041 92.412 15.9898 92.3265 15.9898H87.7958C87.6249 15.9898 87.5394 15.8185 87.5394 15.7328V13.0769C87.5394 12.9056 87.7104 12.8199 87.7958 12.8199H92.3265ZM92.241 16.6752H83.5216C83.4362 16.6752 83.2652 16.7609 83.2652 16.9322L82.1539 21.2159L82.0684 21.4729L80.7007 16.9322C80.7007 16.8465 80.5297 16.6752 80.4442 16.6752H77.0249C76.9394 16.6752 76.7684 16.7609 76.7684 16.9322L75.4862 21.2159L75.4007 21.4729L75.3152 21.2159L74.8023 19.0741L74.2894 16.9322C74.2894 16.8465 74.1184 16.6752 74.033 16.6752H67.1943V12.9912C67.1943 12.9056 67.0233 12.7342 66.8523 12.8199L62.5781 14.1907C62.4072 14.1907 62.3217 14.2763 62.3217 14.4477V16.7609H61.2104C61.1249 16.7609 60.9539 16.8465 60.9539 17.0179V20.2735C60.9539 20.3592 61.0394 20.5305 61.2104 20.5305H62.3217V24.5572C62.3217 27.3844 63.8604 28.6695 66.6814 28.6695C67.8781 28.6695 68.9894 28.4125 69.7588 27.9841V24.5572C69.7588 24.3858 69.5878 24.3002 69.5023 24.3858C69.0749 24.5572 68.6475 24.6429 68.3055 24.6429C67.5362 24.6429 67.1088 24.3002 67.1088 23.4434V20.5305H69.5878C69.6733 20.5305 69.8443 20.4448 69.8443 20.2735V17.5319L73.0926 28.3268C73.0926 28.4125 73.2636 28.5838 73.3491 28.5838H76.9394C77.0249 28.5838 77.1959 28.4982 77.1959 28.3268L78.7346 23.5291L79.5039 26.0136L80.1878 28.3268C80.1878 28.4125 80.3587 28.5838 80.4442 28.5838H84.0345C84.12 28.5838 84.291 28.4982 84.291 28.3268L87.5394 17.5319V28.3268C87.5394 28.4125 87.6249 28.5838 87.7958 28.5838H92.1555C92.241 28.5838 92.412 28.4982 92.412 28.3268V16.9322C92.412 16.8465 92.3265 16.6752 92.241 16.6752ZM97.9684 12.8199H93.6087C93.5233 12.8199 93.3523 12.9056 93.3523 13.0769V28.2411C93.3523 28.3268 93.4378 28.4982 93.6087 28.4982H97.9684C98.0539 28.4982 98.2248 28.4125 98.2248 28.2411V12.9912C98.2248 12.9056 98.1394 12.8199 97.9684 12.8199ZM103.781 12.8199H99.2507C99.1652 12.8199 98.9942 12.9056 98.9942 13.0769V15.7328C98.9942 15.8185 99.0797 15.9898 99.2507 15.9898H103.781C103.867 15.9898 104.038 15.9041 104.038 15.7328V12.9912C104.038 12.9056 103.952 12.8199 103.781 12.8199ZM103.696 16.6752H99.3361C99.2507 16.6752 99.0797 16.7609 99.0797 16.9322V28.1555C99.0797 28.2411 99.1652 28.4125 99.3361 28.4125H103.696C103.781 28.4125 103.952 28.3268 103.952 28.1555V16.9322C103.952 16.8465 103.867 16.6752 103.696 16.6752ZM117.459 22.501C117.459 25.7566 114.723 28.5838 110.876 28.5838C107.115 28.5838 104.38 25.7566 104.38 22.501C104.38 19.2454 107.115 16.4182 110.962 16.4182C114.723 16.4182 117.459 19.2454 117.459 22.501ZM112.843 22.5867C112.843 21.3873 111.988 20.4448 110.962 20.5305C109.851 20.5305 109.081 21.4729 109.081 22.5867C109.081 23.7004 109.936 24.6429 110.962 24.6429C112.073 24.6429 112.843 23.7004 112.843 22.5867Z" fill="#495057" fill-opacity="0.5"/>
</svg>
