<svg width="150" height="42" viewBox="0 0 150 42" fill="none" xmlns="http://www.w3.org/2000/svg">
<rect width="150" height="41.0911" fill="white"/>
<path fill-rule="evenodd" clip-rule="evenodd" d="M99.2853 17.057C99.5827 17.5711 99.6799 18.1561 99.7121 18.8138L99.7543 19.6903V25.8197L99.7974 26.6972C99.8837 28.1302 100.938 29.1898 102.379 29.2799L103.25 29.3231V19.6903L103.293 18.8138C103.329 18.1635 103.425 17.5675 103.727 17.0496C104.035 16.5185 104.477 16.0778 105.008 15.7719C105.539 15.4659 106.141 15.3054 106.754 15.3065C107.367 15.3077 107.969 15.4703 108.499 15.7782C109.029 16.0861 109.469 16.5284 109.775 17.0607C110.072 17.5748 110.165 18.1708 110.201 18.8138L110.244 19.6876V25.8197L110.287 26.6972C110.377 28.1375 111.423 29.1971 112.869 29.2799L113.74 29.3231V18.8138C113.74 16.9554 113.003 15.1731 111.692 13.8588C110.382 12.5445 108.603 11.8058 106.749 11.8051C105.757 11.804 104.776 12.0152 103.871 12.4246C102.967 12.834 102.16 13.4321 101.504 14.179C100.849 13.4324 100.042 12.8344 99.1374 12.4249C98.233 12.0154 97.2519 11.8038 96.2595 11.8041C94.8077 11.8041 93.4604 12.2456 92.3445 13.0081C91.6635 12.2466 90.1401 11.8041 89.2654 11.8041V29.3231L90.1401 29.2799C91.6029 29.1833 92.6602 28.1523 92.7171 26.6972L92.7639 25.8197V19.6903L92.807 18.8138C92.8437 18.1524 92.9355 17.5711 93.2337 17.0533C93.5417 16.5225 93.9831 16.0819 94.5141 15.7756C95.045 15.4693 95.6469 15.3079 96.2595 15.3076C96.8726 15.3077 97.4749 15.4694 98.006 15.7765C98.5371 16.0835 98.9783 16.5251 99.2853 17.057ZM39.4461 29.2808L40.3207 29.3231H53.4306L53.3874 28.4493C53.269 27.009 52.2513 25.9567 50.8095 25.8629L49.9349 25.8197H42.0699L52.556 15.3067L52.5128 14.4338C52.4449 12.9787 51.384 11.9274 49.9349 11.8474L49.0603 11.8078L35.9504 11.8041L35.9935 12.6807C36.1083 14.1073 37.1407 15.1816 38.5705 15.2643L39.4461 15.3076H47.3111L36.825 25.8206L36.8681 26.6972C36.9544 28.1412 37.9942 29.187 39.4461 29.2799V29.2808ZM85.834 14.3685C86.6458 15.1819 87.2897 16.1475 87.729 17.2103C88.1683 18.2732 88.3945 19.4123 88.3945 20.5627C88.3945 21.7131 88.1683 22.8523 87.729 23.9151C87.2897 24.9779 86.6458 25.9436 85.834 26.757C84.194 28.3993 81.9705 29.3218 79.6521 29.3218C77.3338 29.3218 75.1103 28.3993 73.4703 26.757C70.0572 23.3363 70.0572 17.7891 73.4703 14.3685C74.2813 13.5554 75.2441 12.9103 76.3039 12.4702C77.3636 12.03 78.4995 11.8034 79.6466 11.8032C80.7956 11.8024 81.9335 12.0287 82.9952 12.469C84.0569 12.9093 85.0216 13.5551 85.834 14.3694V14.3685ZM83.3607 16.8491C84.3438 17.8351 84.896 19.172 84.896 20.5659C84.896 21.9599 84.3438 23.2967 83.3607 24.2828C82.3769 25.268 81.043 25.8215 79.6521 25.8215C78.2613 25.8215 76.9274 25.268 75.9436 24.2828C74.9605 23.2967 74.4082 21.9599 74.4082 20.5659C74.4082 19.172 74.9605 17.8351 75.9436 16.8491C76.9274 15.8638 78.2613 15.3104 79.6521 15.3104C81.043 15.3104 82.3769 15.8638 83.3607 16.8491ZM61.3029 11.8032C62.4501 11.8035 63.586 12.0303 64.6458 12.4706C65.7055 12.9109 66.6684 13.5561 67.4793 14.3694C70.8933 17.7891 70.8933 23.3372 67.4793 26.757C65.8393 28.3993 63.6158 29.3218 61.2974 29.3218C58.979 29.3218 56.7555 28.3993 55.1155 26.757C51.7025 23.3363 51.7025 17.7891 55.1155 14.3685C55.9265 13.5554 56.8894 12.9103 57.9491 12.4702C59.0089 12.03 60.1448 11.8034 61.2919 11.8032H61.3029ZM65.006 16.8473C65.9893 17.8333 66.5418 19.1704 66.5418 20.5646C66.5418 21.9587 65.9893 23.2958 65.006 24.2818C64.0221 25.2671 62.6882 25.8206 61.2974 25.8206C59.9066 25.8206 58.5727 25.2671 57.5888 24.2818C56.6057 23.2958 56.0535 21.9589 56.0535 20.565C56.0535 19.1711 56.6057 17.8342 57.5888 16.8482C58.5727 15.8629 59.9066 15.3095 61.2974 15.3095C62.6882 15.3095 64.0221 15.8629 65.006 16.8482V16.8473Z" fill="#495057" fill-opacity="0.5"/>
</svg>
