<svg width="40" height="40" viewBox="0 0 40 40" fill="none" xmlns="http://www.w3.org/2000/svg">
<g clip-path="url(#clip0_213_3123)">
<path d="M23.1215 18.1986C23.3966 19.2724 23.7035 20.3175 23.9283 21.3807C24.456 23.8749 24.4926 26.3915 24.1114 28.9099C23.8042 30.9441 23.2599 32.9142 22.374 34.7674C21.7637 36.0423 21.1433 37.322 20.2262 38.4076C19.3558 39.4379 18.2896 40.0681 16.898 39.9942C15.503 39.9193 14.2954 38.6915 14.1996 37.267C14.1207 36.0946 14.4909 35.0698 15.1026 34.1131C16.2794 32.272 17.3527 30.3739 18.2557 28.3746C18.8023 27.1651 19.0838 25.8898 18.943 24.592C18.7943 23.2206 18.2565 21.9559 17.3667 20.8747C16.0532 19.2784 14.3988 18.4716 12.3456 18.6578C10.8096 18.7971 9.33641 19.2216 7.91103 19.8256C6.89391 20.2559 5.88209 20.7028 4.83934 21.0559C4.01487 21.335 3.14504 21.4139 2.27398 21.214C0.541636 20.8167 -0.325351 19.3899 0.109566 17.6349C0.412259 16.4133 1.12668 15.482 2.10941 14.7542C3.33483 13.8463 4.72563 13.4065 6.22323 13.2663C8.65596 13.038 11.0346 13.443 13.4104 13.8853C14.2283 14.0375 15.043 14.2073 15.8589 14.3706C16.8191 14.5626 17.7728 14.8022 18.7404 14.9402C21.3217 15.3078 23.7593 14.7968 26.0026 13.4664C27.5842 12.5274 29.0977 11.4698 30.6514 10.4814C32.1201 9.54729 33.656 8.75374 35.3542 8.3494C36.201 8.14784 37.0527 8.14722 37.8829 8.46688C39.3632 9.03687 40.185 10.6049 39.9637 12.3331C39.7222 14.2187 38.5904 15.3946 37.0509 16.2581C35.5214 17.116 33.8537 17.545 32.1505 17.8526C29.4895 18.3346 26.8049 18.363 24.1153 18.286C23.9389 18.2811 23.7637 18.2383 23.5864 18.2223C23.4242 18.2069 23.2595 18.2049 23.1215 18.1986Z" fill="#2800C7"/>
<path d="M24.9718 0.182129C25.1421 1.09544 25.3748 1.92884 25.4397 2.77677C25.5589 4.35203 24.5853 5.47706 22.958 5.73341C22.0289 5.87871 21.0999 5.88701 20.1646 5.69896C19.623 5.58998 19.0577 5.59517 18.5024 5.57545C18.4141 5.57234 18.3014 5.68837 18.2331 5.77596C17.09 7.241 17.6769 9.46803 19.3787 10.1895C21.2299 10.9746 23.1827 9.55978 23.2678 7.70057C23.2722 7.60363 23.281 7.5069 23.2881 7.39606C23.8522 9.86968 22.1298 12.5154 19.6342 13.0281C16.615 13.6483 13.8367 11.2926 13.9199 8.16158C13.9575 6.76359 14.5814 5.60679 15.4486 4.56126C16.5686 3.21204 18.0321 2.64081 19.7193 2.54616C20.5498 2.49966 21.3841 2.47019 22.2079 2.36329C23.3949 2.20906 24.2316 1.52262 24.7574 0.432874C24.7778 0.389699 24.801 0.347148 24.8246 0.305426C24.829 0.295878 24.8412 0.290273 24.9718 0.182129Z" fill="#71D3FF"/>
<path d="M15.6986 24.6397C15.7068 26.3748 14.355 27.7649 12.6556 27.7695C10.9562 27.774 9.58131 26.3835 9.57968 24.6632C9.57826 22.9239 10.9963 21.5398 12.6206 21.5469C14.3316 21.5544 15.6905 22.904 15.6986 24.6397Z" fill="#71D3FF"/>
<path d="M32.0679 23.2138C32.0901 24.5126 31.0915 25.7522 29.8641 25.8435C28.0514 25.9782 26.772 24.8274 26.8066 23.1964C26.8412 21.5653 27.9995 20.5343 29.4135 20.5C30.9046 20.4639 32.1086 21.7523 32.0679 23.2138Z" fill="#1088C5"/>
<path d="M9.13834 11.5266C7.71316 11.522 6.62587 10.3989 6.6279 8.93321C6.62973 7.48581 7.7573 6.33006 9.15563 6.34189C10.5458 6.35372 11.6882 7.53127 11.6878 8.95189C11.6874 10.3725 10.543 11.5312 9.13834 11.5266Z" fill="#1088C5"/>
<path d="M28.0375 9.76774C27.2696 9.82461 26.2002 9.08275 26.2004 7.85642C26.2004 6.84846 27.0464 5.94863 28.0922 5.96607C29.1173 5.98309 29.967 6.83475 29.9588 7.85933C29.9513 8.93994 29.1132 9.77251 28.0375 9.76774Z" fill="#71D3FF"/>
<path d="M13.5599 1.72174C13.5571 2.69732 12.8089 3.46534 11.8715 3.45226C10.9022 3.43918 10.1862 2.68176 10.1898 1.67337C10.1931 0.755079 10.9722 -0.00795163 11.8986 0.00055879C12.8282 0.00906921 13.5628 0.769817 13.5599 1.72174Z" fill="#71D3FF"/>
<path d="M12.3671 32.5961C11.5911 32.592 10.993 31.9768 10.9985 31.1878C11.0038 30.4083 11.6171 29.7989 12.3944 29.8008C13.1304 29.8024 13.7537 30.4443 13.75 31.1961C13.7504 31.381 13.7148 31.5641 13.6453 31.7349C13.5758 31.9056 13.4738 32.0606 13.3452 32.1909C13.2165 32.3211 13.0639 32.424 12.896 32.4935C12.7281 32.5631 12.5483 32.598 12.3671 32.5961Z" fill="#1088C5"/>
</g>
<defs>
<clipPath id="clip0_213_3123">
<rect width="40" height="40" fill="white"/>
</clipPath>
</defs>
</svg>
