<svg width="20" height="20" viewBox="0 0 20 20" fill="none" xmlns="http://www.w3.org/2000/svg">
<path d="M15.9334 7.60013C15.6084 7.60013 15.3501 7.85846 15.3501 8.18346V9.50013C15.3501 12.4501 12.9501 14.8501 10.0001 14.8501C7.05007 14.8501 4.65007 12.4501 4.65007 9.50013V8.17513C4.65007 7.85013 4.39173 7.5918 4.06673 7.5918C3.74173 7.5918 3.4834 7.85013 3.4834 8.17513V9.4918C3.4834 12.8835 6.09173 15.6751 9.41673 15.9751V17.7501C9.41673 18.0751 9.67507 18.3335 10.0001 18.3335C10.3251 18.3335 10.5834 18.0751 10.5834 17.7501V15.9751C13.9001 15.6835 16.5167 12.8835 16.5167 9.4918V8.17513C16.5084 7.85846 16.2501 7.60013 15.9334 7.60013Z" fill="#949494"/>
<path d="M10.0002 1.6665C7.96689 1.6665 6.31689 3.3165 6.31689 5.34984V9.6165C6.31689 11.6498 7.96689 13.2998 10.0002 13.2998C12.0336 13.2998 13.6836 11.6498 13.6836 9.6165V5.34984C13.6836 3.3165 12.0336 1.6665 10.0002 1.6665ZM11.0919 7.45817C11.0336 7.67484 10.8419 7.8165 10.6252 7.8165C10.5836 7.8165 10.5419 7.80817 10.5002 7.79984C10.1752 7.70817 9.83356 7.70817 9.50856 7.79984C9.24189 7.87484 8.98356 7.7165 8.91689 7.45817C8.84189 7.19984 9.00023 6.93317 9.25856 6.8665C9.75023 6.73317 10.2669 6.73317 10.7586 6.8665C11.0086 6.93317 11.1586 7.19984 11.0919 7.45817ZM11.5336 5.8415C11.4586 6.0415 11.2752 6.15817 11.0752 6.15817C11.0169 6.15817 10.9669 6.14984 10.9086 6.13317C10.3252 5.9165 9.67523 5.9165 9.09189 6.13317C8.84189 6.22484 8.55856 6.0915 8.46689 5.8415C8.37523 5.5915 8.50856 5.30817 8.75856 5.22484C9.55856 4.93317 10.4419 4.93317 11.2419 5.22484C11.4919 5.3165 11.6252 5.5915 11.5336 5.8415Z" fill="#949494"/>
</svg>
