<svg width="296" height="253" viewBox="0 0 296 253" fill="none" xmlns="http://www.w3.org/2000/svg">
<g opacity="0.3">
<path d="M202.468 0.000877057L205.084 5.52069C204.071 9.31156 202.827 13.0368 201.358 16.6754C192.047 38.9302 177.585 58.6561 159.161 74.2302C140.574 90.1076 120.217 103.789 98.4948 115.002C76.8357 127.146 53.7231 136.223 33.388 150.367C13.0572 163.849 -4.18108 181.491 -17.1874 202.129C-29.9574 223.611 -37.5351 247.778 -39.3169 272.706C-41.1548 299.279 -40.0876 325.973 -36.1343 352.315L-44.414 356.24C-48.7713 327.897 -49.7966 299.142 -47.4689 270.561C-46.0118 244.611 -38.4048 219.38 -25.2756 196.95C-11.4319 175.238 7.04687 156.861 28.8344 143.137C50.1488 130.197 72.1349 118.397 94.6998 107.788C116.145 96.8943 136.327 83.6763 154.882 68.3718C172.794 53.6785 187.102 35.078 196.708 13.997C199.03 9.50732 200.957 4.82432 202.468 0.000877057Z" fill="#B385F2" fill-opacity="0.3"/>
<path d="M224.563 46.6117L227.033 51.8248C218.582 64.9312 208.202 76.6878 196.244 86.698C177.488 102.335 157.099 115.902 135.432 127.163C113.773 139.307 90.66 148.384 70.325 162.529C49.9941 176.01 32.7559 193.653 19.7495 214.291C6.97955 235.773 -0.598123 259.94 -2.38 284.867C-3.85725 301.988 -3.86396 319.204 -2.40008 336.326L-11.5998 340.687C-13.365 322.162 -13.5314 303.519 -12.0972 284.966C-9.96726 259.016 -1.79768 233.924 11.7588 211.694C25.646 190.017 44.1162 171.648 65.8688 157.881C87.4729 144.764 109.767 132.818 132.654 122.095C154.099 111.202 174.281 97.984 192.837 82.6795C205.221 72.3776 215.925 60.209 224.563 46.6117Z" fill="#B385F2" fill-opacity="0.3"/>
<path d="M242.586 84.6372L244.911 89.5436L233.76 100.087C215.004 115.724 194.615 129.291 172.948 140.552C150.654 151.237 128.967 163.146 107.986 176.224C87.6019 189.64 70.3511 207.296 57.411 227.986C44.4948 249.301 36.8578 273.392 35.1361 298.256C34.6858 305.229 34.5421 312.057 34.7051 318.739L26.4254 322.664C26.2943 314.464 26.7766 305.973 27.2588 297.483C29.4862 271.552 37.6487 246.482 51.1148 224.21C65.002 202.534 83.4722 184.165 105.225 170.398C126.539 157.458 148.525 145.658 171.09 135.048C192.535 124.155 212.717 110.937 231.273 95.6322C235.272 92.2093 239.05 88.5369 242.586 84.6372Z" fill="#B385F2" fill-opacity="0.3"/>
<path d="M257.992 117.143L260.318 122.049C244.675 134.131 227.991 144.803 210.464 153.94C188.174 164.634 166.488 176.543 145.503 189.613C125.118 203.029 107.867 220.684 94.9273 241.374C83.5348 259.179 76.2654 279.305 73.6506 300.28L65.0642 304.35C67.6371 280.847 75.3704 258.202 87.7113 238.035C101.67 216.273 120.249 197.851 142.128 184.077C163.336 171.179 185.22 159.427 207.687 148.873C225.437 139.939 242.284 129.313 257.992 117.143Z" fill="#B385F2" fill-opacity="0.3"/>
<path d="M272.091 146.888L274.416 151.794C265.217 156.155 256.889 162.355 247.98 167.329C226.628 179.327 203.208 188.55 183.019 203.001C162.721 216.522 145.49 234.157 132.443 254.763C127.821 261.969 124.042 269.682 121.182 277.751L111.062 282.548C114.646 271.594 119.503 261.099 125.534 251.278C139.493 229.516 158.071 211.094 179.951 197.32C201.257 184.365 223.243 172.565 245.816 161.97C254.564 157.449 263.473 152.475 272.091 146.888Z" fill="#B385F2" fill-opacity="0.3"/>
<path d="M285.169 174.489L287.495 179.395L285.348 180.413C263.995 192.411 240.576 201.633 220.693 215.939C207.409 224.739 195.347 235.255 184.818 247.214L169.792 254.336C182.689 236.947 198.7 222.1 217.012 210.549C238.318 197.595 260.305 185.794 282.877 175.199L285.169 174.489Z" fill="#B385F2" fill-opacity="0.3"/>
</g>
</svg>
