<svg width="240" height="357" viewBox="0 0 240 357" fill="none" xmlns="http://www.w3.org/2000/svg">
<g opacity="0.3">
<path d="M339.468 0.000877057L342.084 5.52069C341.071 9.31156 339.827 13.0368 338.358 16.6754C329.047 38.9302 314.585 58.6561 296.161 74.2302C277.574 90.1076 257.217 103.789 235.495 115.002C213.836 127.146 190.723 136.223 170.388 150.367C150.057 163.849 132.819 181.491 119.813 202.129C107.043 223.611 99.4649 247.778 97.6831 272.706C95.8452 299.279 96.9124 325.973 100.866 352.315L92.586 356.24C88.2287 327.897 87.2034 299.142 89.5311 270.561C90.9882 244.611 98.5952 219.38 111.724 196.95C125.568 175.238 144.047 156.861 165.834 143.137C187.149 130.197 209.135 118.397 231.7 107.788C253.145 96.8943 273.327 83.6763 291.882 68.3718C309.794 53.6785 324.102 35.078 333.708 13.997C336.03 9.50732 337.957 4.82432 339.468 0.000877057Z" fill="#B385F2" fill-opacity="0.3"/>
<path d="M361.563 46.6117L364.033 51.8248C355.582 64.9312 345.202 76.6878 333.244 86.698C314.488 102.335 294.099 115.902 272.432 127.163C250.773 139.307 227.66 148.384 207.325 162.529C186.994 176.01 169.756 193.653 156.75 214.291C143.98 235.773 136.402 259.94 134.62 284.867C133.143 301.988 133.136 319.204 134.6 336.326L125.4 340.687C123.635 322.162 123.469 303.519 124.903 284.966C127.033 259.016 135.202 233.924 148.759 211.694C162.646 190.017 181.116 171.648 202.869 157.881C224.473 144.764 246.767 132.818 269.654 122.095C291.099 111.202 311.281 97.984 329.837 82.6795C342.221 72.3776 352.925 60.209 361.563 46.6117Z" fill="#B385F2" fill-opacity="0.3"/>
<path d="M379.585 84.6372L381.911 89.5436L370.76 100.087C352.004 115.724 331.615 129.291 309.948 140.552C287.654 151.237 265.967 163.146 244.986 176.224C224.602 189.64 207.351 207.296 194.411 227.986C181.495 249.301 173.858 273.392 172.136 298.256C171.686 305.229 171.542 312.057 171.705 318.739L163.425 322.664C163.294 314.464 163.776 305.973 164.259 297.483C166.486 271.552 174.649 246.482 188.115 224.21C202.002 202.534 220.472 184.165 242.225 170.398C263.539 157.458 285.525 145.658 308.09 135.048C329.535 124.155 349.717 110.937 368.273 95.6322C372.272 92.2093 376.05 88.5369 379.585 84.6372Z" fill="#B385F2" fill-opacity="0.3"/>
<path d="M394.992 117.143L397.318 122.049C381.675 134.131 364.991 144.803 347.464 153.94C325.174 164.634 303.488 176.543 282.503 189.613C262.118 203.029 244.867 220.684 231.927 241.374C220.535 259.179 213.265 279.305 210.651 300.28L202.064 304.35C204.637 280.847 212.37 258.202 224.711 238.035C238.67 216.273 257.249 197.851 279.128 184.077C300.336 171.179 322.22 159.427 344.687 148.873C362.437 139.939 379.284 129.313 394.992 117.143Z" fill="#B385F2" fill-opacity="0.3"/>
<path d="M409.091 146.888L411.417 151.794C402.217 156.155 393.889 162.355 384.98 167.329C363.628 179.327 340.209 188.55 320.019 203.001C299.721 216.522 282.49 234.157 269.443 254.763C264.821 261.969 261.042 269.682 258.182 277.751L248.062 282.548C251.646 271.594 256.503 261.099 262.534 251.278C276.493 229.516 295.071 211.094 316.951 197.32C338.257 184.365 360.244 172.565 382.816 161.97C391.564 157.449 400.473 152.475 409.091 146.888Z" fill="#B385F2" fill-opacity="0.3"/>
</g>
</svg>
