<svg width="487" height="280" viewBox="0 0 487 280" fill="none" xmlns="http://www.w3.org/2000/svg">
<path d="M160.817 280H115.834C114.138 280 112.511 279.326 111.312 278.125C110.113 276.925 109.439 275.297 109.439 273.599V195.15H167.213V273.614C167.209 275.309 166.534 276.933 165.335 278.13C164.136 279.328 162.511 280 160.817 280Z" fill="#8B70E9"/>
<path opacity="0.2" d="M167.213 195.149H109.453V229.195L167.213 216.666V195.149Z" fill="black"/>
<path d="M192.066 92.2259C192.066 70.6278 200.64 49.9143 215.9 34.6421C231.16 19.3699 251.857 10.79 273.438 10.79C295.02 10.79 315.717 19.3699 330.977 34.6421C346.237 49.9143 354.811 70.6278 354.811 92.2259V195.092H192.066V92.2259Z" fill="#6C6191"/>
<path opacity="0.3" d="M192.066 92.2259C192.066 70.6278 200.64 49.9143 215.9 34.6421C231.16 19.3699 251.857 10.79 273.438 10.79C295.02 10.79 315.717 19.3699 330.977 34.6421C346.237 49.9143 354.811 70.6278 354.811 92.2259V195.092H192.066V92.2259Z" fill="#8B70E9"/>
<path d="M0.5 92.2117V185.006C0.499999 186.339 0.762644 187.659 1.27291 188.891C1.78317 190.123 2.53105 191.241 3.47376 192.184C4.41647 193.126 5.53552 193.873 6.7669 194.382C7.99828 194.89 9.31784 195.151 10.6501 195.15H192.067V92.2117C192.067 70.6136 200.64 49.9001 215.9 34.6279C231.161 19.3557 251.858 10.7759 273.439 10.7759H81.8721C60.2908 10.7759 39.5936 19.3557 24.3333 34.6279C9.07311 49.9001 0.5 70.6136 0.5 92.2117V92.2117Z" fill="#8B70E9"/>
<path opacity="0.2" d="M0.515045 164.775L192.082 164.775V136.201L0.515045 136.201V164.775Z" fill="black"/>
<path opacity="0.2" d="M0.515045 127.329L192.082 127.329V98.7551L0.515045 98.7551V127.329Z" fill="black"/>
<path d="M204.072 5.77539H180.76V7.20409H204.072V5.77539Z" fill="#6C6191"/>
<path d="M168.54 5.77539H156.006V7.20409H168.54V5.77539Z" fill="#6C6191"/>
<path d="M94.1918 118.985V3.2606C94.1921 2.79922 94.0917 2.34335 93.8977 1.92479C93.7038 1.50623 93.421 1.13506 93.0689 0.837155C92.7169 0.539254 92.3042 0.32181 91.8595 0.199978C91.4148 0.0781461 90.949 0.0548691 90.4944 0.131765L50.1367 6.77521V23.5339H80.9867V118.728C77.8714 120.16 75.3337 122.608 73.7885 125.671C72.2433 128.733 71.782 132.23 72.48 135.589C73.178 138.948 74.9941 141.971 77.6312 144.163C80.2684 146.356 83.5707 147.588 86.9983 147.658C90.4259 147.729 93.7759 146.633 96.5009 144.551C99.2258 142.469 101.164 139.524 102 136.196C102.835 132.868 102.517 129.356 101.099 126.232C99.6809 123.108 97.2458 120.559 94.1918 119V118.985Z" fill="#263238"/>
<path d="M203.644 206.794H412.413C413.937 206.798 415.401 206.199 416.486 205.129C417.571 204.059 418.191 202.604 418.209 201.079V201.079C418.209 199.54 417.599 198.065 416.512 196.977C415.425 195.889 413.951 195.278 412.413 195.278H192.066C192.085 198.339 193.313 201.268 195.483 203.425C197.652 205.583 200.586 206.794 203.644 206.794V206.794Z" fill="#6C6191"/>
<path opacity="0.2" d="M203.644 206.794H288.956C290.48 206.798 291.943 206.199 293.029 205.129C294.114 204.059 294.733 202.604 294.752 201.079V201.079C294.752 199.54 294.142 198.065 293.055 196.977C291.968 195.889 290.493 195.278 288.956 195.278H192.066C192.085 198.339 193.313 201.268 195.483 203.425C197.652 205.583 200.586 206.794 203.644 206.794V206.794Z" fill="black"/>
<path opacity="0.8" d="M455.376 9.52061L485.77 99.3715C486.951 102.898 486.69 106.748 485.045 110.083C483.401 113.418 480.505 115.967 476.99 117.173L272.689 186.494C269.162 187.678 265.31 187.415 261.976 185.763C258.642 184.111 256.098 181.204 254.901 177.679L224.523 87.8562C223.937 86.1539 223.695 84.3524 223.809 82.5558C223.973 79.7644 224.963 77.085 226.654 74.8587C228.344 72.6325 230.659 70.9601 233.302 70.0546L437.646 0.734095C440.292 -0.15698 443.143 -0.238742 445.836 0.499219C448.529 1.23718 450.941 2.7614 452.764 4.87734C453.933 6.23735 454.82 7.81545 455.376 9.52061Z" fill="#C0B4CF"/>
<path opacity="0.6" d="M452.708 4.87722L368.181 80.5269C363.932 84.3259 358.959 87.2269 353.563 89.0559C348.166 90.8849 342.455 91.6042 336.774 91.1707L223.738 82.5985C223.902 79.8071 224.893 77.1277 226.583 74.9014C228.274 72.6752 230.588 71.0029 233.232 70.0974L437.575 0.776834C440.219 -0.122304 443.071 -0.212454 445.766 0.517891C448.462 1.24824 450.878 2.76595 452.708 4.87722V4.87722Z" fill="#8B70E9"/>
</svg>
