<svg width="487" height="280" viewBox="0 0 487 280" fill="none" xmlns="http://www.w3.org/2000/svg">
<path d="M160.817 280H115.834C114.138 280 112.511 279.326 111.312 278.125C110.112 276.925 109.439 275.297 109.439 273.599V195.15H167.213V273.614C167.209 275.309 166.534 276.933 165.335 278.13C164.136 279.328 162.511 280 160.817 280Z" fill="#8B70E9"/>
<path opacity="0.2" d="M167.213 195.15H109.453V229.195L167.213 216.666V195.15Z" fill="black"/>
<path d="M192.067 92.226C192.067 70.6279 200.64 49.9143 215.9 34.6421C231.161 19.3699 251.858 10.7901 273.439 10.7901C295.02 10.7901 315.718 19.3699 330.978 34.6421C346.238 49.9143 354.811 70.6279 354.811 92.226V195.092H192.067V92.226Z" fill="#6C6191"/>
<path opacity="0.3" d="M192.067 92.226C192.067 70.6279 200.64 49.9143 215.9 34.6421C231.161 19.3699 251.858 10.7901 273.439 10.7901C295.02 10.7901 315.718 19.3699 330.978 34.6421C346.238 49.9143 354.811 70.6279 354.811 92.226V195.092H192.067V92.226Z" fill="#8B70E9"/>
<path d="M0.5 92.2117V185.006C0.499999 186.339 0.762644 187.659 1.27291 188.891C1.78317 190.123 2.53105 191.241 3.47376 192.184C4.41647 193.126 5.53552 193.873 6.7669 194.381C7.99828 194.89 9.31784 195.151 10.6501 195.15H192.067V92.2117C192.067 70.6135 200.64 49.9 215.9 34.6278C231.161 19.3556 251.858 10.7758 273.439 10.7758H81.8721C60.2908 10.7758 39.5936 19.3556 24.3333 34.6278C9.07311 49.9 0.5 70.6135 0.5 92.2117V92.2117Z" fill="#8B70E9"/>
<path opacity="0.2" d="M0.514313 164.775L192.081 164.775V136.201L0.514313 136.201V164.775Z" fill="black"/>
<path opacity="0.2" d="M0.514313 127.329L192.081 127.329V98.7552L0.514313 98.7552V127.329Z" fill="black"/>
<path d="M204.073 5.77539H180.761V7.20409H204.073V5.77539Z" fill="#6C6191"/>
<path d="M168.54 5.77539H156.006V7.20409H168.54V5.77539Z" fill="#6C6191"/>
<path d="M94.1921 118.985V3.26066C94.1923 2.79928 94.0919 2.34341 93.898 1.92485C93.704 1.50629 93.4212 1.13512 93.0692 0.837216C92.7171 0.539315 92.3044 0.321871 91.8597 0.200039C91.4151 0.0782071 90.9492 0.0549301 90.4947 0.131826L50.137 6.77527V23.5339H80.987V118.728C77.8716 120.16 75.3339 122.608 73.7887 125.671C72.2435 128.733 71.7822 132.23 72.4802 135.589C73.1783 138.948 74.9943 141.971 77.6315 144.163C80.2687 146.356 83.571 147.588 86.9986 147.658C90.4261 147.729 93.7762 146.633 96.5011 144.551C99.226 142.469 101.165 139.524 102 136.196C102.835 132.868 102.518 129.356 101.099 126.232C99.6812 123.108 97.246 120.559 94.1921 119V118.985Z" fill="#263238"/>
<path d="M203.645 206.793H412.414C413.938 206.797 415.401 206.199 416.487 205.129C417.572 204.059 418.191 202.603 418.21 201.079V201.079C418.21 199.54 417.599 198.065 416.512 196.977C415.425 195.889 413.951 195.278 412.414 195.278H192.067C192.086 198.339 193.314 201.268 195.483 203.425C197.652 205.583 200.586 206.794 203.645 206.793V206.793Z" fill="#6C6191"/>
<path opacity="0.2" d="M203.645 206.793H288.957C290.48 206.797 291.944 206.199 293.029 205.129C294.115 204.059 294.734 202.603 294.753 201.079V201.079C294.753 199.54 294.142 198.065 293.055 196.977C291.968 195.889 290.494 195.278 288.957 195.278H192.067C192.086 198.339 193.314 201.268 195.483 203.425C197.652 205.583 200.586 206.794 203.645 206.793V206.793Z" fill="black"/>
<path opacity="0.8" d="M455.377 9.52061L485.77 99.3715C486.951 102.898 486.691 106.748 485.046 110.083C483.401 113.418 480.506 115.967 476.991 117.173L272.69 186.494C269.163 187.678 265.31 187.415 261.977 185.763C258.643 184.111 256.099 181.204 254.902 177.679L224.523 87.8562C223.938 86.1539 223.695 84.3524 223.809 82.5558C223.973 79.7644 224.964 77.085 226.654 74.8587C228.345 72.6325 230.659 70.9602 233.303 70.0546L437.647 0.734095C440.293 -0.15698 443.144 -0.238742 445.837 0.499219C448.53 1.23718 450.941 2.7614 452.765 4.87734C453.933 6.23735 454.821 7.81545 455.377 9.52061Z" fill="#C0B4CF"/>
<path opacity="0.6" d="M452.708 4.87728L368.181 80.5269C363.931 84.3259 358.959 87.2269 353.562 89.0559C348.166 90.8849 342.455 91.6043 336.774 91.1708L223.738 82.5986C223.902 79.8072 224.892 77.1277 226.583 74.9015C228.274 72.6753 230.588 71.0029 233.231 70.0974L437.575 0.776895C440.219 -0.122243 443.071 -0.212393 445.766 0.517952C448.461 1.2483 450.878 2.76601 452.708 4.87728Z" fill="#8B70E9"/>
</svg>
