<svg width="97" height="127" viewBox="0 0 97 127" fill="none" xmlns="http://www.w3.org/2000/svg">
<g opacity="0.3">
<path d="M-23.2435 0.000370754L-24.1691 1.95321C-23.8107 3.29438 -23.3705 4.61232 -22.8509 5.89962C-19.5567 13.7731 -14.4402 20.7519 -7.9222 26.2618C-1.34609 31.8791 5.85584 36.7192 13.5409 40.6864C21.2036 44.9827 29.3806 48.194 36.5749 53.1983C43.7677 57.9678 49.8664 64.2096 54.4679 71.5111C58.9858 79.1111 61.6667 87.6611 62.2971 96.4801C62.9473 105.881 62.5697 115.326 61.1711 124.645L64.1004 126.033C65.6419 116.006 66.0047 105.833 65.1812 95.7213C64.6657 86.5407 61.9744 77.6142 57.3294 69.6786C52.4317 61.9973 45.8941 55.4956 38.1859 50.6403C30.6452 46.0623 22.8667 41.8877 14.8835 38.1341C7.29661 34.2801 0.15641 29.6037 -6.40838 24.1892C-12.7452 18.9909 -17.8071 12.4103 -21.206 4.95204C-22.0273 3.36364 -22.7091 1.70685 -23.2435 0.000370754Z" fill="#B385F2"/>
<path d="M-31.0604 16.4907L-31.9346 18.335C-28.9445 22.9719 -25.2722 27.1312 -21.0414 30.6727C-14.4059 36.2049 -7.19262 41.0048 0.473073 44.9889C8.13582 49.2851 16.3128 52.4965 23.5071 57.5008C30.6999 62.2703 36.7986 68.512 41.4001 75.8135C45.918 83.4136 48.5988 91.9636 49.2293 100.783C49.7519 106.84 49.7543 112.931 49.2364 118.988L52.4911 120.531C53.1156 113.977 53.1745 107.382 52.6671 100.818C51.9135 91.6368 49.0232 82.7594 44.2271 74.8948C39.314 67.2259 32.7795 60.7272 25.0836 55.8564C17.4404 51.2157 9.553 46.9894 1.45574 43.1959C-6.13117 39.342 -13.2714 34.6656 -19.8362 29.2511C-24.2176 25.6063 -28.0044 21.3013 -31.0604 16.4907Z" fill="#B385F2"/>
<path d="M-37.4367 29.9437L-38.2594 31.6795L-34.3142 35.4096C-27.6787 40.9418 -20.4654 45.7416 -12.7997 49.7257C-4.91227 53.506 2.76028 57.7192 10.1829 62.3461C17.3947 67.0926 23.4978 73.3389 28.0759 80.6588C32.6455 88.1996 35.3473 96.7231 35.9565 105.519C36.1158 107.986 36.1666 110.402 36.1089 112.766L39.0382 114.155C39.0846 111.254 38.914 108.25 38.7434 105.246C37.9553 96.072 35.0676 87.2024 30.3034 79.323C25.3903 71.6541 18.8557 65.1555 11.1599 60.2847C3.61912 55.7067 -4.15928 51.5321 -12.1425 47.7785C-19.7294 43.9246 -26.8696 39.2482 -33.4344 33.8336C-34.8491 32.6226 -36.1859 31.3234 -37.4367 29.9437Z" fill="#B385F2"/>
<path d="M-42.8874 41.4437L-43.7102 43.1796C-38.1757 47.4541 -32.2734 51.2298 -26.0725 54.4624C-18.1866 58.2458 -10.5142 62.4589 -3.0899 67.0828C4.12193 71.8293 10.2251 78.0756 14.8031 85.3955C18.8336 91.6946 21.4055 98.8149 22.3306 106.236L25.3683 107.675C24.4581 99.3604 21.7221 91.349 17.3561 84.214C12.4176 76.5149 5.84476 69.9974 -1.89589 65.1243C-9.39901 60.5611 -17.1414 56.4035 -25.0898 52.6695C-31.3697 49.5089 -37.3299 45.7495 -42.8874 41.4437Z" fill="#B385F2"/>
<path d="M-47.8753 51.9673L-48.6981 53.7032C-45.4433 55.2459 -42.4971 57.4395 -39.3453 59.1991C-31.791 63.4439 -23.5055 66.7067 -16.3627 71.8195C-9.18142 76.603 -3.0854 82.842 1.53033 90.1323C3.16579 92.6815 4.50263 95.4105 5.51447 98.2652L9.09468 99.9622C7.82677 96.0869 6.10838 92.3739 3.97479 88.8993C-0.963631 81.2002 -7.53651 74.6827 -15.2772 69.8096C-22.815 65.2264 -30.5937 61.0517 -38.5796 57.3033C-41.6744 55.7036 -44.8263 53.944 -47.8753 51.9673Z" fill="#B385F2"/>
</g>
</svg>
