<svg width="24" height="24" viewBox="0 0 24 24" fill="none" xmlns="http://www.w3.org/2000/svg">
<g clip-path="url(#clip0_2774_58157)">
<path d="M23.246 23.2138L17.25 17.2168" stroke="#8B70E9" stroke-width="3" stroke-linecap="round" stroke-linejoin="round"/>
<path d="M3.69308 11.2214C1.69848 8.11268 0.693912 4.47202 0.812082 0.78036C0.932082 0.78036 7.49608 0.72136 11.9901 3.68036" stroke="#8B70E9" stroke-width="3" stroke-linecap="round" stroke-linejoin="round"/>
<path d="M19.3363 13.5254C20.2233 16.0424 20.2543 18.2044 19.2453 19.2134C18.1863 20.2724 15.9993 20.2694 13.4893 19.3504" stroke="#8B70E9" stroke-width="3" stroke-linecap="round" stroke-linejoin="round"/>
<path d="M22.1641 1.80023C21.6015 1.23782 20.8386 0.921875 20.0431 0.921875C19.2476 0.921875 18.4847 1.23782 17.9221 1.80023L2.95609 16.7622L0.746094 23.2212L7.20009 21.0002L22.1641 6.03823C22.7253 5.47582 23.0405 4.71375 23.0405 3.91923C23.0405 3.12472 22.7253 2.36265 22.1641 1.80023V1.80023Z" stroke="#8B70E9" stroke-width="3" stroke-linecap="round" stroke-linejoin="round"/>
<path d="M17.041 2.67676L21.283 6.91876" stroke="#8B70E9" stroke-width="3" stroke-linecap="round" stroke-linejoin="round"/>
<path d="M2.95605 16.7617L7.20305 20.9997" stroke="#8B70E9" stroke-width="3" stroke-linecap="round" stroke-linejoin="round"/>
</g>
<defs>
<clipPath id="clip0_2774_58157">
<rect width="24" height="24" fill="white"/>
</clipPath>
</defs>
</svg>
