<svg width="368" height="345" viewBox="0 0 368 345" fill="none" xmlns="http://www.w3.org/2000/svg">
<g clip-path="url(#clip0_3001_60722)">
<rect x="-111" y="-197" width="589" height="542" rx="10.105" fill="#8B70E9"/>
<g clip-path="url(#clip1_3001_60722)">
<path d="M198 15V17C195.083 17 192.285 18.1589 190.222 20.2218C188.159 22.2847 187 25.0826 187 28C187 29.94 188.16 32.75 189.53 34.11L191.89 36.47C192.814 37.4708 193.422 38.7216 193.639 40.0662C193.856 41.4107 193.672 42.7894 193.11 44.03L192.68 44.87C192.011 46.0669 191.049 47.074 189.884 47.7965C188.719 48.519 187.389 48.9331 186.02 49H151V84.02C151.067 85.0179 151.379 85.9841 151.907 86.8333C152.435 87.6826 153.164 88.3889 154.03 88.89L154.87 89.32C156.45 90.11 158.87 89.72 160.11 88.47L162.47 86.11C164.537 84.2341 167.192 83.1347 169.98 83C171.687 82.9987 173.378 83.3336 174.956 83.9857C176.533 84.6378 177.967 85.5943 179.175 86.8005C180.383 88.0068 181.342 89.4391 181.997 91.0159C182.651 92.5926 182.989 94.2828 182.99 95.99C182.991 97.6972 182.656 99.3879 182.004 100.966C181.352 102.543 180.396 103.977 179.189 105.185C177.983 106.393 176.551 107.352 174.974 108.007C173.397 108.661 171.707 108.999 170 109C167.204 108.873 164.541 107.773 162.47 105.89L160.11 103.53C159.409 102.903 158.543 102.49 157.614 102.34C156.686 102.189 155.734 102.307 154.87 102.68L154.03 103.11C153.164 103.611 152.435 104.317 151.907 105.167C151.379 106.016 151.067 106.982 151 107.98V143H186.02C187.389 143.067 188.719 143.481 189.884 144.204C191.049 144.926 192.011 145.933 192.68 147.13L193.11 147.97C193.675 149.21 193.86 150.589 193.643 151.934C193.426 153.28 192.816 154.531 191.89 155.53L189.53 157.89C188.022 159.583 187.131 161.736 187 164C187 166.917 188.159 169.715 190.222 171.778C192.285 173.841 195.083 175 198 175V177C194.552 177 191.246 175.63 188.808 173.192C186.37 170.754 185 167.448 185 164C185.127 161.204 186.227 158.541 188.11 156.47L190.47 154.11C191.097 153.409 191.51 152.543 191.66 151.614C191.811 150.686 191.693 149.734 191.32 148.87L190.89 148.03C190.389 147.164 189.683 146.435 188.833 145.907C187.984 145.379 187.018 145.067 186.02 145H151V180.02C150.933 181.389 150.519 182.719 149.796 183.884C149.074 185.049 148.067 186.011 146.87 186.68L146.03 187.11C144.79 187.675 143.411 187.86 142.066 187.643C140.72 187.426 139.469 186.816 138.47 185.89L136.11 183.53C134.417 182.022 132.264 181.131 130 181C127.083 181 124.285 182.159 122.222 184.222C120.159 186.285 119 189.083 119 192H117C117 188.552 118.37 185.246 120.808 182.808C123.246 180.37 126.552 179 130 179C132.47 179 135.79 180.37 137.53 182.11L139.89 184.47C140.592 185.096 141.458 185.508 142.386 185.659C143.314 185.809 144.266 185.692 145.13 185.32L145.97 184.89C146.836 184.389 147.565 183.683 148.093 182.833C148.621 181.984 148.933 181.018 149 180.02V145H113.98C112.611 144.933 111.281 144.519 110.116 143.796C108.951 143.074 107.989 142.067 107.32 140.87L106.89 140.03C106.325 138.79 106.14 137.411 106.357 136.066C106.574 134.72 107.184 133.469 108.11 132.47L110.47 130.11C111.978 128.417 112.869 126.264 113 124C113 121.083 111.841 118.285 109.778 116.222C107.715 114.159 104.917 113 102 113C99.0826 113 96.2847 114.159 94.2218 116.222C92.1589 118.285 91 121.083 91 124C91 125.94 92.16 128.75 93.53 130.11L95.89 132.47C96.8137 133.471 97.4221 134.722 97.6391 136.066C97.856 137.411 97.672 138.789 97.11 140.03L96.68 140.87C96.0114 142.067 95.0493 143.074 93.8842 143.796C92.7191 144.519 91.3893 144.933 90.02 145H55V180.02C55.0671 181.018 55.3785 181.984 55.9069 182.833C56.4353 183.683 57.1644 184.389 58.03 184.89L58.87 185.32C60.45 186.11 62.87 185.72 64.11 184.47L66.47 182.11C68.5371 180.234 71.1918 179.135 73.98 179C75.6889 178.997 77.3815 179.332 78.961 179.984C80.5406 180.636 81.976 181.593 83.1853 182.801C84.3946 184.008 85.354 185.442 86.0085 187.02C86.6631 188.599 87 190.291 87 192H85C85 189.083 83.8411 186.285 81.7782 184.222C79.7153 182.159 76.9174 181 74 181C72.06 181 69.25 182.16 67.89 183.53L65.53 185.89C64.5292 186.814 63.2784 187.422 61.9338 187.639C60.5893 187.856 59.2106 187.672 57.97 187.11L57.13 186.68C55.9331 186.011 54.926 185.049 54.2035 183.884C53.481 182.719 53.0669 181.389 53 180.02V145H17.98C16.982 145.067 16.0159 145.379 15.1667 145.907C14.3174 146.435 13.6111 147.164 13.11 148.03L12.68 148.87C11.89 150.45 12.28 152.87 13.53 154.11L15.89 156.47C17.7659 158.537 18.8653 161.192 19 163.98C19.0026 165.689 18.6683 167.381 18.0162 168.961C17.364 170.541 16.4069 171.976 15.1995 173.185C13.992 174.395 12.558 175.354 10.9795 176.009C9.40097 176.663 7.70887 177 6 177L6 175C8.91738 175 11.7153 173.841 13.7782 171.778C15.8411 169.715 17 166.917 17 164C17 162.06 15.84 159.25 14.47 157.89L12.11 155.53C11.1863 154.529 10.5779 153.278 10.3609 151.934C10.144 150.589 10.328 149.211 10.89 147.97L11.32 147.13C11.9886 145.933 12.9507 144.926 14.1158 144.204C15.2809 143.481 16.6107 143.067 17.98 143H53V107.98C52.9329 106.982 52.6215 106.016 52.0931 105.167C51.5647 104.317 50.8356 103.611 49.97 103.11L49.13 102.68C47.54 101.88 45.13 102.28 43.89 103.53L41.53 105.89C39.4595 107.773 36.7959 108.873 34 109C30.5522 109 27.2456 107.63 24.8076 105.192C22.3696 102.754 21 99.4478 21 96C21 92.5522 22.3696 89.2456 24.8076 86.8076C27.2456 84.3696 30.5522 83 34 83C36.47 83 39.79 84.37 41.53 86.11L43.89 88.47C44.5919 89.0957 45.4579 89.5081 46.3861 89.6587C47.3143 89.8092 48.2663 89.6917 49.13 89.32L49.97 88.89C50.8356 88.3889 51.5647 87.6826 52.0931 86.8333C52.6215 85.9841 52.9329 85.0179 53 84.02V49H17.98C16.6107 48.9331 15.2809 48.519 14.1158 47.7965C12.9507 47.074 11.9886 46.0669 11.32 44.87L10.89 44.03C10.3253 42.79 10.1399 41.4107 10.357 40.0655C10.574 38.7204 11.1839 37.4695 12.11 36.47L14.47 34.11C15.9778 32.4166 16.8693 30.2636 17 28C17 25.0826 15.8411 22.2847 13.7782 20.2218C11.7153 18.1589 8.91738 17 6 17V15C9.44781 15 12.7544 16.3696 15.1924 18.8076C17.6304 21.2456 19 24.5522 19 28C19 30.47 17.63 33.79 15.89 35.53L13.53 37.89C12.9043 38.5919 12.4919 39.4579 12.3413 40.3861C12.1908 41.3143 12.3083 42.2663 12.68 43.13L13.11 43.97C13.6111 44.8356 14.3174 45.5647 15.1667 46.0931C16.0159 46.6215 16.982 46.9329 17.98 47H53V11.98C53.0669 10.6107 53.481 9.2809 54.2035 8.11579C54.926 6.95068 55.9331 5.98857 57.13 5.32L57.97 4.89C59.21 4.32535 60.5893 4.1399 61.9345 4.35697C63.2796 4.57404 64.5305 5.18395 65.53 6.11L67.89 8.47C69.5834 9.97778 71.7364 10.8693 74 11C76.9174 11 79.7153 9.84107 81.7782 7.77817C83.8411 5.71527 85 2.91738 85 0H87C87 3.44781 85.6304 6.75442 83.1924 9.19239C80.7544 11.6304 77.4478 13 74 13C71.2041 12.8732 68.5405 11.7731 66.47 9.89L64.11 7.53C63.4087 6.9032 62.5427 6.49012 61.6142 6.33951C60.6857 6.1889 59.7335 6.30704 58.87 6.68L58.03 7.11C57.1644 7.61113 56.4353 8.31742 55.9069 9.16666C55.3785 10.0159 55.0671 10.982 55 11.98V47H90.02C91.3893 47.0669 92.7191 47.481 93.8842 48.2035C95.0493 48.926 96.0114 49.9331 96.68 51.13L97.11 51.97C97.6747 53.21 97.8601 54.5893 97.643 55.9345C97.426 57.2796 96.8161 58.5305 95.89 59.53L93.53 61.89C92.0222 63.5834 91.1307 65.7364 91 68C91 70.9174 92.1589 73.7153 94.2218 75.7782C96.2847 77.8411 99.0826 79 102 79C104.917 79 107.715 77.8411 109.778 75.7782C111.841 73.7153 113 70.9174 113 68C113 66.06 111.84 63.25 110.47 61.89L108.11 59.53C107.186 58.5292 106.578 57.2784 106.361 55.9338C106.144 54.5893 106.328 53.2106 106.89 51.97L107.32 51.13C107.989 49.9331 108.951 48.926 110.116 48.2035C111.281 47.481 112.611 47.0669 113.98 47H149V11.98C148.933 10.982 148.621 10.0159 148.093 9.16666C147.565 8.31742 146.836 7.61113 145.97 7.11L145.13 6.68C143.54 5.88 141.13 6.28 139.89 7.53L137.53 9.89C135.459 11.7731 132.796 12.8732 130 13C126.552 13 123.246 11.6304 120.808 9.19239C118.37 6.75442 117 3.44781 117 0L119 0C119 2.91738 120.159 5.71527 122.222 7.77817C124.285 9.84107 127.083 11 130 11C131.94 11 134.75 9.84 136.11 8.47L138.47 6.11C139.471 5.18626 140.722 4.57791 142.066 4.36093C143.411 4.14395 144.789 4.32797 146.03 4.89L146.87 5.32C148.067 5.98857 149.074 6.95068 149.796 8.11579C150.519 9.2809 150.933 10.6107 151 11.98V47H186.02C187.018 46.9329 187.984 46.6215 188.833 46.0931C189.683 45.5647 190.389 44.8356 190.89 43.97L191.32 43.13C192.12 41.54 191.72 39.13 190.47 37.89L188.11 35.53C186.227 33.4595 185.127 30.7959 185 28C185 24.5522 186.37 21.2456 188.808 18.8076C191.246 16.3696 194.552 15 198 15ZM90.02 143C91.0179 142.933 91.9841 142.621 92.8333 142.093C93.6826 141.565 94.3889 140.836 94.89 139.97L95.32 139.13C96.12 137.54 95.72 135.13 94.47 133.89L92.11 131.53C90.2269 129.459 89.1268 126.796 89 124C89 120.552 90.3696 117.246 92.8076 114.808C95.2456 112.37 98.5522 111 102 111C105.448 111 108.754 112.37 111.192 114.808C113.63 117.246 115 120.552 115 124C115 126.47 113.63 129.79 111.89 131.53L109.53 133.89C108.904 134.592 108.492 135.458 108.341 136.386C108.191 137.314 108.308 138.266 108.68 139.13L109.11 139.97C109.611 140.836 110.317 141.565 111.167 142.093C112.016 142.621 112.982 142.933 113.98 143H149V107.98C149.067 106.611 149.481 105.281 150.204 104.116C150.926 102.951 151.933 101.989 153.13 101.32L153.97 100.89C155.21 100.325 156.589 100.14 157.934 100.357C159.28 100.574 160.531 101.184 161.53 102.11L163.89 104.47C165.583 105.978 167.736 106.869 170 107C172.917 107 175.715 105.841 177.778 103.778C179.841 101.715 181 98.9174 181 96C181 93.0826 179.841 90.2847 177.778 88.2218C175.715 86.1589 172.917 85 170 85C168.06 85 165.25 86.16 163.89 87.53L161.53 89.89C160.529 90.8137 159.278 91.4221 157.934 91.6391C156.589 91.856 155.211 91.672 153.97 91.11L153.13 90.68C151.933 90.0114 150.926 89.0493 150.204 87.8842C149.481 86.7191 149.067 85.3893 149 84.02V49H113.98C112.982 49.0671 112.016 49.3785 111.167 49.9069C110.317 50.4353 109.611 51.1644 109.11 52.03L108.68 52.87C107.89 54.45 108.28 56.87 109.53 58.11L111.89 60.47C113.766 62.5371 114.865 65.1918 115 67.98C115.001 69.6872 114.666 71.3779 114.014 72.9556C113.362 74.5334 112.406 75.9672 111.199 77.1753C108.763 79.6152 105.458 80.9873 102.01 80.99C100.303 80.9913 98.6121 80.6564 97.0344 80.0043C95.4566 79.3522 94.0228 78.3957 92.8147 77.1895C90.3748 74.7534 89.0027 71.4478 89 68C89.1268 65.2041 90.2269 62.5405 92.11 60.47L94.47 58.11C95.0968 57.4087 95.5099 56.5427 95.6605 55.6142C95.8111 54.6857 95.693 53.7335 95.32 52.87L94.89 52.03C94.3889 51.1644 93.6826 50.4353 92.8333 49.9069C91.9841 49.3785 91.0179 49.0671 90.02 49H55V84.02C54.9331 85.3893 54.519 86.7191 53.7965 87.8842C53.074 89.0493 52.0669 90.0114 50.87 90.68L50.03 91.11C48.79 91.6747 47.4107 91.8601 46.0655 91.643C44.7204 91.426 43.4695 90.8161 42.47 89.89L40.11 87.53C38.4166 86.0222 36.2636 85.1307 34 85C31.0826 85 28.2847 86.1589 26.2218 88.2218C24.1589 90.2847 23 93.0826 23 96C23 98.9174 24.1589 101.715 26.2218 103.778C28.2847 105.841 31.0826 107 34 107C35.94 107 38.75 105.84 40.11 104.47L42.47 102.11C43.4708 101.186 44.7216 100.578 46.0662 100.361C47.4107 100.144 48.7894 100.328 50.03 100.89L50.87 101.32C52.0669 101.989 53.074 102.951 53.7965 104.116C54.519 105.281 54.9331 106.611 55 107.98V143H90.02Z" fill="#8648DB"/>
</g>
<g clip-path="url(#clip2_3001_60722)">
<path d="M390 15V17C387.083 17 384.285 18.1589 382.222 20.2218C380.159 22.2847 379 25.0826 379 28C379 29.94 380.16 32.75 381.53 34.11L383.89 36.47C384.814 37.4708 385.422 38.7216 385.639 40.0662C385.856 41.4107 385.672 42.7894 385.11 44.03L384.68 44.87C384.011 46.0669 383.049 47.074 381.884 47.7965C380.719 48.519 379.389 48.9331 378.02 49H343V84.02C343.067 85.0179 343.379 85.9841 343.907 86.8333C344.435 87.6826 345.164 88.3889 346.03 88.89L346.87 89.32C348.45 90.11 350.87 89.72 352.11 88.47L354.47 86.11C356.537 84.2341 359.192 83.1347 361.98 83C363.687 82.9987 365.378 83.3336 366.956 83.9857C368.533 84.6378 369.967 85.5943 371.175 86.8005C372.383 88.0068 373.342 89.4391 373.997 91.0159C374.651 92.5926 374.989 94.2828 374.99 95.99C374.991 97.6972 374.656 99.3879 374.004 100.966C373.352 102.543 372.396 103.977 371.189 105.185C369.983 106.393 368.551 107.352 366.974 108.007C365.397 108.661 363.707 108.999 362 109C359.204 108.873 356.541 107.773 354.47 105.89L352.11 103.53C351.409 102.903 350.543 102.49 349.614 102.34C348.686 102.189 347.734 102.307 346.87 102.68L346.03 103.11C345.164 103.611 344.435 104.317 343.907 105.167C343.379 106.016 343.067 106.982 343 107.98V143H378.02C379.389 143.067 380.719 143.481 381.884 144.204C383.049 144.926 384.011 145.933 384.68 147.13L385.11 147.97C385.675 149.21 385.86 150.589 385.643 151.934C385.426 153.28 384.816 154.531 383.89 155.53L381.53 157.89C380.022 159.583 379.131 161.736 379 164C379 166.917 380.159 169.715 382.222 171.778C384.285 173.841 387.083 175 390 175V177C386.552 177 383.246 175.63 380.808 173.192C378.37 170.754 377 167.448 377 164C377.127 161.204 378.227 158.541 380.11 156.47L382.47 154.11C383.097 153.409 383.51 152.543 383.66 151.614C383.811 150.686 383.693 149.734 383.32 148.87L382.89 148.03C382.389 147.164 381.683 146.435 380.833 145.907C379.984 145.379 379.018 145.067 378.02 145H343V180.02C342.933 181.389 342.519 182.719 341.796 183.884C341.074 185.049 340.067 186.011 338.87 186.68L338.03 187.11C336.79 187.675 335.411 187.86 334.066 187.643C332.72 187.426 331.469 186.816 330.47 185.89L328.11 183.53C326.417 182.022 324.264 181.131 322 181C319.083 181 316.285 182.159 314.222 184.222C312.159 186.285 311 189.083 311 192H309C309 188.552 310.37 185.246 312.808 182.808C315.246 180.37 318.552 179 322 179C324.47 179 327.79 180.37 329.53 182.11L331.89 184.47C332.592 185.096 333.458 185.508 334.386 185.659C335.314 185.809 336.266 185.692 337.13 185.32L337.97 184.89C338.836 184.389 339.565 183.683 340.093 182.833C340.621 181.984 340.933 181.018 341 180.02V145H305.98C304.611 144.933 303.281 144.519 302.116 143.796C300.951 143.074 299.989 142.067 299.32 140.87L298.89 140.03C298.325 138.79 298.14 137.411 298.357 136.066C298.574 134.72 299.184 133.469 300.11 132.47L302.47 130.11C303.978 128.417 304.869 126.264 305 124C305 121.083 303.841 118.285 301.778 116.222C299.715 114.159 296.917 113 294 113C291.083 113 288.285 114.159 286.222 116.222C284.159 118.285 283 121.083 283 124C283 125.94 284.16 128.75 285.53 130.11L287.89 132.47C288.814 133.471 289.422 134.722 289.639 136.066C289.856 137.411 289.672 138.789 289.11 140.03L288.68 140.87C288.011 142.067 287.049 143.074 285.884 143.796C284.719 144.519 283.389 144.933 282.02 145H247V180.02C247.067 181.018 247.379 181.984 247.907 182.833C248.435 183.683 249.164 184.389 250.03 184.89L250.87 185.32C252.45 186.11 254.87 185.72 256.11 184.47L258.47 182.11C260.537 180.234 263.192 179.135 265.98 179C267.689 178.997 269.381 179.332 270.961 179.984C272.541 180.636 273.976 181.593 275.185 182.801C276.395 184.008 277.354 185.442 278.009 187.02C278.663 188.599 279 190.291 279 192H277C277 189.083 275.841 186.285 273.778 184.222C271.715 182.159 268.917 181 266 181C264.06 181 261.25 182.16 259.89 183.53L257.53 185.89C256.529 186.814 255.278 187.422 253.934 187.639C252.589 187.856 251.211 187.672 249.97 187.11L249.13 186.68C247.933 186.011 246.926 185.049 246.204 183.884C245.481 182.719 245.067 181.389 245 180.02V145H209.98C208.982 145.067 208.016 145.379 207.167 145.907C206.317 146.435 205.611 147.164 205.11 148.03L204.68 148.87C203.89 150.45 204.28 152.87 205.53 154.11L207.89 156.47C209.766 158.537 210.865 161.192 211 163.98C211.003 165.689 210.668 167.381 210.016 168.961C209.364 170.541 208.407 171.976 207.199 173.185C205.992 174.395 204.558 175.354 202.98 176.009C201.401 176.663 199.709 177 198 177V175C200.917 175 203.715 173.841 205.778 171.778C207.841 169.715 209 166.917 209 164C209 162.06 207.84 159.25 206.47 157.89L204.11 155.53C203.186 154.529 202.578 153.278 202.361 151.934C202.144 150.589 202.328 149.211 202.89 147.97L203.32 147.13C203.989 145.933 204.951 144.926 206.116 144.204C207.281 143.481 208.611 143.067 209.98 143H245V107.98C244.933 106.982 244.621 106.016 244.093 105.167C243.565 104.317 242.836 103.611 241.97 103.11L241.13 102.68C239.54 101.88 237.13 102.28 235.89 103.53L233.53 105.89C231.459 107.773 228.796 108.873 226 109C222.552 109 219.246 107.63 216.808 105.192C214.37 102.754 213 99.4478 213 96C213 92.5522 214.37 89.2456 216.808 86.8076C219.246 84.3696 222.552 83 226 83C228.47 83 231.79 84.37 233.53 86.11L235.89 88.47C236.592 89.0957 237.458 89.5081 238.386 89.6587C239.314 89.8092 240.266 89.6917 241.13 89.32L241.97 88.89C242.836 88.3889 243.565 87.6826 244.093 86.8333C244.621 85.9841 244.933 85.0179 245 84.02V49H209.98C208.611 48.9331 207.281 48.519 206.116 47.7965C204.951 47.074 203.989 46.0669 203.32 44.87L202.89 44.03C202.325 42.79 202.14 41.4107 202.357 40.0655C202.574 38.7204 203.184 37.4695 204.11 36.47L206.47 34.11C207.978 32.4166 208.869 30.2636 209 28C209 25.0826 207.841 22.2847 205.778 20.2218C203.715 18.1589 200.917 17 198 17V15C201.448 15 204.754 16.3696 207.192 18.8076C209.63 21.2456 211 24.5522 211 28C211 30.47 209.63 33.79 207.89 35.53L205.53 37.89C204.904 38.5919 204.492 39.4579 204.341 40.3861C204.191 41.3143 204.308 42.2663 204.68 43.13L205.11 43.97C205.611 44.8356 206.317 45.5647 207.167 46.0931C208.016 46.6215 208.982 46.9329 209.98 47H245V11.98C245.067 10.6107 245.481 9.2809 246.204 8.11579C246.926 6.95068 247.933 5.98857 249.13 5.32L249.97 4.89C251.21 4.32535 252.589 4.1399 253.934 4.35697C255.28 4.57404 256.531 5.18395 257.53 6.11L259.89 8.47C261.583 9.97778 263.736 10.8693 266 11C268.917 11 271.715 9.84107 273.778 7.77817C275.841 5.71527 277 2.91738 277 0H279C279 3.44781 277.63 6.75442 275.192 9.19239C272.754 11.6304 269.448 13 266 13C263.204 12.8732 260.541 11.7731 258.47 9.89L256.11 7.53C255.409 6.9032 254.543 6.49012 253.614 6.33951C252.686 6.1889 251.734 6.30704 250.87 6.68L250.03 7.11C249.164 7.61113 248.435 8.31742 247.907 9.16666C247.379 10.0159 247.067 10.982 247 11.98V47H282.02C283.389 47.0669 284.719 47.481 285.884 48.2035C287.049 48.926 288.011 49.9331 288.68 51.13L289.11 51.97C289.675 53.21 289.86 54.5893 289.643 55.9345C289.426 57.2796 288.816 58.5305 287.89 59.53L285.53 61.89C284.022 63.5834 283.131 65.7364 283 68C283 70.9174 284.159 73.7153 286.222 75.7782C288.285 77.8411 291.083 79 294 79C296.917 79 299.715 77.8411 301.778 75.7782C303.841 73.7153 305 70.9174 305 68C305 66.06 303.84 63.25 302.47 61.89L300.11 59.53C299.186 58.5292 298.578 57.2784 298.361 55.9338C298.144 54.5893 298.328 53.2106 298.89 51.97L299.32 51.13C299.989 49.9331 300.951 48.926 302.116 48.2035C303.281 47.481 304.611 47.0669 305.98 47H341V11.98C340.933 10.982 340.621 10.0159 340.093 9.16666C339.565 8.31742 338.836 7.61113 337.97 7.11L337.13 6.68C335.54 5.88 333.13 6.28 331.89 7.53L329.53 9.89C327.459 11.7731 324.796 12.8732 322 13C318.552 13 315.246 11.6304 312.808 9.19239C310.37 6.75442 309 3.44781 309 0L311 0C311 2.91738 312.159 5.71527 314.222 7.77817C316.285 9.84107 319.083 11 322 11C323.94 11 326.75 9.84 328.11 8.47L330.47 6.11C331.471 5.18626 332.722 4.57791 334.066 4.36093C335.411 4.14395 336.789 4.32797 338.03 4.89L338.87 5.32C340.067 5.98857 341.074 6.95068 341.796 8.11579C342.519 9.2809 342.933 10.6107 343 11.98V47H378.02C379.018 46.9329 379.984 46.6215 380.833 46.0931C381.683 45.5647 382.389 44.8356 382.89 43.97L383.32 43.13C384.12 41.54 383.72 39.13 382.47 37.89L380.11 35.53C378.227 33.4595 377.127 30.7959 377 28C377 24.5522 378.37 21.2456 380.808 18.8076C383.246 16.3696 386.552 15 390 15ZM282.02 143C283.018 142.933 283.984 142.621 284.833 142.093C285.683 141.565 286.389 140.836 286.89 139.97L287.32 139.13C288.12 137.54 287.72 135.13 286.47 133.89L284.11 131.53C282.227 129.459 281.127 126.796 281 124C281 120.552 282.37 117.246 284.808 114.808C287.246 112.37 290.552 111 294 111C297.448 111 300.754 112.37 303.192 114.808C305.63 117.246 307 120.552 307 124C307 126.47 305.63 129.79 303.89 131.53L301.53 133.89C300.904 134.592 300.492 135.458 300.341 136.386C300.191 137.314 300.308 138.266 300.68 139.13L301.11 139.97C301.611 140.836 302.317 141.565 303.167 142.093C304.016 142.621 304.982 142.933 305.98 143H341V107.98C341.067 106.611 341.481 105.281 342.204 104.116C342.926 102.951 343.933 101.989 345.13 101.32L345.97 100.89C347.21 100.325 348.589 100.14 349.934 100.357C351.28 100.574 352.531 101.184 353.53 102.11L355.89 104.47C357.583 105.978 359.736 106.869 362 107C364.917 107 367.715 105.841 369.778 103.778C371.841 101.715 373 98.9174 373 96C373 93.0826 371.841 90.2847 369.778 88.2218C367.715 86.1589 364.917 85 362 85C360.06 85 357.25 86.16 355.89 87.53L353.53 89.89C352.529 90.8137 351.278 91.4221 349.934 91.6391C348.589 91.856 347.211 91.672 345.97 91.11L345.13 90.68C343.933 90.0114 342.926 89.0493 342.204 87.8842C341.481 86.7191 341.067 85.3893 341 84.02V49H305.98C304.982 49.0671 304.016 49.3785 303.167 49.9069C302.317 50.4353 301.611 51.1644 301.11 52.03L300.68 52.87C299.89 54.45 300.28 56.87 301.53 58.11L303.89 60.47C305.766 62.5371 306.865 65.1918 307 67.98C307.001 69.6872 306.666 71.3779 306.014 72.9556C305.362 74.5334 304.406 75.9672 303.199 77.1753C300.763 79.6152 297.458 80.9873 294.01 80.99C292.303 80.9913 290.612 80.6564 289.034 80.0043C287.457 79.3522 286.023 78.3957 284.815 77.1895C282.375 74.7534 281.003 71.4478 281 68C281.127 65.2041 282.227 62.5405 284.11 60.47L286.47 58.11C287.097 57.4087 287.51 56.5427 287.66 55.6142C287.811 54.6857 287.693 53.7335 287.32 52.87L286.89 52.03C286.389 51.1644 285.683 50.4353 284.833 49.9069C283.984 49.3785 283.018 49.0671 282.02 49H247V84.02C246.933 85.3893 246.519 86.7191 245.796 87.8842C245.074 89.0493 244.067 90.0114 242.87 90.68L242.03 91.11C240.79 91.6747 239.411 91.8601 238.066 91.643C236.72 91.426 235.469 90.8161 234.47 89.89L232.11 87.53C230.417 86.0222 228.264 85.1307 226 85C223.083 85 220.285 86.1589 218.222 88.2218C216.159 90.2847 215 93.0826 215 96C215 98.9174 216.159 101.715 218.222 103.778C220.285 105.841 223.083 107 226 107C227.94 107 230.75 105.84 232.11 104.47L234.47 102.11C235.471 101.186 236.722 100.578 238.066 100.361C239.411 100.144 240.789 100.328 242.03 100.89L242.87 101.32C244.067 101.989 245.074 102.951 245.796 104.116C246.519 105.281 246.933 106.611 247 107.98V143H282.02Z" fill="#8648DB"/>
</g>
<g clip-path="url(#clip3_3001_60722)">
<path d="M192 207V209C189.083 209 186.285 210.159 184.222 212.222C182.159 214.285 181 217.083 181 220C181 221.94 182.16 224.75 183.53 226.11L185.89 228.47C186.814 229.471 187.422 230.722 187.639 232.066C187.856 233.411 187.672 234.789 187.11 236.03L186.68 236.87C186.011 238.067 185.049 239.074 183.884 239.796C182.719 240.519 181.389 240.933 180.02 241H145V276.02C145.067 277.018 145.379 277.984 145.907 278.833C146.435 279.683 147.164 280.389 148.03 280.89L148.87 281.32C150.45 282.11 152.87 281.72 154.11 280.47L156.47 278.11C158.537 276.234 161.192 275.135 163.98 275C165.687 274.999 167.378 275.334 168.956 275.986C170.533 276.638 171.967 277.594 173.175 278.801C174.383 280.007 175.342 281.439 175.997 283.016C176.651 284.593 176.989 286.283 176.99 287.99C176.991 289.697 176.656 291.388 176.004 292.966C175.352 294.543 174.396 295.977 173.189 297.185C171.983 298.393 170.551 299.352 168.974 300.007C167.397 300.661 165.707 300.999 164 301C161.204 300.873 158.541 299.773 156.47 297.89L154.11 295.53C153.409 294.903 152.543 294.49 151.614 294.34C150.686 294.189 149.734 294.307 148.87 294.68L148.03 295.11C147.164 295.611 146.435 296.317 145.907 297.167C145.379 298.016 145.067 298.982 145 299.98V335H180.02C181.389 335.067 182.719 335.481 183.884 336.204C185.049 336.926 186.011 337.933 186.68 339.13L187.11 339.97C187.675 341.21 187.86 342.589 187.643 343.934C187.426 345.28 186.816 346.531 185.89 347.53L183.53 349.89C182.022 351.583 181.131 353.736 181 356C181 358.917 182.159 361.715 184.222 363.778C186.285 365.841 189.083 367 192 367V369C188.552 369 185.246 367.63 182.808 365.192C180.37 362.754 179 359.448 179 356C179.127 353.204 180.227 350.541 182.11 348.47L184.47 346.11C185.097 345.409 185.51 344.543 185.66 343.614C185.811 342.686 185.693 341.734 185.32 340.87L184.89 340.03C184.389 339.164 183.683 338.435 182.833 337.907C181.984 337.379 181.018 337.067 180.02 337H145V372.02C144.933 373.389 144.519 374.719 143.796 375.884C143.074 377.049 142.067 378.011 140.87 378.68L140.03 379.11C138.79 379.675 137.411 379.86 136.066 379.643C134.72 379.426 133.469 378.816 132.47 377.89L130.11 375.53C128.417 374.022 126.264 373.131 124 373C121.083 373 118.285 374.159 116.222 376.222C114.159 378.285 113 381.083 113 384H111C111 380.552 112.37 377.246 114.808 374.808C117.246 372.37 120.552 371 124 371C126.47 371 129.79 372.37 131.53 374.11L133.89 376.47C134.592 377.096 135.458 377.508 136.386 377.659C137.314 377.809 138.266 377.692 139.13 377.32L139.97 376.89C140.836 376.389 141.565 375.683 142.093 374.833C142.621 373.984 142.933 373.018 143 372.02V337H107.98C106.611 336.933 105.281 336.519 104.116 335.796C102.951 335.074 101.989 334.067 101.32 332.87L100.89 332.03C100.325 330.79 100.14 329.411 100.357 328.066C100.574 326.72 101.184 325.469 102.11 324.47L104.47 322.11C105.978 320.417 106.869 318.264 107 316C107 313.083 105.841 310.285 103.778 308.222C101.715 306.159 98.9174 305 96 305C93.0826 305 90.2847 306.159 88.2218 308.222C86.1589 310.285 85 313.083 85 316C85 317.94 86.16 320.75 87.53 322.11L89.89 324.47C90.8137 325.471 91.4221 326.722 91.6391 328.066C91.856 329.411 91.672 330.789 91.11 332.03L90.68 332.87C90.0114 334.067 89.0493 335.074 87.8842 335.796C86.7191 336.519 85.3893 336.933 84.02 337H49V372.02C49.0671 373.018 49.3785 373.984 49.9069 374.833C50.4353 375.683 51.1644 376.389 52.03 376.89L52.87 377.32C54.45 378.11 56.87 377.72 58.11 376.47L60.47 374.11C62.5371 372.234 65.1918 371.135 67.98 371C69.6889 370.997 71.3815 371.332 72.961 371.984C74.5406 372.636 75.976 373.593 77.1853 374.801C78.3946 376.008 79.354 377.442 80.0085 379.02C80.6631 380.599 81 382.291 81 384H79C79 381.083 77.8411 378.285 75.7782 376.222C73.7153 374.159 70.9174 373 68 373C66.06 373 63.25 374.16 61.89 375.53L59.53 377.89C58.5292 378.814 57.2784 379.422 55.9338 379.639C54.5893 379.856 53.2106 379.672 51.97 379.11L51.13 378.68C49.9331 378.011 48.926 377.049 48.2035 375.884C47.481 374.719 47.0669 373.389 47 372.02V337H11.98C10.982 337.067 10.0159 337.379 9.16666 337.907C8.31742 338.435 7.61113 339.164 7.11 340.03L6.68 340.87C5.89 342.45 6.28 344.87 7.53 346.11L9.89 348.47C11.7659 350.537 12.8653 353.192 13 355.98C13.0026 357.689 12.6683 359.381 12.0162 360.961C11.364 362.541 10.4069 363.976 9.19947 365.185C7.99204 366.395 6.55805 367.354 4.97951 368.009C3.40097 368.663 1.70887 369 0 369L0 367C2.91738 367 5.71527 365.841 7.77817 363.778C9.84107 361.715 11 358.917 11 356C11 354.06 9.84 351.25 8.47 349.89L6.11 347.53C5.18626 346.529 4.57791 345.278 4.36093 343.934C4.14395 342.589 4.32797 341.211 4.89 339.97L5.32 339.13C5.98857 337.933 6.95068 336.926 8.11579 336.204C9.2809 335.481 10.6107 335.067 11.98 335H47V299.98C46.9329 298.982 46.6215 298.016 46.0931 297.167C45.5647 296.317 44.8356 295.611 43.97 295.11L43.13 294.68C41.54 293.88 39.13 294.28 37.89 295.53L35.53 297.89C33.4595 299.773 30.7959 300.873 28 301C24.5522 301 21.2456 299.63 18.8076 297.192C16.3696 294.754 15 291.448 15 288C15 284.552 16.3696 281.246 18.8076 278.808C21.2456 276.37 24.5522 275 28 275C30.47 275 33.79 276.37 35.53 278.11L37.89 280.47C38.5919 281.096 39.4579 281.508 40.3861 281.659C41.3143 281.809 42.2663 281.692 43.13 281.32L43.97 280.89C44.8356 280.389 45.5647 279.683 46.0931 278.833C46.6215 277.984 46.9329 277.018 47 276.02V241H11.98C10.6107 240.933 9.2809 240.519 8.11579 239.796C6.95068 239.074 5.98857 238.067 5.32 236.87L4.89 236.03C4.32535 234.79 4.1399 233.411 4.35697 232.066C4.57404 230.72 5.18395 229.469 6.11 228.47L8.47 226.11C9.97778 224.417 10.8693 222.264 11 220C11 217.083 9.84107 214.285 7.77817 212.222C5.71527 210.159 2.91738 209 0 209L0 207C3.44781 207 6.75442 208.37 9.19239 210.808C11.6304 213.246 13 216.552 13 220C13 222.47 11.63 225.79 9.89 227.53L7.53 229.89C6.90428 230.592 6.49191 231.458 6.34134 232.386C6.19077 233.314 6.30826 234.266 6.68 235.13L7.11 235.97C7.61113 236.836 8.31742 237.565 9.16666 238.093C10.0159 238.621 10.982 238.933 11.98 239H47V203.98C47.0669 202.611 47.481 201.281 48.2035 200.116C48.926 198.951 49.9331 197.989 51.13 197.32L51.97 196.89C53.21 196.325 54.5893 196.14 55.9345 196.357C57.2796 196.574 58.5305 197.184 59.53 198.11L61.89 200.47C63.5834 201.978 65.7364 202.869 68 203C70.9174 203 73.7153 201.841 75.7782 199.778C77.8411 197.715 79 194.917 79 192H81C81 195.448 79.6304 198.754 77.1924 201.192C74.7544 203.63 71.4478 205 68 205C65.2041 204.873 62.5405 203.773 60.47 201.89L58.11 199.53C57.4087 198.903 56.5427 198.49 55.6142 198.34C54.6857 198.189 53.7335 198.307 52.87 198.68L52.03 199.11C51.1644 199.611 50.4353 200.317 49.9069 201.167C49.3785 202.016 49.0671 202.982 49 203.98V239H84.02C85.3893 239.067 86.7191 239.481 87.8842 240.204C89.0493 240.926 90.0114 241.933 90.68 243.13L91.11 243.97C91.6747 245.21 91.8601 246.589 91.643 247.934C91.426 249.28 90.8161 250.531 89.89 251.53L87.53 253.89C86.0222 255.583 85.1307 257.736 85 260C85 262.917 86.1589 265.715 88.2218 267.778C90.2847 269.841 93.0826 271 96 271C98.9174 271 101.715 269.841 103.778 267.778C105.841 265.715 107 262.917 107 260C107 258.06 105.84 255.25 104.47 253.89L102.11 251.53C101.186 250.529 100.578 249.278 100.361 247.934C100.144 246.589 100.328 245.211 100.89 243.97L101.32 243.13C101.989 241.933 102.951 240.926 104.116 240.204C105.281 239.481 106.611 239.067 107.98 239H143V203.98C142.933 202.982 142.621 202.016 142.093 201.167C141.565 200.317 140.836 199.611 139.97 199.11L139.13 198.68C137.54 197.88 135.13 198.28 133.89 199.53L131.53 201.89C129.459 203.773 126.796 204.873 124 205C120.552 205 117.246 203.63 114.808 201.192C112.37 198.754 111 195.448 111 192H113C113 194.917 114.159 197.715 116.222 199.778C118.285 201.841 121.083 203 124 203C125.94 203 128.75 201.84 130.11 200.47L132.47 198.11C133.471 197.186 134.722 196.578 136.066 196.361C137.411 196.144 138.789 196.328 140.03 196.89L140.87 197.32C142.067 197.989 143.074 198.951 143.796 200.116C144.519 201.281 144.933 202.611 145 203.98V239H180.02C181.018 238.933 181.984 238.621 182.833 238.093C183.683 237.565 184.389 236.836 184.89 235.97L185.32 235.13C186.12 233.54 185.72 231.13 184.47 229.89L182.11 227.53C180.227 225.459 179.127 222.796 179 220C179 216.552 180.37 213.246 182.808 210.808C185.246 208.37 188.552 207 192 207ZM84.02 335C85.0179 334.933 85.9841 334.621 86.8333 334.093C87.6826 333.565 88.3889 332.836 88.89 331.97L89.32 331.13C90.12 329.54 89.72 327.13 88.47 325.89L86.11 323.53C84.2269 321.459 83.1268 318.796 83 316C83 312.552 84.3696 309.246 86.8076 306.808C89.2456 304.37 92.5522 303 96 303C99.4478 303 102.754 304.37 105.192 306.808C107.63 309.246 109 312.552 109 316C109 318.47 107.63 321.79 105.89 323.53L103.53 325.89C102.904 326.592 102.492 327.458 102.341 328.386C102.191 329.314 102.308 330.266 102.68 331.13L103.11 331.97C103.611 332.836 104.317 333.565 105.167 334.093C106.016 334.621 106.982 334.933 107.98 335H143V299.98C143.067 298.611 143.481 297.281 144.204 296.116C144.926 294.951 145.933 293.989 147.13 293.32L147.97 292.89C149.21 292.325 150.589 292.14 151.934 292.357C153.28 292.574 154.531 293.184 155.53 294.11L157.89 296.47C159.583 297.978 161.736 298.869 164 299C166.917 299 169.715 297.841 171.778 295.778C173.841 293.715 175 290.917 175 288C175 285.083 173.841 282.285 171.778 280.222C169.715 278.159 166.917 277 164 277C162.06 277 159.25 278.16 157.89 279.53L155.53 281.89C154.529 282.814 153.278 283.422 151.934 283.639C150.589 283.856 149.211 283.672 147.97 283.11L147.13 282.68C145.933 282.011 144.926 281.049 144.204 279.884C143.481 278.719 143.067 277.389 143 276.02V241H107.98C106.982 241.067 106.016 241.379 105.167 241.907C104.317 242.435 103.611 243.164 103.11 244.03L102.68 244.87C101.89 246.45 102.28 248.87 103.53 250.11L105.89 252.47C107.766 254.537 108.865 257.192 109 259.98C109.001 261.687 108.666 263.378 108.014 264.956C107.362 266.533 106.406 267.967 105.199 269.175C102.763 271.615 99.4578 272.987 96.01 272.99C94.3028 272.991 92.6121 272.656 91.0344 272.004C89.4566 271.352 88.0228 270.396 86.8147 269.189C84.3748 266.753 83.0027 263.448 83 260C83.1268 257.204 84.2269 254.541 86.11 252.47L88.47 250.11C89.0968 249.409 89.5099 248.543 89.6605 247.614C89.8111 246.686 89.693 245.734 89.32 244.87L88.89 244.03C88.3889 243.164 87.6826 242.435 86.8333 241.907C85.9841 241.379 85.0179 241.067 84.02 241H49V276.02C48.9331 277.389 48.519 278.719 47.7965 279.884C47.074 281.049 46.0669 282.011 44.87 282.68L44.03 283.11C42.79 283.675 41.4107 283.86 40.0655 283.643C38.7204 283.426 37.4695 282.816 36.47 281.89L34.11 279.53C32.4166 278.022 30.2636 277.131 28 277C25.0826 277 22.2847 278.159 20.2218 280.222C18.1589 282.285 17 285.083 17 288C17 290.917 18.1589 293.715 20.2218 295.778C22.2847 297.841 25.0826 299 28 299C29.94 299 32.75 297.84 34.11 296.47L36.47 294.11C37.4708 293.186 38.7216 292.578 40.0662 292.361C41.4107 292.144 42.7894 292.328 44.03 292.89L44.87 293.32C46.0669 293.989 47.074 294.951 47.7965 296.116C48.519 297.281 48.9331 298.611 49 299.98V335H84.02Z" fill="#8648DB"/>
</g>
<g clip-path="url(#clip4_3001_60722)">
<path d="M384 207V209C381.083 209 378.285 210.159 376.222 212.222C374.159 214.285 373 217.083 373 220C373 221.94 374.16 224.75 375.53 226.11L377.89 228.47C378.814 229.471 379.422 230.722 379.639 232.066C379.856 233.411 379.672 234.789 379.11 236.03L378.68 236.87C378.011 238.067 377.049 239.074 375.884 239.796C374.719 240.519 373.389 240.933 372.02 241H337V276.02C337.067 277.018 337.379 277.984 337.907 278.833C338.435 279.683 339.164 280.389 340.03 280.89L340.87 281.32C342.45 282.11 344.87 281.72 346.11 280.47L348.47 278.11C350.537 276.234 353.192 275.135 355.98 275C357.687 274.999 359.378 275.334 360.956 275.986C362.533 276.638 363.967 277.594 365.175 278.801C366.383 280.007 367.342 281.439 367.997 283.016C368.651 284.593 368.989 286.283 368.99 287.99C368.991 289.697 368.656 291.388 368.004 292.966C367.352 294.543 366.396 295.977 365.189 297.185C363.983 298.393 362.551 299.352 360.974 300.007C359.397 300.661 357.707 300.999 356 301C353.204 300.873 350.541 299.773 348.47 297.89L346.11 295.53C345.409 294.903 344.543 294.49 343.614 294.34C342.686 294.189 341.734 294.307 340.87 294.68L340.03 295.11C339.164 295.611 338.435 296.317 337.907 297.167C337.379 298.016 337.067 298.982 337 299.98V335H372.02C373.389 335.067 374.719 335.481 375.884 336.204C377.049 336.926 378.011 337.933 378.68 339.13L379.11 339.97C379.675 341.21 379.86 342.589 379.643 343.934C379.426 345.28 378.816 346.531 377.89 347.53L375.53 349.89C374.022 351.583 373.131 353.736 373 356C373 358.917 374.159 361.715 376.222 363.778C378.285 365.841 381.083 367 384 367V369C380.552 369 377.246 367.63 374.808 365.192C372.37 362.754 371 359.448 371 356C371.127 353.204 372.227 350.541 374.11 348.47L376.47 346.11C377.097 345.409 377.51 344.543 377.66 343.614C377.811 342.686 377.693 341.734 377.32 340.87L376.89 340.03C376.389 339.164 375.683 338.435 374.833 337.907C373.984 337.379 373.018 337.067 372.02 337H337V372.02C336.933 373.389 336.519 374.719 335.796 375.884C335.074 377.049 334.067 378.011 332.87 378.68L332.03 379.11C330.79 379.675 329.411 379.86 328.066 379.643C326.72 379.426 325.469 378.816 324.47 377.89L322.11 375.53C320.417 374.022 318.264 373.131 316 373C313.083 373 310.285 374.159 308.222 376.222C306.159 378.285 305 381.083 305 384H303C303 380.552 304.37 377.246 306.808 374.808C309.246 372.37 312.552 371 316 371C318.47 371 321.79 372.37 323.53 374.11L325.89 376.47C326.592 377.096 327.458 377.508 328.386 377.659C329.314 377.809 330.266 377.692 331.13 377.32L331.97 376.89C332.836 376.389 333.565 375.683 334.093 374.833C334.621 373.984 334.933 373.018 335 372.02V337H299.98C298.611 336.933 297.281 336.519 296.116 335.796C294.951 335.074 293.989 334.067 293.32 332.87L292.89 332.03C292.325 330.79 292.14 329.411 292.357 328.066C292.574 326.72 293.184 325.469 294.11 324.47L296.47 322.11C297.978 320.417 298.869 318.264 299 316C299 313.083 297.841 310.285 295.778 308.222C293.715 306.159 290.917 305 288 305C285.083 305 282.285 306.159 280.222 308.222C278.159 310.285 277 313.083 277 316C277 317.94 278.16 320.75 279.53 322.11L281.89 324.47C282.814 325.471 283.422 326.722 283.639 328.066C283.856 329.411 283.672 330.789 283.11 332.03L282.68 332.87C282.011 334.067 281.049 335.074 279.884 335.796C278.719 336.519 277.389 336.933 276.02 337H241V372.02C241.067 373.018 241.379 373.984 241.907 374.833C242.435 375.683 243.164 376.389 244.03 376.89L244.87 377.32C246.45 378.11 248.87 377.72 250.11 376.47L252.47 374.11C254.537 372.234 257.192 371.135 259.98 371C261.689 370.997 263.381 371.332 264.961 371.984C266.541 372.636 267.976 373.593 269.185 374.801C270.395 376.008 271.354 377.442 272.009 379.02C272.663 380.599 273 382.291 273 384H271C271 381.083 269.841 378.285 267.778 376.222C265.715 374.159 262.917 373 260 373C258.06 373 255.25 374.16 253.89 375.53L251.53 377.89C250.529 378.814 249.278 379.422 247.934 379.639C246.589 379.856 245.211 379.672 243.97 379.11L243.13 378.68C241.933 378.011 240.926 377.049 240.204 375.884C239.481 374.719 239.067 373.389 239 372.02V337H203.98C202.982 337.067 202.016 337.379 201.167 337.907C200.317 338.435 199.611 339.164 199.11 340.03L198.68 340.87C197.89 342.45 198.28 344.87 199.53 346.11L201.89 348.47C203.766 350.537 204.865 353.192 205 355.98C205.003 357.689 204.668 359.381 204.016 360.961C203.364 362.541 202.407 363.976 201.199 365.185C199.992 366.395 198.558 367.354 196.98 368.009C195.401 368.663 193.709 369 192 369V367C194.917 367 197.715 365.841 199.778 363.778C201.841 361.715 203 358.917 203 356C203 354.06 201.84 351.25 200.47 349.89L198.11 347.53C197.186 346.529 196.578 345.278 196.361 343.934C196.144 342.589 196.328 341.211 196.89 339.97L197.32 339.13C197.989 337.933 198.951 336.926 200.116 336.204C201.281 335.481 202.611 335.067 203.98 335H239V299.98C238.933 298.982 238.621 298.016 238.093 297.167C237.565 296.317 236.836 295.611 235.97 295.11L235.13 294.68C233.54 293.88 231.13 294.28 229.89 295.53L227.53 297.89C225.459 299.773 222.796 300.873 220 301C216.552 301 213.246 299.63 210.808 297.192C208.37 294.754 207 291.448 207 288C207 284.552 208.37 281.246 210.808 278.808C213.246 276.37 216.552 275 220 275C222.47 275 225.79 276.37 227.53 278.11L229.89 280.47C230.592 281.096 231.458 281.508 232.386 281.659C233.314 281.809 234.266 281.692 235.13 281.32L235.97 280.89C236.836 280.389 237.565 279.683 238.093 278.833C238.621 277.984 238.933 277.018 239 276.02V241H203.98C202.611 240.933 201.281 240.519 200.116 239.796C198.951 239.074 197.989 238.067 197.32 236.87L196.89 236.03C196.325 234.79 196.14 233.411 196.357 232.066C196.574 230.72 197.184 229.469 198.11 228.47L200.47 226.11C201.978 224.417 202.869 222.264 203 220C203 217.083 201.841 214.285 199.778 212.222C197.715 210.159 194.917 209 192 209V207C195.448 207 198.754 208.37 201.192 210.808C203.63 213.246 205 216.552 205 220C205 222.47 203.63 225.79 201.89 227.53L199.53 229.89C198.904 230.592 198.492 231.458 198.341 232.386C198.191 233.314 198.308 234.266 198.68 235.13L199.11 235.97C199.611 236.836 200.317 237.565 201.167 238.093C202.016 238.621 202.982 238.933 203.98 239H239V203.98C239.067 202.611 239.481 201.281 240.204 200.116C240.926 198.951 241.933 197.989 243.13 197.32L243.97 196.89C245.21 196.325 246.589 196.14 247.934 196.357C249.28 196.574 250.531 197.184 251.53 198.11L253.89 200.47C255.583 201.978 257.736 202.869 260 203C262.917 203 265.715 201.841 267.778 199.778C269.841 197.715 271 194.917 271 192H273C273 195.448 271.63 198.754 269.192 201.192C266.754 203.63 263.448 205 260 205C257.204 204.873 254.541 203.773 252.47 201.89L250.11 199.53C249.409 198.903 248.543 198.49 247.614 198.34C246.686 198.189 245.734 198.307 244.87 198.68L244.03 199.11C243.164 199.611 242.435 200.317 241.907 201.167C241.379 202.016 241.067 202.982 241 203.98V239H276.02C277.389 239.067 278.719 239.481 279.884 240.204C281.049 240.926 282.011 241.933 282.68 243.13L283.11 243.97C283.675 245.21 283.86 246.589 283.643 247.934C283.426 249.28 282.816 250.531 281.89 251.53L279.53 253.89C278.022 255.583 277.131 257.736 277 260C277 262.917 278.159 265.715 280.222 267.778C282.285 269.841 285.083 271 288 271C290.917 271 293.715 269.841 295.778 267.778C297.841 265.715 299 262.917 299 260C299 258.06 297.84 255.25 296.47 253.89L294.11 251.53C293.186 250.529 292.578 249.278 292.361 247.934C292.144 246.589 292.328 245.211 292.89 243.97L293.32 243.13C293.989 241.933 294.951 240.926 296.116 240.204C297.281 239.481 298.611 239.067 299.98 239H335V203.98C334.933 202.982 334.621 202.016 334.093 201.167C333.565 200.317 332.836 199.611 331.97 199.11L331.13 198.68C329.54 197.88 327.13 198.28 325.89 199.53L323.53 201.89C321.459 203.773 318.796 204.873 316 205C312.552 205 309.246 203.63 306.808 201.192C304.37 198.754 303 195.448 303 192H305C305 194.917 306.159 197.715 308.222 199.778C310.285 201.841 313.083 203 316 203C317.94 203 320.75 201.84 322.11 200.47L324.47 198.11C325.471 197.186 326.722 196.578 328.066 196.361C329.411 196.144 330.789 196.328 332.03 196.89L332.87 197.32C334.067 197.989 335.074 198.951 335.796 200.116C336.519 201.281 336.933 202.611 337 203.98V239H372.02C373.018 238.933 373.984 238.621 374.833 238.093C375.683 237.565 376.389 236.836 376.89 235.97L377.32 235.13C378.12 233.54 377.72 231.13 376.47 229.89L374.11 227.53C372.227 225.459 371.127 222.796 371 220C371 216.552 372.37 213.246 374.808 210.808C377.246 208.37 380.552 207 384 207ZM276.02 335C277.018 334.933 277.984 334.621 278.833 334.093C279.683 333.565 280.389 332.836 280.89 331.97L281.32 331.13C282.12 329.54 281.72 327.13 280.47 325.89L278.11 323.53C276.227 321.459 275.127 318.796 275 316C275 312.552 276.37 309.246 278.808 306.808C281.246 304.37 284.552 303 288 303C291.448 303 294.754 304.37 297.192 306.808C299.63 309.246 301 312.552 301 316C301 318.47 299.63 321.79 297.89 323.53L295.53 325.89C294.904 326.592 294.492 327.458 294.341 328.386C294.191 329.314 294.308 330.266 294.68 331.13L295.11 331.97C295.611 332.836 296.317 333.565 297.167 334.093C298.016 334.621 298.982 334.933 299.98 335H335V299.98C335.067 298.611 335.481 297.281 336.204 296.116C336.926 294.951 337.933 293.989 339.13 293.32L339.97 292.89C341.21 292.325 342.589 292.14 343.934 292.357C345.28 292.574 346.531 293.184 347.53 294.11L349.89 296.47C351.583 297.978 353.736 298.869 356 299C358.917 299 361.715 297.841 363.778 295.778C365.841 293.715 367 290.917 367 288C367 285.083 365.841 282.285 363.778 280.222C361.715 278.159 358.917 277 356 277C354.06 277 351.25 278.16 349.89 279.53L347.53 281.89C346.529 282.814 345.278 283.422 343.934 283.639C342.589 283.856 341.211 283.672 339.97 283.11L339.13 282.68C337.933 282.011 336.926 281.049 336.204 279.884C335.481 278.719 335.067 277.389 335 276.02V241H299.98C298.982 241.067 298.016 241.379 297.167 241.907C296.317 242.435 295.611 243.164 295.11 244.03L294.68 244.87C293.89 246.45 294.28 248.87 295.53 250.11L297.89 252.47C299.766 254.537 300.865 257.192 301 259.98C301.001 261.687 300.666 263.378 300.014 264.956C299.362 266.533 298.406 267.967 297.199 269.175C294.763 271.615 291.458 272.987 288.01 272.99C286.303 272.991 284.612 272.656 283.034 272.004C281.457 271.352 280.023 270.396 278.815 269.189C276.375 266.753 275.003 263.448 275 260C275.127 257.204 276.227 254.541 278.11 252.47L280.47 250.11C281.097 249.409 281.51 248.543 281.66 247.614C281.811 246.686 281.693 245.734 281.32 244.87L280.89 244.03C280.389 243.164 279.683 242.435 278.833 241.907C277.984 241.379 277.018 241.067 276.02 241H241V276.02C240.933 277.389 240.519 278.719 239.796 279.884C239.074 281.049 238.067 282.011 236.87 282.68L236.03 283.11C234.79 283.675 233.411 283.86 232.066 283.643C230.72 283.426 229.469 282.816 228.47 281.89L226.11 279.53C224.417 278.022 222.264 277.131 220 277C217.083 277 214.285 278.159 212.222 280.222C210.159 282.285 209 285.083 209 288C209 290.917 210.159 293.715 212.222 295.778C214.285 297.841 217.083 299 220 299C221.94 299 224.75 297.84 226.11 296.47L228.47 294.11C229.471 293.186 230.722 292.578 232.066 292.361C233.411 292.144 234.789 292.328 236.03 292.89L236.87 293.32C238.067 293.989 239.074 294.951 239.796 296.116C240.519 297.281 240.933 298.611 241 299.98V335H276.02Z" fill="#8648DB"/>
</g>
</g>
<defs>
<clipPath id="clip0_3001_60722">
<rect width="368" height="345" fill="white"/>
</clipPath>
<clipPath id="clip1_3001_60722">
<rect width="192" height="192" fill="white" transform="translate(6)"/>
</clipPath>
<clipPath id="clip2_3001_60722">
<rect width="192" height="192" fill="white" transform="translate(198)"/>
</clipPath>
<clipPath id="clip3_3001_60722">
<rect width="192" height="192" fill="white" transform="translate(0 192)"/>
</clipPath>
<clipPath id="clip4_3001_60722">
<rect width="192" height="192" fill="white" transform="translate(192 192)"/>
</clipPath>
</defs>
</svg>
