<svg width="120" height="120" viewBox="0 0 120 120" fill="none" xmlns="http://www.w3.org/2000/svg">
<path d="M44.9981 110H74.9981C99.9981 110 109.998 100 109.998 75V45C109.998 20 99.9981 10 74.9981 10H44.9981C19.998 10 9.99805 20 9.99805 45V75C9.99805 100 19.998 110 44.9981 110Z" stroke="#4D3899" stroke-width="5.06522" stroke-linecap="round" stroke-linejoin="round"/>
<path d="M60 77.5005C69.665 77.5005 77.5 69.6655 77.5 60.0005C77.5 50.3355 69.665 42.5005 60 42.5005C50.335 42.5005 42.5 50.3355 42.5 60.0005C42.5 69.6655 50.335 77.5005 60 77.5005Z" stroke="#4D3899" stroke-width="5.06522" stroke-linecap="round" stroke-linejoin="round"/>
<path d="M88.1816 35H88.2393" stroke="#4D3899" stroke-width="6.75362" stroke-linecap="round" stroke-linejoin="round"/>
</svg>
