<svg width="120" height="120" viewBox="0 0 120 120" fill="none" xmlns="http://www.w3.org/2000/svg">
<path d="M100 55.15V85C100 105 95 110 75 110H45C25 110 20 105 20 85V35C20 15 25 10 45 10H75C95 10 100 15 100 35" stroke="#4D3899" stroke-width="5.06522" stroke-linecap="round" stroke-linejoin="round"/>
<path d="M69.999 27.499H49.999" stroke="#4D3899" stroke-width="5.06522" stroke-linecap="round" stroke-linejoin="round"/>
<path d="M60.002 95.5C64.2822 95.5 67.752 92.0302 67.752 87.75C67.752 83.4698 64.2822 80 60.002 80C55.7217 80 52.252 83.4698 52.252 87.75C52.252 92.0302 55.7217 95.5 60.002 95.5Z" stroke="#4D3899" stroke-width="5.06522" stroke-linecap="round" stroke-linejoin="round"/>
</svg>
