<svg width="120" height="120" viewBox="0 0 120 120" fill="none" xmlns="http://www.w3.org/2000/svg">
<path d="M100 48.0005C100 28.0005 92 20.0005 72 20.0005H48C28 20.0005 20 28.0005 20 48.0005V72.0005C20 92.0005 28 100 48 100" stroke="#4D3899" stroke-width="5.06522" stroke-linecap="round" stroke-linejoin="round"/>
<path d="M81.751 40C79.001 36.5 74.401 35 67.501 35H52.501C40.001 35 35.001 40 35.001 52.5V67.5C35.001 74.4 36.501 79 39.951 81.75" stroke="#4D3899" stroke-width="5.06522" stroke-linecap="round" stroke-linejoin="round"/>
<path d="M40.0498 20V10" stroke="#4D3899" stroke-width="5.06522" stroke-linecap="round" stroke-linejoin="round"/>
<path d="M60.001 20V10" stroke="#4D3899" stroke-width="5.06522" stroke-linecap="round" stroke-linejoin="round"/>
<path d="M80.001 20V10" stroke="#4D3899" stroke-width="5.06522" stroke-linecap="round" stroke-linejoin="round"/>
<path d="M99.998 40.0005H109.998" stroke="#4D3899" stroke-width="5.06522" stroke-linecap="round" stroke-linejoin="round"/>
<path d="M40.0498 100V110" stroke="#4D3899" stroke-width="5.06522" stroke-linecap="round" stroke-linejoin="round"/>
<path d="M9.99805 40.0005H19.998" stroke="#4D3899" stroke-width="5.06522" stroke-linecap="round" stroke-linejoin="round"/>
<path d="M9.99805 59.9995H19.998" stroke="#4D3899" stroke-width="5.06522" stroke-linecap="round" stroke-linejoin="round"/>
<path d="M9.99805 80H19.998" stroke="#4D3899" stroke-width="5.06522" stroke-linecap="round" stroke-linejoin="round"/>
<path d="M83.5486 92.9498C87.9393 92.9498 91.4986 89.3905 91.4986 84.9998C91.4986 80.6091 87.9393 77.0498 83.5486 77.0498C79.158 77.0498 75.5986 80.6091 75.5986 84.9998C75.5986 89.3905 79.158 92.9498 83.5486 92.9498Z" stroke="#4D3899" stroke-width="5.06522" stroke-miterlimit="10" stroke-linecap="round" stroke-linejoin="round"/>
<path d="M57.0498 87.3001V82.6501C57.0498 79.9001 59.2998 77.6501 62.0498 77.6501C66.8498 77.6501 68.7998 74.2501 66.3998 70.1001C64.9998 67.7001 65.8498 64.6001 68.2498 63.2501L72.7998 60.6001C74.8998 59.3501 77.5998 60.1001 78.8498 62.2001L79.1498 62.7001C81.5498 66.8501 85.4498 66.8501 87.8498 62.7001L88.1498 62.2001C89.3998 60.1001 92.0998 59.4001 94.1998 60.6001L98.7498 63.2501C101.15 64.6501 102 67.7001 100.6 70.1001C98.1998 74.2501 100.15 77.6501 104.95 77.6501C107.7 77.6501 109.95 79.9001 109.95 82.6501V87.3001C109.95 90.0501 107.7 92.3001 104.95 92.3001C100.15 92.3001 98.1998 95.7001 100.6 99.8501C102 102.25 101.15 105.35 98.7498 106.7L94.1998 109.35C92.0998 110.6 89.3998 109.85 88.1498 107.75L87.8498 107.25C85.4498 103.1 81.5498 103.1 79.1498 107.25L78.8498 107.75C77.5998 109.85 74.8998 110.55 72.7998 109.35L68.2498 106.7C65.8498 105.3 64.9998 102.25 66.3998 99.8501C68.7998 95.7001 66.8498 92.3001 62.0498 92.3001C59.2998 92.3501 57.0498 90.1001 57.0498 87.3001Z" stroke="#4D3899" stroke-width="5.06522" stroke-miterlimit="10" stroke-linecap="round" stroke-linejoin="round"/>
</svg>
