<svg width="120" height="120" viewBox="0 0 120 120" fill="none" xmlns="http://www.w3.org/2000/svg">
<path d="M72.0012 48.001H48.001V72.0009H72.0012V48.001Z" stroke="#4D3899" stroke-width="5.06522" stroke-linecap="round" stroke-linejoin="round"/>
<path d="M38.999 89.9995C43.949 89.9995 47.9989 85.9496 47.9989 80.9996V71.9995H38.999C34.049 71.9995 29.999 76.0496 29.999 80.9996C29.999 85.9496 34.049 89.9995 38.999 89.9995Z" stroke="#4D3899" stroke-width="5.06522" stroke-linecap="round" stroke-linejoin="round"/>
<path d="M38.999 48.0005H47.9989V39.0004C47.9989 34.0504 43.949 30.0005 38.999 30.0005C34.049 30.0005 29.999 34.0504 29.999 39.0004C29.999 43.9504 34.049 48.0005 38.999 48.0005Z" stroke="#4D3899" stroke-width="5.06522" stroke-linecap="round" stroke-linejoin="round"/>
<path d="M72.001 48.0005H81.0009C85.9509 48.0005 90.0009 43.9504 90.0009 39.0004C90.0009 34.0504 85.9509 30.0005 81.0009 30.0005C76.0509 30.0005 72.001 34.0504 72.001 39.0004V48.0005Z" stroke="#4D3899" stroke-width="5.06522" stroke-linecap="round" stroke-linejoin="round"/>
<path d="M81.0009 89.9995C85.9509 89.9995 90.0009 85.9496 90.0009 80.9996C90.0009 76.0496 85.9509 71.9995 81.0009 71.9995H72.001V80.9996C72.001 85.9496 76.0509 89.9995 81.0009 89.9995Z" stroke="#4D3899" stroke-width="5.06522" stroke-linecap="round" stroke-linejoin="round"/>
<path d="M44.9981 110H74.9981C99.9981 110 109.998 100 109.998 75V45C109.998 20 99.9981 10 74.9981 10H44.9981C19.998 10 9.99805 20 9.99805 45V75C9.99805 100 19.998 110 44.9981 110Z" stroke="#4D3899" stroke-width="5.06522" stroke-linecap="round" stroke-linejoin="round"/>
</svg>
