<svg width="300" height="286" viewBox="0 0 300 286" fill="none" xmlns="http://www.w3.org/2000/svg">
<path d="M232.277 99.7995C208.498 81.4992 187.781 68.0621 152.254 50.1407C143.128 45.5301 137.128 46.288 129.865 54.7987C119.522 66.9568 108.548 85.6203 101.127 97.7311C96.0745 105.989 97.8429 113.947 104.285 119.474C106.322 121.226 164.286 158.585 166.686 159.864C166.686 159.864 163.149 138.848 179.223 133.116C195.297 127.384 217.893 150.864 217.893 150.864C230.224 130.621 247.262 111.342 232.277 99.7995ZM154.733 72.2937C154.86 75.4517 150.581 73.2253 150.739 76.9044C150.696 77.3792 150.477 77.8205 150.124 78.1418C149.772 78.4633 149.313 78.6414 148.836 78.6414C148.359 78.6414 147.9 78.4633 147.548 78.1418C147.196 77.8205 146.977 77.3792 146.933 76.9044C146.096 73.099 152.886 67.6673 154.733 72.2937ZM150.723 64.9515C150.777 65.4514 150.631 65.9521 150.317 66.3453C150.004 66.7383 149.548 66.9922 149.049 67.0515C147.987 67.1308 146.953 67.4355 146.018 67.9456C145.082 68.4556 144.266 69.159 143.623 70.009C142.981 70.8591 142.527 71.8363 142.292 72.8754C142.057 73.9147 142.046 74.9921 142.26 76.0359C142.318 76.3137 142.314 76.601 142.248 76.877C142.182 77.153 142.055 77.4109 141.876 77.6316C141.698 77.8524 141.472 78.0306 141.216 78.1535C140.96 78.2762 140.68 78.3403 140.396 78.3412C136.402 77.1728 138.675 70.5569 140.396 67.9989C142.117 65.441 149.033 60.6409 150.691 64.9515H150.723ZM132.833 62.2199C134.207 59.3461 145.954 52.0828 147.881 57.1671C147.92 57.6691 147.76 58.1665 147.435 58.5508C147.109 58.9351 146.645 59.1756 146.144 59.2198C144.154 59.3062 142.206 59.8222 140.435 60.7326C138.663 61.6429 137.109 62.926 135.88 64.4936C134.673 66.2073 133.834 68.1533 133.418 70.2082C133.002 72.2633 133.018 74.3823 133.465 76.4307C133.521 76.7073 133.515 76.9929 133.447 77.267C133.38 77.541 133.252 77.7966 133.074 78.0156C132.896 78.2345 132.671 78.4113 132.417 78.5331C132.162 78.655 131.884 78.7188 131.601 78.7202C126.659 76.9359 130.354 65.0304 132.833 62.2199ZM121.875 89.2677C120.754 86.5203 117.88 89.2677 117.138 86.4572C117.085 86.2135 117.08 85.9617 117.124 85.7162C117.168 85.4708 117.261 85.2363 117.395 85.0266C117.53 84.8168 117.706 84.6357 117.911 84.4937C118.116 84.3518 118.347 84.2517 118.591 84.1992C119.833 83.8782 121.148 83.9894 122.319 84.5146C123.489 85.0397 124.446 85.9475 125.033 87.0888C125.933 88.3677 125.996 88.352 126.738 88.1309C129.47 87.294 131.475 87.294 132.944 88.1309C135.517 89.5678 135.438 92.4415 136.417 94.6994C136.875 95.331 137.996 94.8889 139.923 93.831C141.849 92.7731 144.233 96.1679 141.502 97.3048C138.77 98.4416 138.186 98.6785 136.575 98.6785C133.07 99.31 132.344 93.2784 131.159 91.4625C127.449 91.0204 124.733 93.8784 121.875 89.2677ZM157.339 134.284C157.184 134.481 156.993 134.645 156.775 134.767C156.557 134.89 156.319 134.968 156.071 134.997C155.823 135.027 155.57 135.007 155.33 134.938C155.09 134.87 154.866 134.755 154.67 134.6C144.454 126.705 139.796 124.905 128.696 116.71C128.29 116.413 128.018 115.967 127.942 115.469C127.864 114.972 127.988 114.464 128.286 114.058C128.583 113.652 129.029 113.38 129.527 113.303C130.024 113.226 130.532 113.35 130.938 113.647C136.702 117.847 140.775 120.468 144.36 122.774C145.907 124.479 159.691 130.826 157.339 134.284ZM168.818 108.863C162.502 112.542 158.57 112.242 157.007 105.579C156.739 105.247 152.27 107.789 151.181 106.684C148.97 105.689 149.381 102.689 148.354 101.126C147.752 101.065 147.145 101.192 146.618 101.489C146.153 101.682 145.63 101.682 145.166 101.489C144.701 101.297 144.331 100.928 144.139 100.463C143.946 99.9979 143.946 99.4755 144.138 99.0107C144.331 98.5458 144.7 98.1763 145.165 97.9837C149.618 95.7258 152.57 99.1206 152.918 102.942C158.791 99.989 160.339 102.942 161.839 107.473C161.934 107.473 163.007 107.821 166.907 105.563C167.342 105.347 167.844 105.305 168.308 105.445C168.772 105.585 169.167 105.897 169.41 106.317C169.653 106.737 169.727 107.234 169.617 107.707C169.508 108.18 169.222 108.593 168.818 108.863ZM191.934 129.184C188.776 129.579 189.708 123.611 188.918 122.553C185.334 124.937 181.45 123.547 181.545 119C181.545 118.274 181.323 116.9 180.992 116.695C176.444 119.584 172.655 120.737 172.702 113.331C172.71 112.829 172.915 112.349 173.272 111.995C173.629 111.641 174.111 111.441 174.613 111.437C176.492 111.437 176.587 113.6 176.571 114.831C181.892 110.694 185.381 113.805 185.492 119.9C186.881 119.379 189.66 117.847 190.908 119.031C191.682 118.463 195.787 128.537 191.934 129.184ZM215.303 117.484C213.219 117.484 213.882 114.768 213.25 113.852C201.977 119 205.498 108.768 202.087 108.326C192.613 111.673 192.613 111.2 191.034 101.584C185.808 103.526 180.771 102.184 180.723 96.6416C180.697 96.3946 180.72 96.145 180.791 95.9069C180.862 95.6689 180.979 95.4472 181.137 95.2549C181.293 95.0626 181.488 94.9033 181.707 94.7863C181.925 94.6693 182.165 94.5968 182.413 94.5731C184.75 94.0678 184.529 98.2048 185.192 98.5048C185.855 98.8048 188.16 98.3311 190.039 97.9048C195.297 96.7363 195.076 102.831 195.708 106.415C203.334 103.384 205.908 103.4 208.008 111.373C210.456 111.547 213.614 108.626 215.903 111.089C217.64 112.747 218.524 117.484 215.303 117.484Z" fill="#8B70E9"/>
<path d="M89.9962 165.185C83.6802 167.901 84.1697 183.091 92.2699 183.517C98.7279 183.88 108.218 182.949 110.381 181.149C114.439 177.722 113.207 164.175 106.97 163.432C101.253 163.008 95.5058 163.601 89.9962 165.185ZM108.296 169.922C111.928 181.733 101.681 180.296 92.2067 180.043C90.7225 179.743 89.3646 176.633 89.2856 173.412C89.0172 165.217 101.917 167.711 106.654 167.206C107.049 167.254 107.791 168.122 108.312 169.922H108.296Z" fill="black"/>
<path d="M112.102 209.491C106.718 209.649 100.149 209.365 95.7755 211.828C89.9333 214.986 91.2912 229.354 98.3966 229.844C104.097 230.254 113.713 229.433 116.76 227.144C121.987 223.354 119.271 209.301 112.102 209.491ZM115.007 216.47C116.16 219.754 115.671 223.212 114.486 224.112C113.507 224.507 97.2755 230.033 96.186 222.533C94.007 212.744 102.628 213.675 109.876 213.391C112.418 212.996 114.186 213.502 115.039 216.47H115.007Z" fill="black"/>
<path d="M72.7373 118.968C74.8443 116.671 77.6953 115.192 80.787 114.793C83.8786 114.395 87.0116 115.102 89.6324 116.789C92.7904 118.194 93.5325 113.536 90.4535 112.921C98.4115 86.5991 56.237 94.2729 71.0478 115.273C68.8215 117.484 70.8584 120.547 72.7373 118.968ZM79.1638 99.6256C78.7401 103.438 78.8518 107.291 79.4954 111.073C77.6219 111.386 75.8261 112.056 74.2058 113.047C69.5636 107.789 72.4689 99.752 79.1638 99.6256Z" fill="black"/>
<path d="M54.7369 125C54.5308 124.86 54.2989 124.761 54.0546 124.711C53.8104 124.66 53.5585 124.658 53.3136 124.705C53.0686 124.752 52.8352 124.847 52.6271 124.984C52.4188 125.122 52.2397 125.299 52.1 125.505C50.521 129.342 56.5054 130.89 59.5844 131.048C67.1319 131.411 72.3109 123.437 68.9793 121.747C65.1739 119.821 64.9055 130.621 54.7369 125Z" fill="black"/>
<path d="M99.4699 89.8836C96.312 85.9203 73.7484 88.1625 63.785 88.652C56.5691 89.0625 46.7479 90.6415 29.6475 92.3152C6.48392 94.51 14.0946 108.989 18.042 134.127C20.2368 148.085 33.8318 141.564 54.6269 139.053C65.3482 137.742 90.1697 134.774 98.7278 133.874C106.086 133.1 108.202 124.621 104.712 124.163C102.075 123.8 104.207 128.726 96.5014 130.116C75.4063 133.669 52.2901 135.453 30.0738 138.311C19.2105 139.7 21.1526 128.837 17.7104 109.889C15.8473 99.6417 19.8736 97.4469 30.137 96.1363C48.0584 93.831 56.9796 92.8363 64.0692 92.4889C71.1588 92.1415 91.9698 90.1204 96.7699 92.631C98.9646 93.7994 100.954 91.7941 99.4699 89.8836Z" fill="black"/>
<path d="M107.364 186.249C93.1534 186.438 83.4585 192.138 90.5797 205.197C93.3113 210.186 115.164 205.544 115.843 200.112C116.838 192.217 114.943 186.154 107.364 186.249ZM112.101 199.765C111.675 201.66 95.2377 206.207 93.3113 202.496C90.6586 197.444 90.3586 190.512 103.212 189.691C109.922 189.265 114.075 190.559 112.101 199.765Z" fill="black"/>
<path d="M28.21 124.842C30.5627 126.927 31.6838 121.495 38.4576 120.627C41.7093 120.174 45.0162 120.89 47.7893 122.648C50.9473 124.053 51.7052 119.395 48.6262 118.763C56.5211 92.4418 14.394 100.131 29.2521 121.132C28.0995 121.984 26.8363 123.627 28.21 124.842ZM30.0732 110.221C30.9259 107.063 34.0364 105.484 37.3207 105.484C36.9053 109.297 37.0169 113.149 37.6523 116.932C35.7642 117.236 33.9521 117.9 32.3154 118.89C31.2955 117.717 30.5621 116.324 30.173 114.82C29.7838 113.315 29.7497 111.741 30.0732 110.221Z" fill="black"/>
<path d="M61.053 188.538C67.1321 188.791 76.3533 186.959 79.2428 185.38C84.4061 181.544 80.9955 168.012 74.9164 168.012C70.6216 167.791 58.1635 168.738 55.7634 172.291C53.3634 175.843 54.3739 188.27 61.053 188.538ZM58.8424 174.454C59.8372 173.128 69.2479 171.406 74.7269 171.754C78.327 172.764 78.1849 181.496 77.4112 182.08C75.2796 183.249 66.832 184.986 61.2109 184.749C57.895 183.944 58.2424 175.038 58.8424 174.422V174.454Z" fill="black"/>
<path d="M63.7686 39.8145C56.0158 33.6565 55.1 47.2673 46.084 41.504C45.8642 41.3859 45.6233 41.3121 45.3751 41.287C45.1267 41.2619 44.8759 41.2859 44.6369 41.3578C44.398 41.4296 44.1755 41.5479 43.9821 41.7058C43.7888 41.8635 43.6286 42.0579 43.5103 42.2777C43.3922 42.4975 43.3184 42.7384 43.2933 42.9866C43.2682 43.235 43.2922 43.4858 43.3641 43.7248C43.4359 43.9639 43.5542 44.1863 43.7121 44.3796C43.8698 44.5729 44.0642 44.7333 44.284 44.8514C52.7315 49.3199 57.2474 42.5461 59.5211 41.9935C61.7949 41.4408 63.4054 45.0251 66.5792 45.0093C69.7529 44.9935 73.9056 38.6144 71.5371 37.2249C71.1069 36.9673 70.5926 36.8889 70.1052 37.0072C69.6177 37.1253 69.1963 37.4304 68.9318 37.8565C65.9949 41.8829 66.2002 41.6935 63.7686 39.8145Z" fill="black"/>
<path d="M37.0058 27.8455C41.8848 35.8509 47.4586 33.5614 50.1587 27.435C50.5218 26.6297 51.7377 26.5981 52.464 27.0876C57.3904 30.435 60.722 29.9929 65.6958 24.877C65.8709 24.6997 66.0096 24.4897 66.1037 24.2588C66.1976 24.028 66.2453 23.7809 66.2439 23.5316C66.2423 23.2824 66.1918 23.0359 66.0951 22.8062C65.9983 22.5764 65.8573 22.368 65.68 22.1927C65.5027 22.0176 65.2927 21.879 65.0619 21.7849C64.831 21.6909 64.5839 21.6433 64.3346 21.6447C64.0853 21.6463 63.8388 21.6968 63.609 21.7934C63.3793 21.8902 63.1709 22.0312 62.9958 22.2085C56.0325 31.2877 53.1114 15.8926 46.6849 25.9823C45.2954 28.1297 43.9217 31.3508 39.8795 25.3191C35.8373 19.2874 31.9057 30.8298 28.274 30.8298C28.0372 30.8298 26.774 30.3876 25.1161 26.1876C25.0375 25.9465 24.9083 25.7248 24.7371 25.5373C24.566 25.3501 24.3569 25.2013 24.1239 25.1012C23.8906 25.0011 23.639 24.9519 23.3852 24.9567C23.1316 24.9616 22.882 25.0207 22.6529 25.1296C20.3002 26.7086 23.5213 34.2246 27.674 34.6035C31.8267 34.9825 34.4005 30.4508 37.0058 27.8455Z" fill="black"/>
<path d="M57.2636 58.4458C55.0057 58.4458 53.0792 57.8142 48.2001 55.3826C47.5614 55.05 46.8389 54.9131 46.1228 54.9889C45.4066 55.0647 44.7287 55.3499 44.1737 55.8089C39.9421 59.5511 37.321 60.9406 34.9525 57.9247C31.684 53.772 31.5736 62.6616 37.1474 63.309C41.537 63.7827 45.0422 59.3142 46.4474 59.1089C47.8527 58.9037 52.4161 63.0248 57.8005 62.2669C59.1236 62.1441 60.408 61.7533 61.5753 61.118C62.7425 60.4828 63.7684 59.6166 64.5901 58.5721C65.8374 56.9931 71.5691 61.73 72.9429 59.9616C75.6113 56.5984 66.8322 54.9404 65.3795 54.8457C62.5532 54.7036 61.8742 58.3668 57.2636 58.4458Z" fill="black"/>
<path d="M232.104 128.221C231.535 129.121 230.935 130.274 229.846 131.963C257.257 146.063 262.878 155.095 276.268 187.401C258.268 226.26 208.609 224.87 197.524 226.323C171.471 184.717 164.871 154.858 172.971 142.1C184.656 123.689 211.34 146.063 221.698 159.027C223.862 161.711 228.093 159.169 226.435 157.337C201.803 129.042 181.987 125.189 170.871 136.811C159.755 148.432 164.76 175.18 182.492 208.338C159.613 206.886 144.234 192.406 140.776 171.643C149.144 175.385 157.466 177.58 157.102 174.801C156.739 172.022 148.102 171.974 140.049 166.906C137.539 152.127 141.707 147.958 138.076 147.121C132.991 145.953 128.507 212.002 185.113 213.091C187.75 217.733 190.466 222.281 193.182 226.67C177.392 234.012 186.408 252.96 201.235 284.587C201.337 284.822 201.486 285.036 201.672 285.211C201.859 285.388 202.08 285.523 202.32 285.612C202.561 285.7 202.817 285.74 203.074 285.726C203.33 285.713 203.581 285.647 203.812 285.533C204.041 285.419 204.246 285.261 204.413 285.066C204.581 284.871 204.705 284.644 204.781 284.399C204.859 284.154 204.884 283.896 204.859 283.64C204.832 283.386 204.754 283.138 204.63 282.913C187.071 247.244 187.592 237.265 190.008 233.839C193.308 229.102 201.914 231.218 223.404 227.728C244.894 224.239 265.104 215.381 278.463 191.696C278.605 190.875 299.116 234.755 300 221.396C272.131 183.375 278.968 148.937 232.104 128.221Z" fill="black"/>
<path d="M68.0002 234.044C73.7319 234.328 83.0952 233.413 86.1584 231.234C91.2427 227.744 89.9796 213.454 82.7952 213.312C73.9529 213.154 58.8579 211.481 61.3527 225.297C61.9527 229.197 64.0527 233.839 68.0002 234.044ZM66.3107 218.744C74.4108 216.77 90.9269 213.36 83.9321 228.218C82.2584 229.418 74.3319 230.665 68.1423 230.318C65.5212 230.618 63.6264 219.407 66.3107 218.744Z" fill="black"/>
<path d="M121.212 138.532C118.433 138.169 120.344 145.59 120.675 151.416C121.749 170.364 143.065 246.329 114.36 244.734C87.1854 243.155 34.2896 264.692 24.7842 245.839C15.2787 226.986 16.3998 183.959 12.626 155.158C9.92599 135.042 1.99947 94.9205 4.889 82.3202C6.2785 76.1938 13.6997 70.2884 20.2525 69.8937C20.5683 72.3569 20.7894 74.8675 20.9315 77.4254C15.2787 77.8202 16.0998 80.7255 17.1893 81.4044C21.1209 83.8519 95.5697 71.7411 96.1382 70.7306C96.5937 70.6011 96.9815 70.3001 97.2199 69.8909C97.4584 69.4817 97.5291 68.996 97.4171 68.5358C96.7698 66.8305 92.4907 67.7305 88.3854 68.5358C88.0222 65.8989 87.6117 63.2304 87.1222 60.5461C103.401 59.0619 106.023 63.7988 111.154 70.8253C112.512 72.6727 115.56 70.8253 114.675 68.9937C108.944 57.1987 99.4698 55.5408 86.4275 56.6934C82.9537 38.5036 79.3063 20.7559 76.322 1.82396C75.8009 -1.52347 70.7482 5.97667 67.985 5.80298C66.406 5.69246 64.827 3.79768 62.7112 1.06605C59.3164 -3.21296 56.19 6.75037 50.7268 7.06617C48.1846 7.22406 42.9424 -1.46031 40.6371 2.55029C34.8738 12.4821 33.8633 12.5768 28.2737 6.98722C24.5473 3.21346 23.1578 13.7452 18.6577 13.1926C15.4998 12.7979 14.9629 10.0346 13.305 11.0768C5.63112 15.8137 18.0419 47.3933 19.6209 66.1199C9.21545 68.9463 1.57315 72.799 0.373125 83.0624C-1.82165 100.857 6.31008 137.663 8.01542 156.422C10.7628 185.854 13.8576 237.25 21.8315 249.376C35.6791 270.424 86.6643 247.544 114.675 248.523C148.639 249.708 127.307 176.317 124.433 150.911C123.47 142.306 124.733 138.974 121.212 138.532ZM14.584 15.7979C18.942 18.5453 23.9473 17.7716 26.9789 11.6926C33.7212 17.7874 38.8371 14.8505 42.7687 6.59247C49.9689 14.8189 54.769 11.6136 60.4375 4.63454C64.7797 10.9505 67.7482 12.5294 73.0693 7.30301C75.422 27.9245 81.9432 48.988 84.6906 69.1516C67.6218 72.3095 45.5951 74.8517 24.6894 77.0465C23.1736 52.746 13.6208 31.1298 14.584 15.7979Z" fill="black"/>
<path d="M100.733 140.3C85.1167 140.537 76.2744 144.926 84.5325 159.548C92.2853 163.748 110.286 159.453 109.243 154.116C109.765 145.779 108.343 140.19 100.733 140.3ZM105.47 153.816C105.296 155.995 99.1538 156.832 89.9326 157.4C85.4009 157.716 85.9062 153.958 85.5588 149.506C83.8535 144.769 94.5748 144.642 101.112 144.074C105.786 144.326 105.501 146.474 105.454 153.8L105.47 153.816Z" fill="black"/>
<path d="M25.2581 169.069C33.7845 170.254 49.4006 171.027 47.569 157.701C47.0322 153.848 45.1848 149.174 41.2531 148.78C33.6582 148.78 20.379 147.864 20.4264 159.106C20.2685 162.943 21.7527 167.68 25.2581 169.069ZM26.2686 154.432C32.4266 153.311 42.8637 148.116 43.7953 158.143C44.1426 161.032 43.4795 163.622 42.311 164.033C36.8004 165.959 28.6686 166.338 26.6791 165.611C23.9633 164.854 23.0001 155.522 26.1897 154.432H26.2686Z" fill="black"/>
<path d="M59.5537 165.532C64.4913 165.371 69.3838 164.536 74.0961 163.053C81.0278 160.827 78.9435 145.021 72.2171 144.737C66.3591 145.021 50.1114 143.158 50.2851 154.037C50.3167 160.022 53.2536 166.164 59.5537 165.532ZM54.0746 154.1C54.0746 153.374 54.2483 150.942 55.6536 150.485C60.0274 148.906 73.575 143.979 74.6013 153.642C74.9171 156.485 74.2066 159.106 73.0224 159.501C62.759 161.695 54.0746 165.532 54.0746 154.1Z" fill="black"/>
<path d="M51.1054 185.128C51.1054 180.391 50.537 175.828 48.2159 173.68C45.6738 170.854 37.7631 172.401 34.0051 172.607C19.9996 173.38 21.847 183.77 27.1524 191.365C33.9893 194.602 51.0739 190.433 51.1054 185.128ZM36.7683 176.159C43.8579 174.58 48.437 175.464 47.3159 184.891C47.2054 186.754 44.9158 188.254 33.0104 189.233C28.4155 189.628 27.7366 186.644 27.2471 181.48C26.8366 177.628 28.2892 177.186 36.7683 176.159Z" fill="black"/>
<path d="M61.1005 210.644C66.2006 211.702 75.9587 210.533 80.0483 209.428C86.2221 207.77 85.8273 191.68 78.8324 191.38C71.8376 191.08 55.053 189.801 57.1531 202.733C57.3899 205.907 58.5899 209.839 61.1005 210.644ZM60.8953 200.096C61.6374 193.575 73.3218 195.359 78.4535 195.17C81.4062 195.565 80.743 205.812 78.9114 205.796C74.8534 207.012 64.7795 207.612 62.3005 207.028C61.0614 204.914 60.5667 202.446 60.8953 200.017V200.096Z" fill="black"/>
<path d="M38.6161 238.276C56.1744 237.566 60.3113 236.445 56.6323 221.65C54.8322 214.418 33.3581 217.655 31.1318 222.771C28.9054 227.886 29.7265 238.639 38.6161 238.276ZM34.4318 224.65C36.895 221.018 46.89 220.686 49.59 220.655C54.0901 220.655 55.227 229.655 53.8217 231.329C49.969 235.908 35.1108 235.339 34.6687 233.255C34.116 230.602 32.9634 226.813 34.4318 224.65Z" fill="black"/>
<path d="M31.3683 215.507C34.7789 217.433 56.253 215.207 53.9477 204.201C53.1108 200.191 53.2529 195.012 47.8212 194.727C42.0738 194.443 26.9787 193.843 26.805 203.933C26.6156 208.338 28.5893 213.928 31.3683 215.507ZM30.6104 203.743C31.6999 197.617 43.8422 198.675 47.3475 198.501C49.4476 198.249 51.7371 209.096 48.8318 209.98C38.0158 212.412 30.2788 216.486 30.6104 203.743Z" fill="black"/>
</svg>
