<svg width="16" height="16" viewBox="0 0 24 24" fill="none" xmlns="http://www.w3.org/2000/svg">
<path d="M19.5757 3.4905C19.322 3.49649 19.081 3.60266 18.9054 3.78582L12.0241 10.6671L5.14289 3.78582C5.05339 3.69357 4.94629 3.62023 4.82792 3.57015C4.70956 3.52007 4.58235 3.49426 4.45382 3.49425C4.26273 3.4943 4.076 3.55137 3.91753 3.65815C3.75905 3.76494 3.63605 3.91659 3.56427 4.09368C3.49248 4.27078 3.47518 4.46527 3.51457 4.65226C3.55396 4.83925 3.64826 5.01023 3.78539 5.14332L10.6666 12.0246L3.78539 18.9058C3.69325 18.9943 3.6197 19.1002 3.56902 19.2175C3.51835 19.3347 3.49158 19.4609 3.49028 19.5886C3.48899 19.7163 3.51318 19.843 3.56146 19.9613C3.60974 20.0795 3.68113 20.1869 3.77144 20.2773C3.86175 20.3676 3.96918 20.439 4.08743 20.4872C4.20568 20.5355 4.33237 20.5597 4.46009 20.5584C4.58781 20.5571 4.71399 20.5303 4.83123 20.4797C4.94847 20.429 5.05443 20.3554 5.14289 20.2633L12.0241 13.3821L18.9054 20.2633C18.9938 20.3554 19.0998 20.429 19.217 20.4797C19.3343 20.5304 19.4605 20.5571 19.5882 20.5584C19.7159 20.5597 19.8426 20.5355 19.9608 20.4872C20.0791 20.439 20.1865 20.3676 20.2768 20.2773C20.3671 20.1869 20.4385 20.0795 20.4868 19.9613C20.5351 19.843 20.5593 19.7163 20.558 19.5886C20.5567 19.4609 20.5299 19.3347 20.4792 19.2175C20.4286 19.1002 20.355 18.9943 20.2629 18.9058L13.3816 12.0246L20.2629 5.14332C20.4026 5.00936 20.4985 4.83632 20.5381 4.64688C20.5778 4.45744 20.5592 4.26045 20.4849 4.08174C20.4106 3.90303 20.284 3.75095 20.1218 3.64544C19.9595 3.53994 19.7692 3.48593 19.5757 3.4905V3.4905Z" fill="#292D32"/>
</svg>
