<svg width="38" height="37" viewBox="0 0 38 37" fill="none" xmlns="http://www.w3.org/2000/svg">
<g clip-path="url(#clip0_4381_3989)">
<path d="M21.9655 16.5968C22.2267 17.576 22.5183 18.5292 22.7319 19.4988C23.2332 21.7735 23.268 24.0686 22.9058 26.3655C22.614 28.2207 22.0969 30.0173 21.2553 31.7075C20.6755 32.8702 20.0861 34.0372 19.2149 35.0273C18.388 35.967 17.3751 36.5417 16.0531 36.4743C14.7278 36.406 13.5807 35.2863 13.4896 33.9871C13.4147 32.9179 13.7664 31.9833 14.3475 31.1108C15.4654 29.4316 16.485 27.7006 17.3429 25.8772C17.8621 24.7742 18.1296 23.6111 17.9959 22.4275C17.8546 21.1768 17.3437 20.0234 16.4984 19.0373C15.2505 17.5815 13.6788 16.8457 11.7283 17.0155C10.2691 17.1425 8.86958 17.5297 7.51546 18.0805C6.5492 18.473 5.58797 18.8805 4.59736 19.2025C3.81411 19.4572 2.98777 19.5291 2.16027 19.3468C0.514539 18.9845 -0.309099 17.6832 0.104073 16.0826C0.391631 14.9686 1.07033 14.1191 2.00393 13.4554C3.16808 12.6274 4.48934 12.2263 5.91205 12.0985C8.22315 11.8903 10.4828 12.2596 12.7398 12.663C13.5169 12.8018 14.2909 12.9566 15.066 13.1056C15.9781 13.2807 16.8841 13.4992 17.8034 13.6251C20.2556 13.9603 22.5713 13.4942 24.7025 12.281C26.205 11.4246 27.6428 10.4601 29.1188 9.5586C30.5141 8.70672 31.9732 7.98301 33.5864 7.61425C34.3909 7.43043 35.2001 7.42986 35.9887 7.72139C37.395 8.24122 38.1758 9.67123 37.9655 11.2474C37.7361 12.967 36.6609 14.0394 35.1983 14.827C33.7453 15.6093 32.161 16.0006 30.5429 16.2812C28.015 16.7208 25.4647 16.7467 22.9095 16.6765C22.7419 16.6719 22.5756 16.6329 22.407 16.6183C22.253 16.6043 22.0965 16.6024 21.9655 16.5968Z" fill="#241B8F"/>
<path d="M23.723 0.166016C23.8848 0.998957 24.1058 1.75902 24.1675 2.53233C24.2807 3.96896 23.3558 4.99499 21.8098 5.22879C20.9272 5.3613 20.0447 5.36887 19.1561 5.19736C18.6417 5.09798 18.1046 5.10271 17.577 5.08473C17.4932 5.08189 17.3861 5.18771 17.3212 5.26759C16.2353 6.60371 16.7928 8.63476 18.4096 9.29278C20.1681 10.0087 22.0234 8.71843 22.1041 7.02283C22.1084 6.93442 22.1167 6.84621 22.1235 6.74512C22.6594 9.00106 21.0231 11.4139 18.6523 11.8815C15.784 12.4472 13.1446 10.2987 13.2237 7.44327C13.2594 6.16831 13.8521 5.11331 14.6759 4.15978C15.74 2.9293 17.1302 2.40833 18.7331 2.32201C19.5221 2.2796 20.3146 2.25272 21.0973 2.15523C22.2249 2.01458 23.0198 1.38855 23.5193 0.394695C23.5386 0.35532 23.5607 0.316513 23.5831 0.278463C23.5873 0.269755 23.5989 0.264643 23.723 0.166016Z" fill="#241B8F"/>
<path d="M14.9133 22.4711C14.9211 24.0535 13.6369 25.3212 12.0225 25.3254C10.4081 25.3296 9.10189 24.0614 9.10034 22.4924C9.09899 20.9063 10.4461 19.644 11.9893 19.6504C13.6147 19.6572 14.9056 20.8881 14.9133 22.4711Z" fill="#241B8F"/>
<path d="M30.4642 21.171C30.4853 22.3554 29.5366 23.486 28.3706 23.5693C26.6485 23.6921 25.4331 22.6426 25.466 21.1551C25.4988 19.6675 26.5992 18.7272 27.9425 18.696C29.359 18.663 30.5029 19.8381 30.4642 21.171Z" fill="#1088C5"/>
<path d="M8.68155 10.5117C7.32763 10.5076 6.2947 9.48325 6.29663 8.14657C6.29837 6.82655 7.36957 5.77249 8.69798 5.78329C10.0187 5.79408 11.104 6.868 11.1036 8.1636C11.1032 9.45921 10.016 10.5159 8.68155 10.5117Z" fill="#1088C5"/>
<path d="M26.6354 8.90778C25.9059 8.95965 24.8899 8.28307 24.8901 7.16466C24.8901 6.24539 25.6939 5.42476 26.6874 5.44066C27.6612 5.45618 28.4684 6.2329 28.4606 7.16731C28.4535 8.15283 27.6573 8.91213 26.6354 8.90778Z" fill="#241B8F"/>
<path d="M12.882 1.56978C12.8793 2.45951 12.1685 3.15994 11.278 3.14802C10.3572 3.13609 9.67695 2.44532 9.68043 1.52567C9.68353 0.688187 10.4237 -0.0076972 11.3037 6.4304e-05C12.1869 0.0078258 12.8847 0.701628 12.882 1.56978Z" fill="#241B8F"/>
<path d="M11.7492 29.7271C11.012 29.7233 10.4438 29.1622 10.449 28.4427C10.454 27.7318 11.0367 27.176 11.7751 27.1777C12.4743 27.1793 13.0664 27.7646 13.0629 28.4502C13.0633 28.6189 13.0295 28.7859 12.9635 28.9416C12.8975 29.0974 12.8005 29.2387 12.6783 29.3575C12.5561 29.4763 12.4111 29.5701 12.2516 29.6335C12.0921 29.697 11.9213 29.7288 11.7492 29.7271Z" fill="#1088C5"/>
</g>
<defs>
<clipPath id="clip0_4381_3989">
<rect width="38" height="36.48" fill="white"/>
</clipPath>
</defs>
</svg>
