<svg width="17" height="20" viewBox="0 0 17 20" fill="none" xmlns="http://www.w3.org/2000/svg">
<path d="M9 20L8.75 17H8.5C6.13333 17 4.125 16.175 2.475 14.525C0.825 12.875 0 10.8667 0 8.5C0 6.13333 0.825 4.125 2.475 2.475C4.125 0.825 6.13333 0 8.5 0C9.68333 0 10.7873 0.220667 11.812 0.662C12.8373 1.104 13.7377 1.71233 14.513 2.487C15.2877 3.26233 15.8957 4.16233 16.337 5.187C16.779 6.21233 17 7.31667 17 8.5C17 9.75 16.796 10.95 16.388 12.1C15.9793 13.25 15.421 14.3167 14.713 15.3C14.0043 16.2833 13.1627 17.175 12.188 17.975C11.2127 18.775 10.15 19.45 9 20ZM11 16.35C12.1833 15.35 13.1457 14.1793 13.887 12.838C14.629 11.496 15 10.05 15 8.5C15 6.68333 14.371 5.14567 13.113 3.887C11.8543 2.629 10.3167 2 8.5 2C6.68333 2 5.146 2.629 3.888 3.887C2.62933 5.14567 2 6.68333 2 8.5C2 10.3167 2.62933 11.8543 3.888 13.113C5.146 14.371 6.68333 15 8.5 15H11V16.35ZM8.475 13.975C8.75833 13.975 9 13.875 9.2 13.675C9.4 13.475 9.5 13.2333 9.5 12.95C9.5 12.6667 9.4 12.425 9.2 12.225C9 12.025 8.75833 11.925 8.475 11.925C8.19167 11.925 7.95 12.025 7.75 12.225C7.55 12.425 7.45 12.6667 7.45 12.95C7.45 13.2333 7.55 13.475 7.75 13.675C7.95 13.875 8.19167 13.975 8.475 13.975ZM7.75 10.8H9.25C9.25 10.3 9.3 9.95 9.4 9.75C9.5 9.55 9.81667 9.18333 10.35 8.65C10.65 8.35 10.9 8.025 11.1 7.675C11.3 7.325 11.4 6.95 11.4 6.55C11.4 5.7 11.1127 5.06233 10.538 4.637C9.96267 4.21233 9.28333 4 8.5 4C7.76667 4 7.15 4.204 6.65 4.612C6.15 5.02067 5.8 5.51667 5.6 6.1L7 6.65C7.08333 6.36667 7.24167 6.08733 7.475 5.812C7.70833 5.53733 8.05 5.4 8.5 5.4C8.95 5.4 9.28767 5.525 9.513 5.775C9.73767 6.025 9.85 6.3 9.85 6.6C9.85 6.88333 9.76667 7.13733 9.6 7.362C9.43333 7.58733 9.23333 7.81667 9 8.05C8.41667 8.55 8.06267 8.94567 7.938 9.237C7.81267 9.529 7.75 10.05 7.75 10.8Z" fill="#6C6C6C"/>
</svg>
