<svg width="118" height="118" viewBox="0 0 118 118" fill="none" xmlns="http://www.w3.org/2000/svg">
<circle cx="60" cy="14" r="13" stroke="#455EE0" stroke-width="2"/>
<circle cx="100" cy="28" r="11" stroke="#D2D8F8" stroke-width="2"/>
<circle cx="21" cy="28" r="11" stroke="#6A7EE6" stroke-width="2"/>
<circle cx="108" cy="63" r="9" stroke="#F3F0FF" stroke-width="2"/>
<circle cx="10" cy="63" r="9" stroke="#6A7EE6" stroke-width="2"/>
<circle cx="100" cy="95" r="8" stroke="#F3F0FF" stroke-width="2"/>
<circle cx="21" cy="95" r="8" stroke="#6A7EE6" stroke-width="2"/>
<circle cx="60" cy="110" r="7" stroke="#6A7EE6" stroke-width="2"/>
<path d="M41.1 66C40.82 66 40.6 65.92 40.44 65.76C40.28 65.6 40.2 65.3867 40.2 65.12C40.2 64.84 40.28 64.6267 40.44 64.48C40.6 64.3333 40.82 64.26 41.1 64.26H43.54V53.62H44.58L41.66 55.48C41.4467 55.6 41.2467 55.6467 41.06 55.62C40.8867 55.5933 40.7333 55.52 40.6 55.4C40.48 55.28 40.3933 55.1333 40.34 54.96C40.3 54.7867 40.3133 54.6067 40.38 54.42C40.46 54.2333 40.6 54.08 40.8 53.96L43.56 52.22C43.7867 52.0867 44 51.98 44.2 51.9C44.4133 51.8067 44.6133 51.76 44.8 51.76C45.0267 51.76 45.2133 51.8267 45.36 51.96C45.52 52.08 45.6 52.2867 45.6 52.58V64.26H47.84C48.1333 64.26 48.36 64.3333 48.52 64.48C48.68 64.6267 48.76 64.84 48.76 65.12C48.76 65.4 48.68 65.62 48.52 65.78C48.36 65.9267 48.1333 66 47.84 66H41.1ZM55.9922 66.18C54.3522 66.18 53.0989 65.56 52.2322 64.32C51.3789 63.0667 50.9522 61.2733 50.9522 58.94C50.9522 57.3533 51.1455 56.0267 51.5322 54.96C51.9189 53.8933 52.4855 53.0867 53.2322 52.54C53.9789 51.9933 54.8989 51.72 55.9922 51.72C57.6455 51.72 58.8989 52.3333 59.7522 53.56C60.6055 54.7733 61.0322 56.56 61.0322 58.92C61.0322 60.48 60.8389 61.8 60.4522 62.88C60.0655 63.96 59.4989 64.78 58.7522 65.34C58.0055 65.9 57.0855 66.18 55.9922 66.18ZM55.9922 64.46C57.0189 64.46 57.7722 64.0133 58.2522 63.12C58.7455 62.2133 58.9922 60.8133 58.9922 58.92C58.9922 57.0133 58.7455 55.6267 58.2522 54.76C57.7722 53.88 57.0189 53.44 55.9922 53.44C54.9789 53.44 54.2255 53.88 53.7322 54.76C53.2389 55.6267 52.9922 57.0133 52.9922 58.92C52.9922 60.8133 53.2389 62.2133 53.7322 63.12C54.2255 64.0133 54.9789 64.46 55.9922 64.46ZM68.2444 65.94C68.1377 66.14 67.9977 66.2733 67.8244 66.34C67.6644 66.4067 67.5044 66.42 67.3444 66.38C67.1844 66.34 67.051 66.26 66.9444 66.14C66.8377 66.02 66.771 65.8733 66.7444 65.7C66.731 65.5267 66.7777 65.34 66.8844 65.14L74.4444 52C74.551 51.7867 74.6844 51.6467 74.8444 51.58C75.0177 51.5133 75.1777 51.5 75.3244 51.54C75.4844 51.58 75.6177 51.66 75.7244 51.78C75.8444 51.9 75.9177 52.0467 75.9444 52.22C75.971 52.3933 75.9244 52.58 75.8044 52.78L68.2444 65.94ZM66.4644 60.34C65.371 60.34 64.5177 59.96 63.9044 59.2C63.291 58.4267 62.9844 57.3667 62.9844 56.02C62.9844 55.1133 63.1244 54.34 63.4044 53.7C63.6844 53.06 64.0844 52.5733 64.6044 52.24C65.1244 51.8933 65.7444 51.72 66.4644 51.72C67.5444 51.72 68.391 52.1 69.0044 52.86C69.631 53.62 69.9444 54.6733 69.9444 56.02C69.9444 56.9133 69.8044 57.6867 69.5244 58.34C69.2577 58.98 68.8644 59.4733 68.3444 59.82C67.8244 60.1667 67.1977 60.34 66.4644 60.34ZM66.4644 58.92C66.8377 58.92 67.1577 58.8133 67.4244 58.6C67.691 58.3867 67.891 58.0667 68.0244 57.64C68.171 57.2133 68.2444 56.6733 68.2444 56.02C68.2444 55.0467 68.0844 54.32 67.7644 53.84C67.4577 53.36 67.0244 53.12 66.4644 53.12C66.091 53.12 65.771 53.2267 65.5044 53.44C65.2377 53.6533 65.031 53.9733 64.8844 54.4C64.751 54.8267 64.6844 55.3667 64.6844 56.02C64.6844 57.0067 64.8377 57.74 65.1444 58.22C65.4644 58.6867 65.9044 58.92 66.4644 58.92ZM76.2444 66.18C75.1644 66.18 74.3177 65.8 73.7044 65.04C73.091 64.28 72.7844 63.22 72.7844 61.86C72.7844 60.9667 72.9177 60.2 73.1844 59.56C73.4644 58.92 73.8644 58.4267 74.3844 58.08C74.9044 57.7333 75.5244 57.56 76.2444 57.56C77.3377 57.56 78.191 57.9467 78.8044 58.72C79.4177 59.48 79.7244 60.5267 79.7244 61.86C79.7244 62.7667 79.5844 63.5467 79.3044 64.2C79.0377 64.84 78.6444 65.3333 78.1244 65.68C77.6044 66.0133 76.9777 66.18 76.2444 66.18ZM76.2444 64.78C76.6177 64.78 76.9377 64.6733 77.2044 64.46C77.471 64.2467 77.671 63.9267 77.8044 63.5C77.951 63.06 78.0244 62.5133 78.0244 61.86C78.0244 60.9 77.8644 60.18 77.5444 59.7C77.2377 59.22 76.8044 58.98 76.2444 58.98C75.8844 58.98 75.5644 59.0867 75.2844 59.3C75.0177 59.5133 74.811 59.8333 74.6644 60.26C74.531 60.6867 74.4644 61.22 74.4644 61.86C74.4644 62.8467 74.6244 63.58 74.9444 64.06C75.2644 64.54 75.6977 64.78 76.2444 64.78Z" fill="#4D3899"/>
</svg>
