<svg width="207" height="357" viewBox="0 0 207 357" fill="none" xmlns="http://www.w3.org/2000/svg">
<g opacity="0.3">
<path d="M-133.412 0.000877057L-136.028 5.52069C-135.015 9.31156 -133.771 13.0368 -132.302 16.6754C-122.991 38.9302 -108.529 58.6561 -90.1056 74.2302C-71.5179 90.1076 -51.1613 103.789 -29.4391 115.002C-7.78001 127.146 15.3326 136.223 35.6676 150.367C55.9985 163.849 73.2367 181.491 86.2431 202.129C99.0131 223.611 106.591 247.778 108.373 272.706C110.21 299.279 109.143 325.973 105.19 352.315L113.47 356.24C117.827 327.897 118.852 299.142 116.525 270.561C115.067 244.611 107.46 219.38 94.3312 196.95C80.4876 175.238 62.0088 156.861 40.2213 143.137C18.9069 130.197 -3.0792 118.397 -25.6441 107.788C-47.0889 96.8943 -67.2711 83.6763 -85.8268 68.3718C-103.738 53.6785 -118.046 35.078 -127.653 13.997C-129.975 9.50732 -131.902 4.82432 -133.412 0.000877057Z" fill="#B385F2"/>
<path d="M-155.507 46.6118L-157.978 51.825C-149.526 64.9313 -139.146 76.6879 -127.188 86.6981C-108.432 102.335 -88.0436 115.902 -66.3761 127.163C-44.717 139.307 -21.6044 148.384 -1.26932 162.529C19.0616 176.01 36.2998 193.653 49.3061 214.291C62.0761 235.773 69.6538 259.94 71.4357 284.867C72.9129 301.988 72.9196 319.204 71.4557 336.326L80.6554 340.687C82.4206 322.162 82.5871 303.519 81.1529 284.966C79.0229 259.016 70.8533 233.924 57.2968 211.694C43.4097 190.017 24.9395 171.649 3.18685 157.881C-18.4172 144.764 -40.7112 132.818 -63.5985 122.095C-85.0433 111.202 -105.225 97.9841 -123.781 82.6796C-136.165 72.3777 -146.869 60.2092 -155.507 46.6118Z" fill="#B385F2"/>
<path d="M-173.53 84.6373L-175.855 89.5438L-164.704 100.087C-145.948 115.724 -125.56 129.291 -103.892 140.552C-81.5979 151.237 -59.911 163.146 -38.9306 176.224C-18.5461 189.641 -1.29529 207.296 11.6448 227.986C24.561 249.301 32.1979 273.393 33.9197 298.256C34.37 305.229 34.5136 312.057 34.3506 318.739L42.6304 322.664C42.7614 314.464 42.2792 305.973 41.797 297.483C39.5696 271.552 31.4071 246.482 17.941 224.21C4.0538 202.534 -14.4164 184.165 -36.169 170.398C-57.4835 157.458 -79.4695 145.658 -102.034 135.048C-123.479 124.155 -143.661 110.937 -162.217 95.6324C-166.216 92.2094 -169.994 88.5371 -173.53 84.6373Z" fill="#B385F2"/>
<path d="M-188.937 117.143L-191.262 122.049C-175.619 134.131 -158.936 144.803 -141.409 153.941C-119.119 164.634 -97.4324 176.543 -76.4471 189.613C-56.0626 203.029 -38.8118 220.684 -25.8717 241.375C-14.4792 259.179 -7.20976 279.305 -4.59491 300.28L3.99147 304.35C1.41858 280.847 -6.31473 258.202 -18.6556 238.035C-32.6143 216.273 -51.1929 197.851 -73.0722 184.077C-94.2802 171.179 -116.165 159.427 -138.631 148.873C-156.381 139.939 -173.228 129.313 -188.937 117.143Z" fill="#B385F2"/>
</g>
</svg>
