<svg width="182" height="357" viewBox="0 0 182 357" fill="none" xmlns="http://www.w3.org/2000/svg">
<g opacity="0.3">
<path d="M88.4677 0.000877057L91.084 5.52069C90.071 9.31156 88.8266 13.0368 87.3579 16.6754C78.0469 38.9302 63.5847 58.6561 45.1613 74.2302C26.5736 90.1076 6.21699 103.789 -15.5052 115.002C-37.1643 127.146 -60.2769 136.223 -80.612 150.367C-100.943 163.849 -118.181 181.491 -131.187 202.129C-143.957 223.611 -151.535 247.778 -153.317 272.706C-155.155 299.279 -154.088 325.973 -150.134 352.315L-158.414 356.24C-162.771 327.897 -163.797 299.142 -161.469 270.561C-160.012 244.611 -152.405 219.38 -139.276 196.95C-125.432 175.238 -106.953 156.861 -85.1656 143.137C-63.8512 130.197 -41.8651 118.397 -19.3002 107.788C2.14457 96.8943 22.3267 83.6763 40.8824 68.3718C58.7937 53.6785 73.1015 35.078 82.7085 13.997C85.0302 9.50732 86.9572 4.82432 88.4677 0.000877057Z" fill="#B385F2"/>
<path d="M110.563 46.6117L113.033 51.8248C104.582 64.9312 94.2019 76.6878 82.2436 86.698C63.4879 102.335 43.0992 115.902 21.4318 127.163C-0.22737 139.307 -23.34 148.384 -43.675 162.529C-64.0059 176.01 -81.2441 193.653 -94.2505 214.291C-107.02 235.773 -114.598 259.94 -116.38 284.867C-117.857 301.988 -117.864 319.204 -116.4 336.326L-125.6 340.687C-127.365 322.162 -127.531 303.519 -126.097 284.966C-123.967 259.016 -115.798 233.924 -102.241 211.694C-88.354 190.017 -69.8838 171.648 -48.1312 157.881C-26.5271 144.764 -4.2331 132.818 18.6542 122.095C40.099 111.202 60.2811 97.984 78.8368 82.6795C91.2211 72.3776 101.925 60.209 110.563 46.6117Z" fill="#B385F2"/>
<path d="M128.585 84.6372L130.911 89.5436L119.76 100.087C101.004 115.724 80.6152 129.291 58.9477 140.552C36.6535 151.237 14.9667 163.146 -6.0137 176.224C-26.3983 189.64 -43.649 207.296 -56.5891 227.986C-69.5053 249.301 -77.1423 273.392 -78.864 298.256C-79.3143 305.229 -79.458 312.057 -79.295 318.739L-87.5747 322.664C-87.7058 314.464 -87.2235 305.973 -86.7413 297.483C-84.5139 271.552 -76.3514 246.482 -62.8853 224.21C-48.9981 202.534 -30.528 184.165 -8.7753 170.398C12.5391 157.458 34.5251 145.658 57.0901 135.048C78.5349 124.155 98.717 110.937 117.273 95.6322C121.272 92.2093 125.05 88.5369 128.585 84.6372Z" fill="#B385F2"/>
<path d="M143.992 117.143L146.318 122.049C130.675 134.131 113.991 144.803 96.4642 153.94C74.1744 164.634 52.488 176.543 31.5028 189.613C11.1182 203.029 -6.13256 220.684 -19.0727 241.374C-30.4652 259.179 -37.7346 279.305 -40.3494 300.28L-48.9358 304.35C-46.3629 280.847 -38.6296 258.202 -26.2887 238.035C-12.33 216.273 6.24855 197.851 28.1279 184.077C49.3358 171.179 71.2202 159.427 93.6867 148.873C111.437 139.939 128.284 129.313 143.992 117.143Z" fill="#B385F2"/>
<path d="M158.091 146.888L160.417 151.794C151.217 156.155 142.889 162.355 133.98 167.329C112.628 179.327 89.2086 188.55 69.0189 203.001C48.7208 216.522 31.4901 234.157 18.4435 254.763C13.8208 261.969 10.0421 269.682 7.1821 277.751L-2.93753 282.548C0.64627 271.594 5.50339 261.099 11.5341 251.278C25.4928 229.516 44.0713 211.094 65.9507 197.32C87.2567 184.365 109.244 172.565 131.816 161.97C140.564 157.449 149.473 152.475 158.091 146.888Z" fill="#B385F2"/>
<path d="M171.169 174.489L173.495 179.395L171.348 180.413C149.995 192.411 126.576 201.633 106.693 215.939C93.4094 224.739 81.3466 235.255 70.8178 247.214L55.7917 254.336C68.6894 236.947 84.7001 222.1 103.012 210.549C124.318 197.595 146.305 185.794 168.877 175.199L171.169 174.489Z" fill="#B385F2"/>
</g>
</svg>
