<svg width="567" height="540" viewBox="0 0 567 540" fill="none" xmlns="http://www.w3.org/2000/svg">
<path d="M373.691 443.473H356.569V486.749H373.691V443.473Z" fill="#E0E0E0"/>
<path d="M377.08 471.861H353.18L351.522 513.532C351.478 514.594 351.649 515.653 352.026 516.646C352.402 517.64 352.975 518.547 353.711 519.313C354.447 520.079 355.33 520.688 356.307 521.104C357.285 521.52 358.336 521.734 359.398 521.733H370.952C372.012 521.732 373.062 521.516 374.037 521.099C375.012 520.682 375.893 520.072 376.627 519.306C377.361 518.54 377.933 517.634 378.308 516.642C378.683 515.65 378.854 514.592 378.81 513.532L377.08 471.861Z" fill="#263238"/>
<path d="M424.627 520.598C424.124 520.596 423.628 520.47 423.185 520.231C422.742 519.992 422.364 519.648 422.086 519.228C419.715 515.61 416.479 512.641 412.67 510.589C408.862 508.537 404.603 507.467 400.277 507.476H329.983C325.658 507.467 321.398 508.537 317.59 510.589C313.782 512.641 310.545 515.61 308.174 519.228C307.718 519.873 307.028 520.315 306.251 520.462C305.474 520.608 304.671 520.446 304.011 520.011C303.351 519.575 302.886 518.901 302.715 518.129C302.543 517.357 302.678 516.549 303.092 515.875C306.027 511.431 310.021 507.786 314.716 505.269C319.41 502.751 324.657 501.441 329.983 501.456H400.277C405.609 501.428 410.865 502.729 415.569 505.24C420.273 507.751 424.278 511.394 427.223 515.839C427.525 516.299 427.698 516.831 427.722 517.38C427.747 517.929 427.622 518.475 427.362 518.959C427.101 519.443 426.714 519.848 426.242 520.13C425.771 520.412 425.231 520.561 424.681 520.562L424.627 520.598Z" fill="#263238"/>
<path d="M393.986 446.501H336.31C333.191 446.503 330.168 445.427 327.751 443.457C325.334 441.486 323.671 438.742 323.044 435.687L321.242 426.855H409.127L407.324 435.687C406.695 438.754 405.022 441.508 402.59 443.48C400.158 445.451 397.117 446.519 393.986 446.501Z" fill="#263238"/>
<path d="M238.926 423.196H308.066C334.271 423.113 359.57 413.594 379.331 396.382C399.091 379.171 411.991 355.417 415.669 329.471L434.63 195.949H556.797L537.836 329.471C534.158 355.417 521.258 379.171 501.497 396.382C481.737 413.594 456.438 423.113 430.233 423.196H238.926Z" fill="#263238"/>
<path d="M238.926 433.325C237.559 433.383 236.194 433.164 234.913 432.68C233.633 432.197 232.464 431.459 231.476 430.512C230.488 429.565 229.702 428.428 229.165 427.169C228.628 425.91 228.351 424.556 228.351 423.187C228.351 421.818 228.628 420.464 229.165 419.205C229.702 417.946 230.488 416.809 231.476 415.862C232.464 414.915 233.633 414.177 234.913 413.694C236.194 413.21 237.559 412.991 238.926 413.048H308.264C331.979 412.858 354.84 404.171 372.698 388.565C390.555 372.96 402.227 351.469 405.594 327.993L424.555 194.472C424.901 192.054 426.107 189.842 427.95 188.24C429.794 186.638 432.152 185.754 434.594 185.748H556.761C558.213 185.749 559.648 186.062 560.969 186.665C562.29 187.269 563.466 188.149 564.418 189.245C565.37 190.342 566.075 191.631 566.486 193.024C566.897 194.417 567.004 195.881 566.8 197.319L547.839 330.841C539.548 389.257 488.973 433.325 430.196 433.325H238.926ZM443.444 206.043L425.709 330.841C423.335 347.404 417.511 363.285 408.613 377.455C399.714 391.626 387.94 403.77 374.052 413.103H430.233C453.985 412.968 476.9 404.309 494.806 388.702C512.713 373.095 524.419 351.577 527.796 328.065L545.117 206.097L443.444 206.043Z" fill="#263238"/>
<path opacity="0.2" d="M361.074 433.325C359.707 433.383 358.342 433.163 357.062 432.68C355.781 432.196 354.612 431.459 353.624 430.512C352.636 429.565 351.85 428.427 351.313 427.169C350.776 425.91 350.499 424.555 350.499 423.187C350.499 421.818 350.776 420.464 351.313 419.205C351.85 417.946 352.636 416.809 353.624 415.862C354.612 414.915 355.781 414.177 357.062 413.694C358.342 413.21 359.707 412.991 361.074 413.048H430.232C453.985 412.914 476.9 404.255 494.806 388.648C512.712 373.041 524.419 351.523 527.796 328.011L546.758 194.489C546.897 193.131 547.309 191.814 547.969 190.618C548.629 189.423 549.523 188.373 550.599 187.531C551.675 186.689 552.909 186.073 554.229 185.72C555.548 185.367 556.925 185.284 558.277 185.476C559.63 185.668 560.929 186.13 562.098 186.836C563.267 187.542 564.282 188.477 565.081 189.585C565.88 190.692 566.448 191.95 566.749 193.282C567.051 194.614 567.08 195.993 566.836 197.337L547.875 330.859C539.584 389.275 489.009 433.343 430.232 433.343L361.074 433.325Z" fill="white"/>
<path d="M314.519 520.327C314.519 518.602 314.007 516.915 313.048 515.481C312.09 514.046 310.727 512.928 309.133 512.268C307.539 511.608 305.785 511.435 304.093 511.771C302.401 512.108 300.846 512.939 299.626 514.159C298.406 515.379 297.576 516.933 297.239 518.625C296.902 520.318 297.075 522.072 297.735 523.666C298.396 525.26 299.514 526.622 300.948 527.581C302.383 528.539 304.07 529.051 305.795 529.051C308.109 529.051 310.327 528.132 311.963 526.496C313.599 524.86 314.519 522.641 314.519 520.327Z" fill="#263238"/>
<path d="M433.189 520.327C433.189 518.602 432.677 516.915 431.719 515.481C430.76 514.046 429.397 512.928 427.803 512.268C426.209 511.608 424.455 511.435 422.763 511.771C421.071 512.108 419.517 512.939 418.297 514.159C417.077 515.379 416.246 516.933 415.909 518.625C415.572 520.318 415.745 522.072 416.406 523.666C417.066 525.26 418.184 526.622 419.618 527.581C421.053 528.539 422.74 529.051 424.465 529.051C426.779 529.051 428.998 528.132 430.634 526.496C432.27 524.86 433.189 522.641 433.189 520.327Z" fill="#263238"/>
<path d="M424.627 520.598C424.124 520.596 423.628 520.47 423.185 520.231C422.742 519.992 422.364 519.648 422.086 519.228C419.715 515.61 416.479 512.641 412.67 510.589C408.862 508.537 404.603 507.467 400.277 507.476H329.983C325.658 507.467 321.398 508.537 317.59 510.589C313.782 512.641 310.545 515.61 308.174 519.228C307.718 519.873 307.028 520.315 306.251 520.462C305.474 520.608 304.671 520.446 304.011 520.011C303.351 519.575 302.886 518.901 302.715 518.129C302.543 517.357 302.678 516.549 303.092 515.875C306.027 511.431 310.021 507.786 314.716 505.269C319.41 502.751 324.657 501.441 329.983 501.456H400.277C405.609 501.428 410.865 502.729 415.569 505.24C420.273 507.751 424.278 511.394 427.223 515.839C427.525 516.299 427.698 516.831 427.722 517.38C427.747 517.929 427.622 518.475 427.362 518.959C427.101 519.443 426.714 519.848 426.242 520.13C425.771 520.412 425.231 520.561 424.681 520.562L424.627 520.598Z" fill="#263238"/>
<path d="M394.888 525.734C394.244 525.73 393.619 525.524 393.098 525.146C392.578 524.767 392.189 524.236 391.986 523.625C389.787 516.939 386.146 512.595 382.703 512.595H347.557C344.114 512.595 340.473 516.939 338.274 523.625C338 524.363 337.451 524.966 336.742 525.308C336.034 525.65 335.22 525.705 334.472 525.46C333.724 525.215 333.1 524.691 332.73 523.996C332.36 523.301 332.274 522.49 332.489 521.733C335.625 512.198 341.248 506.521 347.557 506.521H382.703C389.012 506.521 394.635 512.198 397.772 521.733C398.022 522.5 397.957 523.335 397.592 524.055C397.227 524.775 396.592 525.321 395.825 525.572C395.524 525.678 395.207 525.733 394.888 525.734Z" fill="#263238"/>
<path d="M344.096 525.464C344.096 523.739 343.584 522.052 342.626 520.618C341.667 519.183 340.305 518.065 338.711 517.405C337.117 516.744 335.363 516.572 333.67 516.908C331.978 517.245 330.424 518.076 329.204 519.296C327.984 520.516 327.153 522.07 326.816 523.762C326.48 525.455 326.652 527.209 327.313 528.803C327.973 530.397 329.091 531.759 330.526 532.718C331.96 533.676 333.647 534.188 335.372 534.188C337.686 534.188 339.905 533.269 341.541 531.633C343.177 529.997 344.096 527.778 344.096 525.464Z" fill="#263238"/>
<path d="M403.611 525.464C403.611 523.739 403.1 522.052 402.141 520.618C401.183 519.183 399.82 518.065 398.226 517.405C396.632 516.744 394.878 516.572 393.186 516.908C391.494 517.245 389.939 518.076 388.719 519.296C387.499 520.516 386.668 522.07 386.332 523.762C385.995 525.455 386.168 527.209 386.828 528.803C387.488 530.397 388.607 531.759 390.041 532.718C391.476 533.676 393.162 534.188 394.888 534.188C397.201 534.188 399.42 533.269 401.056 531.633C402.692 529.997 403.611 527.778 403.611 525.464Z" fill="#263238"/>
<path d="M177.374 405.749L208.069 419.069L190.477 439.598L164.811 428.477L177.374 405.749Z" fill="#FFB573"/>
<path opacity="0.2" d="M177.392 405.749L208.087 419.087L198.228 430.586L170.345 418.492L177.392 405.749Z" fill="black"/>
<path d="M194.839 450.286L191.379 449.493C190.362 449.262 189.417 448.784 188.628 448.102C187.84 447.42 187.23 446.555 186.855 445.582L184.638 446.609C183.357 447.215 181.91 447.374 180.528 447.06L133.179 436.245C133.305 431.992 137.054 427.233 137.054 427.233C137.054 427.233 158.124 430.838 164.217 425.81C164.457 425.641 164.74 425.543 165.033 425.527C165.326 425.511 165.618 425.578 165.875 425.719C169.696 427.522 184.764 434.029 194.425 433.109C194.724 433.086 195.025 433.133 195.303 433.246C195.58 433.359 195.828 433.535 196.026 433.761C196.224 433.987 196.366 434.256 196.442 434.546C196.517 434.837 196.524 435.141 196.461 435.434C195.563 440.339 195.021 445.303 194.839 450.286Z" fill="#263238"/>
<path d="M165.046 427.179C164.977 427.179 164.91 427.164 164.848 427.137C164.786 427.109 164.73 427.068 164.685 427.017C164.487 426.801 159.674 421.61 159.819 418.672C159.826 418.378 159.894 418.089 160.018 417.822C160.142 417.555 160.32 417.317 160.54 417.122C160.787 416.873 161.107 416.71 161.454 416.655C161.801 416.6 162.156 416.656 162.468 416.816C164.541 417.861 165.839 423.647 165.568 426.729C165.555 426.825 165.517 426.916 165.456 426.992C165.396 427.068 165.316 427.127 165.226 427.161L165.046 427.179ZM161.729 417.645C161.63 417.65 161.532 417.675 161.443 417.719C161.353 417.762 161.273 417.823 161.206 417.897C161.087 417.999 160.993 418.126 160.93 418.27C160.868 418.413 160.839 418.57 160.846 418.726C160.756 420.529 163.045 423.575 164.577 425.377C164.469 422.403 163.333 418.384 162.018 417.717C161.927 417.674 161.829 417.649 161.729 417.645Z" fill="#263238"/>
<path d="M161.314 427.395C159.304 427.563 157.288 427.144 155.511 426.188C155.276 426.014 155.081 425.792 154.938 425.537C154.795 425.283 154.708 425.001 154.682 424.71C154.612 424.354 154.66 423.985 154.82 423.66C154.979 423.334 155.241 423.07 155.565 422.907C157.62 421.862 163.063 424.223 165.388 426.26C165.462 426.324 165.516 426.408 165.543 426.502C165.57 426.596 165.569 426.696 165.541 426.79C165.512 426.883 165.457 426.966 165.382 427.029C165.307 427.092 165.215 427.132 165.118 427.143C163.855 427.297 162.586 427.381 161.314 427.395ZM156.863 423.682C156.554 423.672 156.247 423.727 155.961 423.845C155.781 423.953 155.583 424.115 155.637 424.62C155.656 424.773 155.705 424.92 155.782 425.054C155.86 425.187 155.964 425.303 156.088 425.395C157.457 426.494 161.314 426.476 163.676 426.296C161.651 424.884 159.312 423.987 156.863 423.682Z" fill="#263238"/>
<path d="M453.051 309.176L439.839 336.699C420.446 377.325 372.664 397.746 334.507 381.759C312.229 372.423 287.915 352.686 271.423 343.656C257.274 374.676 230.779 408.885 210.502 432.695L169.479 412.057C184.8 376.893 208.646 321.937 223.786 286.322C226.482 280.006 230.903 274.578 236.542 270.66C242.182 266.743 248.811 264.493 255.67 264.17C323.873 262.332 453.051 309.176 453.051 309.176Z" fill="#407BFF"/>
<path d="M410.695 24.2894C402.998 21.748 394.221 26.6325 394.113 43.8274C394.004 61.0222 409.631 70.2325 416.228 48.0089C420.193 34.5991 416.408 26.1458 410.695 24.2894Z" fill="#E0E0E0"/>
<path d="M253.688 495.778L287.104 494.21L280.381 520.381L252.444 521.715L253.688 495.778Z" fill="#FFB573"/>
<path opacity="0.2" d="M253.706 495.778L287.122 494.21L283.355 508.882L253.003 510.324L253.706 495.778Z" fill="black"/>
<path d="M285.5 534.188H281.895C280.853 534.186 279.827 533.927 278.908 533.433C277.99 532.94 277.208 532.227 276.632 531.358L274.703 532.872C273.583 533.736 272.207 534.205 270.792 534.206H222.272C221.443 530.042 224.074 524.599 224.074 524.599C224.074 524.599 245.415 523.463 250.227 517.209C250.401 516.97 250.638 516.784 250.912 516.673C251.186 516.561 251.485 516.529 251.777 516.578C255.904 517.443 272.054 520.508 281.264 517.461C281.549 517.371 281.851 517.349 282.146 517.397C282.441 517.444 282.72 517.561 282.962 517.736C283.204 517.911 283.401 518.141 283.538 518.406C283.676 518.671 283.749 518.965 283.752 519.264C283.973 524.274 284.558 529.262 285.5 534.188Z" fill="#263238"/>
<path d="M251.218 518.273C251.115 518.278 251.012 518.246 250.93 518.183C250.678 518.021 244.856 514.091 244.333 511.117C244.275 510.831 244.277 510.536 244.339 510.25C244.401 509.965 244.522 509.695 244.694 509.459C244.878 509.162 245.151 508.93 245.475 508.797C245.799 508.664 246.156 508.637 246.496 508.72C248.731 509.297 251.291 514.632 251.705 517.732C251.716 517.832 251.698 517.932 251.653 518.021C251.608 518.111 251.539 518.186 251.453 518.237C251.38 518.271 251.298 518.284 251.218 518.273ZM246.082 509.675C245.962 509.688 245.848 509.729 245.748 509.795C245.647 509.861 245.564 509.95 245.505 510.054C245.415 510.184 245.353 510.331 245.325 510.487C245.297 510.642 245.303 510.802 245.343 510.955C245.649 512.758 248.551 515.191 250.461 516.615C249.704 513.731 247.686 510.072 246.262 509.711L246.082 509.675Z" fill="#263238"/>
<path d="M243.991 519.805C243.237 519.837 242.486 519.701 241.792 519.408C241.525 519.288 241.287 519.114 241.091 518.897C240.896 518.679 240.748 518.424 240.656 518.147C240.526 517.819 240.501 517.459 240.585 517.116C240.669 516.774 240.858 516.466 241.125 516.236C242.927 514.758 248.731 515.857 251.453 517.317C251.536 517.368 251.605 517.439 251.653 517.525C251.7 517.61 251.724 517.706 251.723 517.804C251.716 517.902 251.68 517.996 251.619 518.074C251.558 518.151 251.475 518.208 251.381 518.237C249.007 519.116 246.517 519.644 243.991 519.805ZM243.991 516.524C243.225 516.462 242.459 516.632 241.792 517.011C241.63 517.155 241.485 517.353 241.63 517.84C241.684 517.986 241.768 518.12 241.876 518.231C241.985 518.343 242.116 518.431 242.26 518.489C243.847 519.264 247.577 518.399 249.848 517.696C247.971 516.972 245.984 516.575 243.973 516.524H243.991Z" fill="#263238"/>
<path d="M472.156 298.272L471.94 327.344C471.598 370.223 435.243 408.452 391.841 411.733C366.5 413.535 332.254 414.184 312.536 413.787C309.67 443.815 300.28 479.196 290.907 504.827L248.226 501.853C247.109 465.462 245.469 413.859 244.099 379.632C243.558 366.294 251.831 353.173 264.556 346.9C328.451 315.394 472.156 298.272 472.156 298.272Z" fill="#407BFF"/>
<path opacity="0.1" d="M281.715 505.205C281.62 505.223 281.522 505.223 281.426 505.205C281.171 505.127 280.957 504.949 280.832 504.713C280.707 504.476 280.681 504.2 280.76 503.944C287.212 482.73 298.784 416.509 299.342 386.103C299.36 385.813 299.489 385.542 299.703 385.346C299.812 385.255 299.939 385.187 300.075 385.147C300.212 385.107 300.355 385.095 300.496 385.112C362.841 393.403 405.035 390.519 422.608 376.965C453.411 353.029 452.961 314.277 445.156 294.054C445.058 293.803 445.064 293.524 445.172 293.277C445.28 293.03 445.482 292.837 445.733 292.739C445.984 292.641 446.264 292.646 446.511 292.755C446.757 292.863 446.951 293.064 447.049 293.315C455.07 314.079 455.52 353.912 423.852 378.533C405.72 392.61 364.517 395.547 301.289 387.238C300.514 418.258 289.033 483.451 282.634 504.485C282.577 504.687 282.457 504.865 282.292 504.995C282.127 505.124 281.925 505.198 281.715 505.205Z" fill="black"/>
<path opacity="0.2" d="M269.765 347.225C262.442 361.902 253.956 375.97 244.387 389.293C244.603 395.295 244.838 401.657 245.072 408.272C260.176 384.426 269.783 347.189 269.783 347.189L269.765 347.225Z" fill="black"/>
<path d="M357.776 169.779L356.172 170.806L354.874 171.599L352.351 173.059C350.675 174.015 348.999 174.862 347.34 175.691C344.006 177.385 340.581 178.845 337.103 180.233C330.04 183.031 322.733 185.167 315.276 186.613C311.473 187.352 307.561 187.875 303.596 188.253C299.542 188.564 295.474 188.63 291.412 188.452C287.205 188.283 283.018 187.795 278.885 186.992C274.637 186.13 270.466 184.925 266.413 183.387L264.754 182.774C262.246 181.853 259.982 180.366 258.14 178.43C254.215 174.305 251.216 169.389 249.344 164.011C247.864 159.755 246.973 155.316 246.694 150.818C246.251 143.559 246.858 136.274 248.497 129.189C249.926 122.918 251.867 116.775 254.301 110.822C255.49 107.921 256.788 105.091 258.158 102.315L260.303 98.1696C261.096 96.7817 261.817 95.5381 262.736 93.97C264.052 91.7533 266.063 90.0333 268.457 89.0775C270.851 88.1216 273.494 87.9834 275.975 88.6843C278.456 89.3851 280.635 90.8858 282.175 92.9532C283.715 95.0205 284.529 97.5386 284.491 100.116V101.919C284.491 103.018 284.311 104.478 284.238 105.776L283.932 109.795C283.716 112.463 283.59 115.202 283.463 117.762C283.337 120.321 283.283 122.989 283.265 125.512C283.247 128.035 283.265 130.541 283.427 132.92C283.546 137.118 284.194 141.284 285.356 145.32C285.685 146.495 286.236 147.596 286.978 148.565C287.483 149.087 287.717 148.835 287.447 148.24L279.174 143.284C283.239 144.019 287.383 144.231 291.502 143.914C293.759 143.75 296.004 143.449 298.225 143.013C300.514 142.617 302.857 142.13 305.218 141.481C307.579 140.832 309.941 140.075 312.338 139.282C314.735 138.489 317.114 137.48 319.547 136.543C321.981 135.605 324.288 134.47 326.649 133.388C327.802 132.848 328.956 132.271 330.055 131.712L331.678 130.883L332.435 130.505C332.597 130.414 332.975 130.198 332.849 130.306C338.084 127.001 344.417 125.91 350.455 127.274C356.494 128.638 361.743 132.345 365.049 137.579C368.355 142.813 369.445 149.147 368.081 155.185C366.718 161.224 363.011 166.473 357.776 169.779Z" fill="#FFB573"/>
<path d="M266.106 106.37L279.552 107.001C293.016 102.621 284.382 86.2914 284.382 86.2914L283.391 76.7748C283.096 75.1131 282.227 73.6078 280.936 72.5209C279.645 71.4341 278.013 70.8346 276.326 70.8269L266.935 70.3041C262.645 70.0698 258.932 72.9357 258.716 76.6486L258.193 84.9757C258.047 87.403 258.499 89.8292 259.509 92.0411L266.106 106.37Z" fill="#FFB573"/>
<path d="M380.36 110.552C374.683 102.946 356.28 104.73 345.646 116.752C341.248 116.572 324.017 132.163 310.824 135.497C297.63 138.831 288.113 154.783 291.79 163.777C298.585 180.377 303.2 188.325 315.474 189.659C327.748 190.993 343.898 183.044 356.929 173.293C369.96 163.542 390.382 124.052 380.36 110.552Z" fill="#E0E0E0"/>
<path d="M305.164 135.173C294.908 128.576 284.833 139.643 284.833 153.557C284.833 167.472 288.095 179.331 293.088 187.496C298.081 195.661 306.894 194.976 315.113 194.598C322.215 194.255 325.711 191.696 322.323 185.243C318.934 178.791 306.444 169.454 304.587 151.322C303.56 142.148 309.904 138.219 305.164 135.173Z" fill="#FAFAFA"/>
<path d="M302.533 264.135C300.334 266.406 298.748 275.201 303.218 288.377C306.3 297.515 318.43 292.955 318.43 292.955C318.43 292.955 320.557 309.519 335.661 313.07C360.552 318.91 454.439 317.342 470.39 304.959C420.355 304.436 302.533 264.135 302.533 264.135Z" fill="#FAFAFA"/>
<path d="M386.741 104.496C411.304 104.635 435.804 107.012 459.936 111.597C463.916 112.43 467.685 114.065 471.012 116.404C474.339 118.742 477.154 121.735 479.284 125.198C481.415 128.662 482.817 132.523 483.404 136.547C483.992 140.571 483.752 144.672 482.7 148.601C464.676 217.254 474.842 292.648 473.418 306.401C473.418 306.401 329.352 327.146 307.273 284.321C277.623 235.873 328.091 204.223 345.339 136.164C349.9 118.176 368.194 104.388 386.741 104.496Z" fill="#263238"/>
<path opacity="0.1" d="M386.741 104.496C411.304 104.635 435.804 107.012 459.936 111.597C463.916 112.43 467.685 114.065 471.012 116.404C474.339 118.742 477.154 121.735 479.284 125.198C481.415 128.662 482.817 132.523 483.404 136.547C483.992 140.571 483.752 144.672 482.7 148.601C464.676 217.254 474.842 292.648 473.418 306.401C473.418 306.401 329.352 327.146 307.273 284.321C277.623 235.873 328.091 204.223 345.339 136.164C349.9 118.176 368.194 104.388 386.741 104.496Z" fill="white"/>
<path opacity="0.4" d="M434.919 107.686L434.667 107.578L433.873 107.307L433.657 107.47C421.563 106.028 408.964 105.09 396.942 104.712C394.004 104.604 391.103 104.55 388.255 104.514C384.492 106.632 381.595 110.008 380.072 114.048C376.467 123.169 379.026 133.334 387.155 141.229L387.822 141.877L388.777 141.787C406.441 140.075 439.461 125.926 440.849 115.022C441.083 113.183 440.614 109.759 434.919 107.686Z" fill="#FAFAFA"/>
<path d="M486.125 158.063L487.441 160.586L488.612 162.894C489.387 164.426 490.072 165.958 490.793 167.49C492.217 170.536 493.479 173.618 494.758 176.718C497.21 182.918 499.499 189.209 501.409 195.661C502.401 198.869 503.212 202.114 504.185 205.394C505.158 208.674 505.753 211.991 506.438 215.361C507.865 222.158 508.9 229.03 509.538 235.945L509.718 237.747C509.969 240.409 509.649 243.094 508.781 245.624C507.402 249.581 505.3 253.248 502.581 256.438C500.272 259.147 497.568 261.493 494.56 263.395C490.038 266.217 485.072 268.252 479.871 269.415C472.071 271.137 464.067 271.744 456.097 271.218C449.033 270.806 442.009 269.878 435.081 268.442C431.692 267.775 428.358 266.946 425.042 266.063C421.725 265.18 418.553 264.261 415.056 262.963C412.527 262.065 410.382 260.328 408.976 258.042C407.571 255.755 406.991 253.057 407.332 250.395C407.673 247.732 408.915 245.267 410.852 243.409C412.788 241.551 415.302 240.412 417.976 240.18H418.661L427.673 239.423C430.755 239.207 433.801 238.901 436.811 238.594C439.821 238.288 442.813 237.945 445.733 237.567C448.653 237.188 451.501 236.738 454.259 236.197C459.127 235.414 463.884 234.047 468.425 232.124C470.084 231.313 471.255 230.321 471.147 230.123C471.039 229.925 470.714 230.123 470.156 230.592C469.467 231.266 468.916 232.068 468.534 232.953L467.777 242.578C466.425 237.315 465.001 232.052 463.271 226.735C462.423 224.085 461.468 221.327 460.513 218.768C459.558 216.209 458.71 213.361 457.593 210.783C455.502 205.484 453.429 200.149 451.176 194.868L447.788 186.992L444.508 179.584L444.093 178.61C441.683 173.086 441.506 166.843 443.598 161.19C445.69 155.537 449.889 150.914 455.316 148.29C460.742 145.665 466.973 145.243 472.703 147.112C478.434 148.981 483.218 152.996 486.053 158.315L486.125 158.063Z" fill="#FFB573"/>
<path d="M376.918 224.427H350.026C348.652 224.427 347.539 225.541 347.539 226.915V261.629C347.539 263.003 348.652 264.116 350.026 264.116H376.918C378.291 264.116 379.405 263.003 379.405 261.629V226.915C379.405 225.541 378.291 224.427 376.918 224.427Z" fill="#407BFF"/>
<path d="M376.917 232.124C378.553 232.061 380.185 232.329 381.715 232.911C383.245 233.494 384.642 234.379 385.821 235.514C387.001 236.649 387.939 238.011 388.58 239.517C389.221 241.024 389.552 242.644 389.552 244.281C389.552 245.918 389.221 247.538 388.58 249.045C387.939 250.551 387.001 251.913 385.821 253.048C384.642 254.183 383.245 255.068 381.715 255.651C380.185 256.233 378.553 256.501 376.917 256.438H376.755C375.119 256.501 373.488 256.233 371.958 255.651C370.428 255.068 369.031 254.183 367.851 253.048C366.672 251.913 365.733 250.551 365.092 249.045C364.451 247.538 364.121 245.918 364.121 244.281C364.121 242.644 364.451 241.024 365.092 239.517C365.733 238.011 366.672 236.649 367.851 235.514C369.031 234.379 370.428 233.494 371.958 232.911C373.488 232.329 375.119 232.061 376.755 232.124H376.972M376.972 228.519H376.755C374.633 228.447 372.519 228.803 370.537 229.566C368.556 230.328 366.748 231.482 365.222 232.958C363.695 234.433 362.481 236.201 361.652 238.156C360.823 240.11 360.396 242.212 360.396 244.335C360.396 246.458 360.823 248.559 361.652 250.514C362.481 252.469 363.695 254.236 365.222 255.712C366.748 257.188 368.556 258.341 370.537 259.104C372.519 259.867 374.633 260.223 376.755 260.151H376.972C379.093 260.223 381.208 259.867 383.19 259.104C385.171 258.341 386.979 257.188 388.505 255.712C390.032 254.236 391.245 252.469 392.074 250.514C392.903 248.559 393.331 246.458 393.331 244.335C393.331 242.212 392.903 240.11 392.074 238.156C391.245 236.201 390.032 234.433 388.505 232.958C386.979 231.482 385.171 230.328 383.19 229.566C381.208 228.803 379.093 228.447 376.972 228.519Z" fill="#407BFF"/>
<path d="M419.13 246.453L419.022 254.96C413.849 268.136 398.06 258.565 398.06 258.565L388.615 257.015C386.974 256.621 385.524 255.664 384.516 254.31C383.508 252.956 383.007 251.292 383.1 249.607V240.199C382.994 238.263 383.647 236.362 384.918 234.898C386.19 233.435 387.981 232.524 389.913 232.358H398.384C400.817 232.374 403.207 232.994 405.342 234.16L414.876 239.243C416.171 239.948 417.251 240.99 418 242.26C418.749 243.53 419.14 244.979 419.13 246.453Z" fill="#FFB573"/>
<path d="M465.541 118.717C474.878 116.914 487.17 130.739 486.918 146.798C490.27 149.628 496.074 173.221 503.5 184.648C510.926 196.076 507.105 214.208 498.381 218.335C482.16 225.959 473.364 228.699 463.415 221.381C453.465 214.064 442.038 197.031 440.38 180.863C438.037 157.162 448.977 121.835 465.541 118.717Z" fill="#E0E0E0"/>
<path d="M452.691 212.081C446.779 222.751 458.476 232.106 472.283 231.295C486.089 230.484 497.769 226.356 505.609 220.841C513.449 215.326 512.188 206.602 511.251 198.401C510.457 191.336 507.646 188.019 501.464 191.822C495.281 195.625 486.738 208.693 468.768 211.649C459.756 213.235 455.412 207.161 452.691 212.081Z" fill="#FAFAFA"/>
<path d="M384.289 113.237C386.464 109.6 389.806 106.805 393.77 105.307C395.434 101.657 395.79 97.5451 394.779 93.6632L439.335 82.4162C434.919 96.6552 431.458 107.902 436.397 115.238C427.493 119.96 411.163 128.413 394.04 126.881C376.918 125.349 381.135 119.131 384.289 113.237Z" fill="#FFB573"/>
<path opacity="0.2" d="M395.05 95.0332L427.962 95.1234C417.039 105.451 401.232 108.623 394.419 103.739C395.36 100.937 395.577 97.9419 395.05 95.0332Z" fill="black"/>
<path d="M449.212 60.6617C442.867 80.6863 438.127 94.1322 424.177 99.7737C396.474 110.949 385.173 96.3492 385.407 74.7925C385.623 55.3806 395.969 25.9114 417.85 22.9915C422.704 22.3413 427.643 22.9332 432.206 24.7118C436.769 26.4904 440.806 29.3975 443.939 33.1611C447.073 36.9247 449.2 41.4218 450.122 46.2315C451.044 51.0411 450.731 56.0061 449.212 60.6617Z" fill="#FFB573"/>
<path d="M435.964 76.4146C427.727 72.8098 430.215 70.3044 430.215 70.3044C430.215 70.3044 436.884 62.8786 437.947 58.5528C439.01 54.227 432.54 44.9808 434.829 40.1323C437.118 35.2839 461.306 32.9227 471.562 45.3052C469.158 45.834 466.705 46.1 464.244 46.0982C466.312 48.3775 467.644 51.228 468.065 54.2767C468.487 57.3254 467.978 60.4303 466.605 63.185C461.883 73.1522 444.742 80.3618 435.964 76.4146Z" fill="#E0E0E0"/>
<path d="M391.175 78.5052L412.461 78.8296C412.461 78.8296 409.451 83.9665 400.511 84.7595C391.571 85.5526 391.175 78.5052 391.175 78.5052Z" fill="#263238"/>
<path d="M391.607 78.5052C392.274 79.875 394.293 81.9298 400.403 81.3891C403.735 81.179 406.991 80.2961 409.973 78.7936C406.206 78.7576 398.654 78.6314 391.607 78.5052Z" fill="white"/>
<path opacity="0.2" d="M421.527 57.9218C424.026 57.4294 426.619 57.9479 428.736 59.3637C426.263 59.3516 423.815 58.862 421.527 57.9218Z" fill="black"/>
<path opacity="0.2" d="M421.293 59.6703C422.449 59.6878 423.588 59.9564 424.631 60.4574C425.673 60.9585 426.595 61.68 427.331 62.5722C425.135 62.0453 423.076 61.056 421.293 59.6703Z" fill="black"/>
<path opacity="0.2" d="M393.464 51.1807C393.464 51.1807 392.076 48.9277 390.652 49.8289C391.009 50.2279 391.441 50.5527 391.923 50.7846C392.406 51.0166 392.929 51.1512 393.464 51.1807Z" fill="black"/>
<path opacity="0.2" d="M392.977 52.7492C392.977 52.7492 391.877 50.7305 390.724 52.3166C391.005 52.618 391.375 52.8224 391.78 52.9001C392.185 52.9778 392.604 52.925 392.977 52.7492Z" fill="black"/>
<path opacity="0.2" d="M404.53 33.878C410.745 33.9332 416.913 34.9672 422.807 36.9421C416.662 36.2652 410.56 35.2422 404.53 33.878Z" fill="black"/>
<path opacity="0.2" d="M401.665 36.6895C401.665 36.6895 415.759 38.2756 422.266 42.5112C415.234 41.2108 408.337 39.2619 401.665 36.6895Z" fill="black"/>
<path d="M451.862 81.7136C450.218 83.7336 448.192 85.41 445.901 86.647C443.609 87.884 441.096 88.6575 438.506 88.9232C431.53 89.5901 429.223 83.0474 432.143 77.1175C434.757 71.7103 441.552 64.9874 448.058 67.0781C454.565 69.1689 455.863 76.6489 451.862 81.7136Z" fill="#FFB573"/>
<path d="M415.868 57.6332C415.453 59.2914 414.245 60.4089 413.164 60.1385C412.083 59.8682 411.542 58.3361 411.956 56.6239C412.371 54.9116 413.579 53.8482 414.66 54.1365C415.741 54.4249 416.282 55.993 415.868 57.6332Z" fill="#263238"/>
<path d="M398.258 53.4701C397.844 55.1283 396.636 56.2458 395.555 55.9574C394.473 55.669 393.932 54.155 394.347 52.4607C394.762 50.7665 395.969 49.685 397.051 49.9734C398.132 50.2618 398.673 51.8119 398.258 53.4701Z" fill="#263238"/>
<path d="M403.629 56.2275L400.187 70.16C400.187 70.16 394.563 70.16 392.022 66.9337C395.663 60.2108 403.629 56.2275 403.629 56.2275Z" fill="#ED893E"/>
<path d="M422.698 53.5779C422.858 53.6216 423.026 53.6216 423.185 53.5779C423.308 53.5286 423.42 53.4551 423.514 53.3618C423.609 53.2684 423.683 53.1571 423.734 53.0344C423.784 52.9117 423.809 52.7801 423.808 52.6475C423.807 52.5148 423.779 52.3838 423.726 52.2622C423.14 50.7746 422.208 49.4479 421.008 48.3917C419.807 47.3355 418.373 46.5801 416.823 46.188C416.689 46.1555 416.55 46.1506 416.414 46.1736C416.279 46.1967 416.149 46.2472 416.034 46.3222C415.918 46.3971 415.82 46.4948 415.743 46.6093C415.667 46.7239 415.615 46.8528 415.59 46.9881C415.566 47.1235 415.569 47.2625 415.6 47.3965C415.631 47.5305 415.689 47.6568 415.771 47.7675C415.853 47.8783 415.956 47.9712 416.075 48.0405C416.194 48.1099 416.326 48.1541 416.462 48.1707C417.681 48.5036 418.804 49.1171 419.743 49.9621C420.682 50.8072 421.41 51.8603 421.869 53.0372C421.948 53.192 422.066 53.3235 422.212 53.4184C422.357 53.5133 422.525 53.5683 422.698 53.5779Z" fill="#E0E0E0"/>
<path d="M389.985 46.0619C390.146 46.1011 390.314 46.1003 390.474 46.0594C390.634 46.0186 390.782 45.939 390.904 45.8276C391.796 44.9422 392.885 44.28 394.081 43.8947C395.278 43.5095 396.548 43.4122 397.789 43.6106C397.916 43.6426 398.048 43.6487 398.177 43.6286C398.306 43.6085 398.43 43.5626 398.541 43.4937C398.652 43.4247 398.748 43.3341 398.823 43.2272C398.898 43.1203 398.951 42.9994 398.979 42.8716C399.039 42.6136 398.995 42.3425 398.857 42.1166C398.718 41.8906 398.497 41.7281 398.24 41.664C396.68 41.3815 395.075 41.478 393.56 41.9453C392.045 42.4127 390.664 43.2373 389.534 44.3496C389.346 44.5388 389.24 44.7947 389.24 45.0615C389.24 45.3284 389.346 45.5844 389.534 45.7735C389.656 45.9077 389.812 46.0072 389.985 46.0619Z" fill="#E0E0E0"/>
<path d="M282.922 108.047C292.746 101.955 291.736 91.6087 293.466 83.3718C293.773 81.9659 290.565 79.9112 288.672 81.6775C287.42 82.6675 286.379 83.8986 285.611 85.2979C284.844 86.6973 284.364 88.2365 284.202 89.8244C280.597 90.3651 271.423 95.3397 272.865 105.451C275.787 107.517 279.365 108.44 282.922 108.047Z" fill="#FFB573"/>
<path d="M398.24 72.305C398.24 72.305 397.267 75.9098 400.133 76.6849C402.998 77.4599 410.424 73.3144 416.534 77.2796C414.39 74.2516 407.667 69.9259 398.24 72.305Z" fill="#E0E0E0"/>
<path d="M395.158 71.7104C395.158 71.7104 394.671 75.0448 392.166 75.3152C389.66 75.5855 385.317 71.0976 379.188 73.9634C381.346 72.0815 384.004 70.8667 386.839 70.4668C389.674 70.0668 392.564 70.4989 395.158 71.7104Z" fill="#E0E0E0"/>
<path d="M388.579 139.769C412.01 137.48 452.582 116.337 434.234 109.596C422.68 118.771 403.269 122.43 394.13 122.448C390.742 119.185 389.679 110.083 393.77 105.307C384.199 104.496 372.177 123.817 388.579 139.769Z" fill="#FAFAFA"/>
<path d="M394.13 122.448C402.638 116.59 429.584 102.369 437.136 102.495C438.022 105.418 438.165 108.515 437.55 111.507C437.55 111.507 427.601 122.394 394.13 122.448Z" fill="#E0E0E0"/>
<path d="M394.131 122.448C394.131 122.448 395.446 104.081 393.788 100.206C392.393 100.749 391.162 101.644 390.215 102.803C389.268 103.962 388.636 105.346 388.381 106.821C388.381 106.821 390.147 119.636 394.131 122.448Z" fill="#E0E0E0"/>
<path d="M458.044 39.5914C445.841 41.0513 409.685 37.6448 397.862 24.0187C386.038 10.3925 394.653 1.14622 407.306 9.0227C407.306 9.0227 398.907 -2.40451 412.407 0.461307C425.15 3.16491 440.236 25.2984 459.395 24.3611C475.707 23.5501 470.102 38.2036 458.044 39.5914Z" fill="#E0E0E0"/>
<path d="M452.348 88.5625C446.67 93.1586 439.19 93.3208 435.64 88.941C432.089 84.5611 433.837 77.2795 439.479 72.7194C445.12 68.1593 452.636 67.9611 456.187 72.3409C459.738 76.7207 458.008 83.9664 452.348 88.5625Z" fill="#263238"/>
<path d="M405.342 95.592C404.693 95.3458 404.127 94.9228 403.706 94.3711C403.286 93.8194 403.029 93.1609 402.963 92.4704C402.898 91.7799 403.027 91.0849 403.337 90.4641C403.646 89.8434 404.124 89.3218 404.714 88.9584C405.305 88.595 405.986 88.4043 406.68 88.408C407.373 88.4118 408.052 88.6097 408.639 88.9794C409.226 89.3491 409.697 89.8758 410 90.4998C410.303 91.1238 410.425 91.8201 410.352 92.5099C410.083 93.5751 409.409 94.4931 408.473 95.0687C407.537 95.6444 406.414 95.8321 405.342 95.592Z" fill="#263238"/>
<path d="M451.97 76.4862C451.655 76.4842 451.345 76.41 451.064 76.2694C450.783 76.1287 450.538 75.9254 450.347 75.6751C450.186 75.4645 450.069 75.2242 450 74.968C449.932 74.7118 449.915 74.4446 449.951 74.1819C449.986 73.9191 450.072 73.6658 450.205 73.4365C450.338 73.2072 450.515 73.0063 450.726 72.8454C455.286 69.3668 458.062 60.7152 457.665 51.2166C457.413 45.1966 455.304 30.2187 441.444 21.3689C441.219 21.2269 441.024 21.042 440.871 20.8247C440.717 20.6074 440.608 20.3621 440.55 20.1027C440.491 19.8433 440.484 19.5748 440.529 19.3128C440.574 19.0507 440.671 18.8 440.813 18.5752C440.955 18.3503 441.14 18.1556 441.357 18.0022C441.574 17.8488 441.819 17.7397 442.079 17.6811C442.338 17.6226 442.607 17.6157 442.869 17.6608C443.131 17.706 443.382 17.8023 443.606 17.9443C454.529 24.9016 461.144 36.9777 461.739 51.0544C462.189 61.8688 458.855 71.6738 453.213 75.9816C452.869 76.288 452.43 76.4662 451.97 76.4862Z" fill="#263238"/>
<path d="M415.381 95.5919C412.421 95.5877 409.465 95.389 406.531 94.9971C406.398 94.9815 406.27 94.9396 406.153 94.8739C406.036 94.8082 405.934 94.7199 405.852 94.6143C405.77 94.5086 405.709 94.3876 405.674 94.2584C405.639 94.1292 405.63 93.9943 405.648 93.8616C405.688 93.5983 405.829 93.361 406.041 93.1996C406.253 93.0382 406.519 92.9653 406.783 92.9964C428.412 95.8262 441.335 86.9404 441.462 86.8502C441.682 86.6949 441.954 86.6332 442.219 86.6789C442.485 86.7245 442.721 86.8737 442.877 87.0936C443.032 87.3134 443.094 87.586 443.048 87.8514C443.002 88.1167 442.853 88.3531 442.633 88.5084C442.165 88.8509 432.396 95.5919 415.381 95.5919Z" fill="#263238"/>
<path d="M356.929 242.866V239.694H355.469L356.226 235.602H353.324L352.585 239.694H350.26L351.017 235.602H348.043L347.539 238.396V252.959H347.917L348.656 248.94H350.963L350.224 252.959H353.162L353.901 248.94H356.929V245.768H354.37L354.91 242.866H356.929ZM351.522 245.768H349.233L349.774 242.866H352.045L351.522 245.768Z" fill="white"/>
<path d="M368.104 235.584V252.689H363.814V241.478C363.199 242.021 362.528 242.498 361.814 242.902C361.027 243.313 360.207 243.657 359.362 243.929V240.072C360.591 239.694 361.736 239.082 362.733 238.27C363.519 237.521 364.134 236.611 364.535 235.602L368.104 235.584Z" fill="white"/>
<path d="M522.461 264.134H6.3623V278.175H522.461V264.134Z" fill="#407BFF"/>
<path opacity="0.5" d="M522.461 264.134H6.3623V278.175H522.461V264.134Z" fill="white"/>
<path opacity="0.5" d="M522.461 264.134H404.945V278.175H522.461V264.134Z" fill="white"/>
<path d="M402.872 278.157H404.927V264.116H402.872V278.157Z" fill="white"/>
<path d="M513.684 278.175L529.256 539.577H523.074L504.383 287.511H423.005L404.332 539.577H398.15L413.705 278.175H513.684Z" fill="#407BFF"/>
<path opacity="0.5" d="M513.684 278.175L529.256 539.577H523.074L504.383 287.511H423.005L404.332 539.577H398.15L413.705 278.175H513.684Z" fill="white"/>
<path d="M115.534 278.175L131.107 539.577H124.924L106.251 287.511H24.8551L6.18223 539.577H0L15.5727 278.175H115.534Z" fill="#407BFF"/>
<path opacity="0.2" d="M115.534 278.175L131.107 539.577H124.924L106.251 287.511H24.8551L6.18223 539.577H0L15.5727 278.175H115.534Z" fill="white"/>
<path d="M239.701 227.762H49.6198L32.3708 112.462H222.47L239.701 227.762Z" fill="#407BFF"/>
<path opacity="0.3" d="M133.882 227.762H160.035L153.781 174.627L145.706 197.013L133.882 227.762Z" fill="black"/>
<path opacity="0.3" d="M239.701 227.762H237.52L220.289 112.462H222.47L239.701 227.762Z" fill="black"/>
<path d="M170.759 259.25H119.031V264.134H175.229L170.759 259.25Z" fill="#407BFF"/>
<path opacity="0.3" d="M170.759 259.25H119.031V264.134H175.229L170.759 259.25Z" fill="black"/>
<path d="M125.735 193.697L125.014 199.014H122.852C121.78 199.016 120.743 199.397 119.925 200.089C119.107 200.782 118.56 201.742 118.382 202.799L113.93 229.961C113.823 230.608 113.857 231.27 114.032 231.902C114.206 232.534 114.515 233.121 114.939 233.622C115.362 234.122 115.89 234.525 116.484 234.801C117.078 235.078 117.726 235.222 118.382 235.224H120.184V237.405H108.198V193.697H125.735Z" fill="#407BFF"/>
<path opacity="0.3" d="M125.735 193.697L125.014 199.014H122.852C121.78 199.016 120.743 199.397 119.925 200.089C119.107 200.782 118.56 201.742 118.382 202.799L113.93 229.961C113.823 230.608 113.857 231.27 114.032 231.902C114.206 232.534 114.515 233.121 114.939 233.622C115.362 234.122 115.89 234.525 116.484 234.801C117.078 235.078 117.726 235.222 118.382 235.224H120.184V237.405H108.198V193.697H125.735Z" fill="black"/>
<path d="M108.198 170.121L92.7515 264.134H140.461L155.908 170.121H108.198ZM134.639 204.276L130.169 231.421C129.998 232.479 129.457 233.443 128.642 234.139C127.826 234.836 126.79 235.22 125.717 235.224H116.507C115.851 235.221 115.203 235.077 114.608 234.801C114.013 234.524 113.484 234.122 113.06 233.622C112.635 233.122 112.323 232.535 112.147 231.903C111.97 231.271 111.933 230.608 112.037 229.961L116.507 202.798C116.682 201.74 117.228 200.778 118.047 200.085C118.866 199.392 119.904 199.012 120.977 199.013H130.169C130.831 199.004 131.487 199.141 132.09 199.413C132.693 199.685 133.229 200.086 133.661 200.588C134.092 201.09 134.408 201.68 134.587 202.318C134.765 202.955 134.801 203.624 134.693 204.276H134.639Z" fill="#407BFF"/>
<path opacity="0.3" d="M140.515 264.134L138.208 263.828L153.6 170.121H155.961L140.515 264.134Z" fill="black"/>
<path opacity="0.3" d="M133.972 147.05H131.215L127.628 123.078H130.386L133.972 147.05Z" fill="black"/>
<path opacity="0.3" d="M139.109 147.05H136.333L132.765 123.078H135.522L139.109 147.05Z" fill="black"/>
<path opacity="0.3" d="M144.246 147.05H141.47L137.884 123.078H140.659L144.246 147.05Z" fill="black"/>
<path opacity="0.3" d="M149.383 147.05H146.607L143.021 123.078H145.796L149.383 147.05Z" fill="black"/>
<path opacity="0.3" d="M154.502 147.05H151.744L148.157 123.078H150.933L154.502 147.05Z" fill="black"/>
<path opacity="0.3" d="M128.835 147.05H126.078L122.491 123.078H125.249L128.835 147.05Z" fill="black"/>
<path opacity="0.3" d="M123.699 147.05H120.941L117.354 123.078H120.13L123.699 147.05Z" fill="black"/>
<path opacity="0.3" d="M118.562 147.05H115.804L112.217 123.078H114.993L118.562 147.05Z" fill="black"/>
<path opacity="0.3" d="M113.443 147.05H110.667L107.081 123.078H109.856L113.443 147.05Z" fill="black"/>
</svg>
