<svg width="567" height="540" viewBox="0 0 567 540" fill="none" xmlns="http://www.w3.org/2000/svg">
<path d="M373.691 443.473H356.568V486.748H373.691V443.473Z" fill="#E0E0E0"/>
<path d="M377.08 471.861H353.181L351.522 513.532C351.479 514.594 351.65 515.653 352.026 516.646C352.402 517.64 352.976 518.547 353.711 519.313C354.447 520.079 355.33 520.688 356.308 521.104C357.285 521.52 358.337 521.734 359.399 521.733H370.952C372.013 521.732 373.062 521.516 374.038 521.099C375.013 520.682 375.894 520.072 376.628 519.306C377.362 518.54 377.933 517.634 378.308 516.642C378.683 515.65 378.854 514.592 378.811 513.532L377.08 471.861Z" fill="#263238"/>
<path d="M424.628 520.598C424.124 520.596 423.629 520.47 423.186 520.231C422.742 519.992 422.365 519.648 422.086 519.228C419.715 515.61 416.479 512.641 412.671 510.589C408.863 508.537 404.603 507.467 400.277 507.476H329.984C325.658 507.467 321.398 508.537 317.59 510.589C313.782 512.641 310.546 515.61 308.175 519.228C307.718 519.873 307.028 520.315 306.251 520.462C305.475 520.608 304.671 520.446 304.011 520.011C303.352 519.575 302.887 518.901 302.715 518.129C302.544 517.357 302.679 516.549 303.092 515.875C306.027 511.431 310.022 507.786 314.716 505.269C319.411 502.751 324.657 501.441 329.984 501.456H400.277C405.61 501.428 410.865 502.729 415.569 505.24C420.274 507.751 424.279 511.394 427.223 515.839C427.526 516.298 427.698 516.831 427.723 517.38C427.747 517.929 427.623 518.475 427.362 518.959C427.102 519.443 426.715 519.848 426.243 520.13C425.771 520.412 425.232 520.561 424.682 520.562L424.628 520.598Z" fill="#263238"/>
<path d="M393.987 446.501H336.31C333.192 446.503 330.168 445.427 327.751 443.457C325.334 441.486 323.672 438.742 323.045 435.687L321.242 426.855H409.127L407.325 435.687C406.695 438.754 405.022 441.508 402.59 443.479C400.158 445.451 397.118 446.519 393.987 446.501Z" fill="#263238"/>
<path d="M238.926 423.196H308.066C334.271 423.113 359.57 413.594 379.331 396.382C399.091 379.17 411.991 355.417 415.669 329.471L434.63 195.949H556.797L537.836 329.471C534.158 355.417 521.258 379.17 501.497 396.382C481.737 413.594 456.438 423.113 430.232 423.196H238.926Z" fill="#263238"/>
<path d="M238.927 433.325C237.559 433.383 236.194 433.163 234.914 432.68C233.634 432.196 232.464 431.459 231.476 430.512C230.489 429.565 229.702 428.428 229.165 427.169C228.628 425.91 228.352 424.555 228.352 423.187C228.352 421.818 228.628 420.464 229.165 419.205C229.702 417.946 230.489 416.809 231.476 415.862C232.464 414.915 233.634 414.177 234.914 413.694C236.194 413.21 237.559 412.991 238.927 413.048H308.265C331.98 412.857 354.841 404.171 372.698 388.565C390.556 372.959 402.228 351.469 405.594 327.993L424.556 194.471C424.902 192.054 426.107 189.842 427.951 188.24C429.794 186.638 432.153 185.753 434.595 185.748H556.762C558.214 185.749 559.649 186.062 560.97 186.665C562.291 187.268 563.467 188.148 564.419 189.245C565.37 190.342 566.076 191.631 566.487 193.024C566.898 194.416 567.005 195.881 566.801 197.319L547.84 330.841C539.549 389.257 488.973 433.325 430.197 433.325H238.927ZM443.445 206.043L425.709 330.841C423.336 347.404 417.512 363.285 408.613 377.455C399.715 391.626 387.941 403.77 374.052 413.102H430.233C453.986 412.968 476.901 404.309 494.807 388.702C512.713 373.095 524.42 351.577 527.797 328.065L545.118 206.097L443.445 206.043Z" fill="#263238"/>
<path opacity="0.2" d="M361.075 433.325C359.708 433.383 358.343 433.163 357.062 432.68C355.782 432.196 354.613 431.459 353.625 430.512C352.637 429.564 351.851 428.427 351.314 427.168C350.777 425.91 350.5 424.555 350.5 423.187C350.5 421.818 350.777 420.464 351.314 419.205C351.851 417.946 352.637 416.809 353.625 415.862C354.613 414.914 355.782 414.177 357.062 413.693C358.343 413.21 359.708 412.99 361.075 413.048H430.233C453.986 412.914 476.901 404.255 494.807 388.648C512.713 373.041 524.42 351.523 527.797 328.011L546.758 194.489C546.897 193.13 547.309 191.814 547.969 190.618C548.629 189.422 549.524 188.372 550.6 187.531C551.675 186.689 552.91 186.073 554.229 185.72C555.549 185.367 556.926 185.284 558.278 185.476C559.63 185.667 560.93 186.13 562.099 186.836C563.268 187.542 564.283 188.477 565.082 189.585C565.881 190.692 566.448 191.95 566.75 193.282C567.052 194.614 567.081 195.993 566.837 197.337L547.876 330.859C539.585 389.274 489.009 433.343 430.233 433.343L361.075 433.325Z" fill="white"/>
<path d="M314.52 520.327C314.52 518.602 314.008 516.915 313.049 515.481C312.091 514.046 310.728 512.928 309.134 512.268C307.54 511.608 305.786 511.435 304.094 511.771C302.402 512.108 300.847 512.939 299.627 514.159C298.407 515.379 297.576 516.933 297.24 518.625C296.903 520.318 297.076 522.072 297.736 523.666C298.397 525.26 299.515 526.622 300.949 527.581C302.384 528.539 304.071 529.051 305.796 529.051C308.11 529.051 310.328 528.132 311.964 526.496C313.6 524.86 314.52 522.641 314.52 520.327Z" fill="#263238"/>
<path d="M433.189 520.327C433.189 518.602 432.678 516.915 431.719 515.481C430.761 514.046 429.398 512.928 427.804 512.268C426.21 511.608 424.456 511.435 422.764 511.771C421.072 512.108 419.517 512.939 418.297 514.159C417.077 515.379 416.246 516.933 415.91 518.625C415.573 520.318 415.746 522.072 416.406 523.666C417.067 525.26 418.185 526.622 419.619 527.581C421.054 528.539 422.74 529.051 424.466 529.051C426.779 529.051 428.998 528.132 430.634 526.496C432.27 524.86 433.189 522.641 433.189 520.327Z" fill="#263238"/>
<path d="M424.628 520.598C424.124 520.596 423.629 520.47 423.186 520.231C422.742 519.992 422.365 519.648 422.086 519.228C419.715 515.61 416.479 512.641 412.671 510.589C408.863 508.537 404.603 507.467 400.277 507.476H329.984C325.658 507.467 321.398 508.537 317.59 510.589C313.782 512.641 310.546 515.61 308.175 519.228C307.718 519.873 307.028 520.315 306.251 520.462C305.475 520.608 304.671 520.446 304.011 520.011C303.352 519.575 302.887 518.901 302.715 518.129C302.544 517.357 302.679 516.549 303.092 515.875C306.027 511.431 310.022 507.786 314.716 505.269C319.411 502.751 324.657 501.441 329.984 501.456H400.277C405.61 501.428 410.865 502.729 415.569 505.24C420.274 507.751 424.279 511.394 427.223 515.839C427.526 516.298 427.698 516.831 427.723 517.38C427.747 517.929 427.623 518.475 427.362 518.959C427.102 519.443 426.715 519.848 426.243 520.13C425.771 520.412 425.232 520.561 424.682 520.562L424.628 520.598Z" fill="#263238"/>
<path d="M394.888 525.734C394.245 525.729 393.619 525.524 393.099 525.145C392.578 524.767 392.189 524.236 391.986 523.625C389.787 516.938 386.146 512.595 382.704 512.595H347.557C344.114 512.595 340.473 516.938 338.275 523.625C338.001 524.363 337.452 524.966 336.743 525.308C336.034 525.65 335.22 525.705 334.472 525.46C333.724 525.215 333.1 524.69 332.73 523.996C332.36 523.301 332.274 522.49 332.489 521.733C335.625 512.198 341.249 506.521 347.557 506.521H382.704C389.012 506.521 394.636 512.198 397.772 521.733C398.022 522.5 397.958 523.335 397.593 524.055C397.228 524.775 396.592 525.32 395.825 525.572C395.524 525.678 395.207 525.733 394.888 525.734Z" fill="#263238"/>
<path d="M344.096 525.464C344.096 523.739 343.584 522.052 342.625 520.618C341.667 519.183 340.304 518.065 338.71 517.405C337.116 516.744 335.362 516.572 333.67 516.908C331.978 517.245 330.424 518.076 329.204 519.296C327.984 520.516 327.153 522.07 326.816 523.762C326.479 525.455 326.652 527.209 327.312 528.803C327.973 530.397 329.091 531.759 330.525 532.718C331.96 533.676 333.647 534.188 335.372 534.188C337.686 534.188 339.905 533.269 341.541 531.633C343.177 529.997 344.096 527.778 344.096 525.464Z" fill="#263238"/>
<path d="M403.611 525.464C403.611 523.739 403.1 522.052 402.141 520.618C401.183 519.183 399.82 518.065 398.226 517.405C396.632 516.744 394.878 516.572 393.186 516.908C391.494 517.245 389.939 518.076 388.719 519.296C387.499 520.516 386.668 522.07 386.332 523.762C385.995 525.455 386.168 527.209 386.828 528.803C387.488 530.397 388.607 531.759 390.041 532.718C391.476 533.676 393.162 534.188 394.888 534.188C397.201 534.188 399.42 533.269 401.056 531.633C402.692 529.997 403.611 527.778 403.611 525.464Z" fill="#263238"/>
<path d="M177.375 405.749L208.07 419.068L190.479 439.598L164.812 428.477L177.375 405.749Z" fill="#FFB573"/>
<path opacity="0.2" d="M177.393 405.749L208.088 419.087L198.229 430.586L170.346 418.492L177.393 405.749Z" fill="black"/>
<path d="M194.84 450.286L191.379 449.493C190.362 449.262 189.418 448.784 188.629 448.102C187.84 447.42 187.231 446.555 186.855 445.582L184.638 446.609C183.357 447.215 181.91 447.374 180.529 447.06L133.18 436.245C133.306 431.992 137.055 427.233 137.055 427.233C137.055 427.233 158.125 430.838 164.217 425.81C164.457 425.641 164.74 425.543 165.033 425.527C165.326 425.511 165.618 425.578 165.875 425.719C169.696 427.522 184.764 434.029 194.425 433.109C194.724 433.086 195.025 433.133 195.303 433.246C195.581 433.359 195.829 433.535 196.027 433.761C196.224 433.987 196.367 434.256 196.442 434.546C196.518 434.837 196.525 435.141 196.462 435.434C195.563 440.339 195.021 445.303 194.84 450.286Z" fill="#263238"/>
<path d="M165.047 427.179C164.978 427.179 164.911 427.164 164.849 427.137C164.787 427.109 164.731 427.068 164.686 427.017C164.488 426.801 159.675 421.61 159.82 418.672C159.827 418.378 159.895 418.089 160.019 417.822C160.143 417.555 160.321 417.317 160.541 417.122C160.788 416.873 161.108 416.71 161.455 416.655C161.801 416.6 162.157 416.656 162.469 416.816C164.542 417.861 165.84 423.647 165.569 426.729C165.556 426.825 165.518 426.916 165.457 426.992C165.397 427.068 165.317 427.127 165.227 427.161L165.047 427.179ZM161.73 417.645C161.631 417.65 161.533 417.675 161.444 417.719C161.354 417.762 161.274 417.823 161.207 417.897C161.088 417.999 160.994 418.126 160.931 418.27C160.869 418.414 160.84 418.57 160.847 418.726C160.757 420.529 163.046 423.575 164.578 425.377C164.47 422.403 163.334 418.384 162.019 417.717C161.928 417.674 161.83 417.649 161.73 417.645Z" fill="#263238"/>
<path d="M161.314 427.395C159.304 427.563 157.288 427.144 155.511 426.188C155.276 426.014 155.081 425.792 154.938 425.537C154.795 425.283 154.708 425.001 154.682 424.71C154.612 424.354 154.66 423.985 154.82 423.66C154.979 423.334 155.241 423.07 155.565 422.907C157.62 421.862 163.063 424.223 165.388 426.26C165.462 426.324 165.516 426.408 165.543 426.502C165.57 426.596 165.569 426.696 165.541 426.789C165.512 426.883 165.457 426.966 165.382 427.029C165.307 427.092 165.215 427.131 165.118 427.143C163.855 427.296 162.586 427.381 161.314 427.395ZM156.863 423.682C156.554 423.672 156.247 423.727 155.961 423.844C155.781 423.953 155.583 424.115 155.637 424.62C155.656 424.773 155.705 424.92 155.782 425.053C155.86 425.187 155.964 425.303 156.088 425.395C157.457 426.494 161.314 426.476 163.676 426.296C161.651 424.883 159.312 423.986 156.863 423.682Z" fill="#263238"/>
<path d="M453.052 309.176L439.84 336.699C420.447 377.325 372.665 397.746 334.508 381.759C312.23 372.422 287.916 352.686 271.424 343.656C257.275 374.675 230.78 408.885 210.503 432.695L169.48 412.057C184.801 376.892 208.647 321.937 223.787 286.322C226.483 280.006 230.904 274.578 236.543 270.66C242.183 266.742 248.812 264.493 255.671 264.17C323.874 262.332 453.052 309.176 453.052 309.176Z" fill="#3C464C"/>
<path d="M410.696 24.2894C403 21.748 394.222 26.6325 394.114 43.8274C394.006 61.0222 409.632 70.2325 416.229 48.0089C420.195 34.5991 416.409 26.1458 410.696 24.2894Z" fill="#E0E0E0"/>
<path d="M253.689 495.778L287.105 494.21L280.382 520.381L252.445 521.715L253.689 495.778Z" fill="#FFB573"/>
<path opacity="0.2" d="M253.707 495.778L287.123 494.21L283.356 508.882L253.004 510.324L253.707 495.778Z" fill="black"/>
<path d="M285.501 534.188H281.896C280.854 534.186 279.828 533.927 278.91 533.433C277.991 532.94 277.209 532.227 276.633 531.358L274.705 532.872C273.584 533.736 272.209 534.205 270.794 534.206H222.273C221.444 530.042 224.075 524.599 224.075 524.599C224.075 524.599 245.416 523.463 250.228 517.209C250.402 516.97 250.639 516.784 250.913 516.673C251.187 516.561 251.487 516.529 251.778 516.578C255.906 517.443 272.055 520.508 281.265 517.461C281.55 517.371 281.852 517.349 282.147 517.397C282.442 517.444 282.721 517.561 282.963 517.736C283.205 517.911 283.403 518.141 283.54 518.406C283.677 518.671 283.75 518.965 283.753 519.264C283.975 524.274 284.559 529.262 285.501 534.188Z" fill="#263238"/>
<path d="M251.218 518.273C251.114 518.278 251.012 518.246 250.93 518.183C250.678 518.02 244.856 514.091 244.333 511.117C244.275 510.831 244.277 510.536 244.339 510.25C244.401 509.965 244.522 509.695 244.694 509.459C244.878 509.162 245.151 508.93 245.475 508.797C245.799 508.664 246.156 508.637 246.496 508.72C248.731 509.297 251.29 514.632 251.705 517.732C251.715 517.832 251.697 517.932 251.653 518.021C251.608 518.111 251.538 518.186 251.453 518.237C251.38 518.271 251.298 518.284 251.218 518.273ZM246.081 509.675C245.962 509.688 245.848 509.729 245.747 509.795C245.647 509.861 245.564 509.95 245.505 510.054C245.414 510.184 245.353 510.331 245.325 510.487C245.297 510.642 245.303 510.802 245.342 510.955C245.649 512.758 248.551 515.191 250.461 516.615C249.704 513.731 247.686 510.072 246.262 509.711L246.081 509.675Z" fill="#263238"/>
<path d="M243.992 519.805C243.238 519.837 242.487 519.701 241.793 519.408C241.526 519.288 241.288 519.114 241.092 518.897C240.897 518.679 240.749 518.424 240.657 518.146C240.527 517.819 240.502 517.459 240.586 517.116C240.67 516.774 240.859 516.466 241.126 516.236C242.928 514.758 248.732 515.857 251.454 517.317C251.537 517.368 251.606 517.439 251.654 517.525C251.701 517.61 251.725 517.706 251.724 517.804C251.717 517.902 251.681 517.996 251.62 518.073C251.559 518.151 251.476 518.208 251.382 518.236C249.008 519.116 246.518 519.644 243.992 519.805ZM243.992 516.524C243.226 516.462 242.46 516.631 241.793 517.011C241.631 517.155 241.486 517.353 241.631 517.84C241.685 517.986 241.769 518.119 241.877 518.231C241.986 518.343 242.117 518.431 242.261 518.489C243.848 519.264 247.578 518.399 249.849 517.696C247.972 516.971 245.985 516.575 243.974 516.524H243.992Z" fill="#263238"/>
<path d="M472.157 298.271L471.941 327.344C471.598 370.223 435.244 408.452 391.842 411.732C366.5 413.535 332.255 414.184 312.536 413.787C309.671 443.815 300.28 479.196 290.908 504.826L248.227 501.852C247.109 465.462 245.469 413.859 244.099 379.632C243.559 366.294 251.832 353.173 264.556 346.9C328.452 315.394 472.157 298.271 472.157 298.271Z" fill="#3C464C"/>
<path opacity="0.1" d="M281.715 505.205C281.62 505.223 281.522 505.223 281.426 505.205C281.171 505.126 280.957 504.949 280.832 504.713C280.707 504.476 280.681 504.199 280.76 503.944C287.212 482.729 298.784 416.509 299.342 386.103C299.36 385.813 299.489 385.542 299.703 385.346C299.812 385.255 299.939 385.187 300.075 385.147C300.212 385.107 300.355 385.095 300.496 385.111C362.841 393.402 405.035 390.519 422.608 376.965C453.411 353.029 452.961 314.277 445.156 294.054C445.058 293.803 445.064 293.524 445.172 293.277C445.28 293.03 445.482 292.837 445.733 292.739C445.984 292.641 446.264 292.646 446.511 292.754C446.757 292.863 446.951 293.064 447.049 293.315C455.07 314.079 455.52 353.912 423.852 378.533C405.72 392.609 364.517 395.547 301.289 387.238C300.514 418.258 289.033 483.45 282.634 504.484C282.577 504.686 282.457 504.865 282.292 504.995C282.127 505.124 281.925 505.198 281.715 505.205Z" fill="black"/>
<path opacity="0.2" d="M269.764 347.225C262.441 361.902 253.955 375.97 244.387 389.293C244.603 395.295 244.837 401.657 245.072 408.272C260.176 384.427 269.783 347.189 269.783 347.189L269.764 347.225Z" fill="black"/>
<path d="M357.777 169.779L356.173 170.806L354.875 171.599L352.352 173.059C350.676 174.015 349 174.862 347.341 175.691C344.007 177.385 340.582 178.845 337.104 180.233C330.041 183.031 322.734 185.167 315.277 186.613C311.474 187.352 307.562 187.875 303.597 188.253C299.543 188.564 295.475 188.63 291.413 188.452C287.206 188.283 283.019 187.795 278.886 186.992C274.638 186.13 270.467 184.925 266.414 183.387L264.755 182.774C262.247 181.853 259.983 180.366 258.141 178.43C254.216 174.305 251.217 169.389 249.345 164.011C247.865 159.755 246.974 155.316 246.695 150.818C246.252 143.559 246.859 136.274 248.498 129.189C249.927 122.918 251.868 116.775 254.302 110.822C255.491 107.921 256.789 105.091 258.159 102.315L260.304 98.1696C261.097 96.7817 261.818 95.5381 262.737 93.97C264.053 91.7533 266.064 90.0333 268.458 89.0775C270.852 88.1216 273.495 87.9834 275.976 88.6843C278.457 89.3851 280.636 90.8858 282.176 92.9532C283.716 95.0205 284.53 97.5386 284.492 100.116V101.919C284.492 103.018 284.311 104.478 284.239 105.776L283.933 109.795C283.717 112.463 283.59 115.202 283.464 117.762C283.338 120.321 283.284 122.989 283.266 125.512C283.248 128.035 283.266 130.541 283.428 132.92C283.547 137.118 284.195 141.284 285.357 145.32C285.686 146.495 286.237 147.596 286.979 148.565C287.484 149.087 287.718 148.835 287.448 148.24L279.175 143.284C283.24 144.019 287.384 144.231 291.503 143.914C293.76 143.75 296.005 143.449 298.226 143.013C300.515 142.617 302.858 142.13 305.219 141.481C307.58 140.832 309.942 140.075 312.339 139.282C314.736 138.489 317.115 137.48 319.548 136.543C321.982 135.605 324.289 134.47 326.65 133.388C327.803 132.848 328.957 132.271 330.056 131.712L331.678 130.883L332.436 130.505C332.598 130.414 332.976 130.198 332.85 130.306C338.084 127.001 344.418 125.91 350.456 127.274C356.495 128.638 361.744 132.345 365.05 137.579C368.355 142.813 369.446 149.147 368.082 155.185C366.719 161.224 363.012 166.473 357.777 169.779Z" fill="#FFB573"/>
<path d="M266.107 106.37L279.553 107.001C293.017 102.621 284.384 86.2912 284.384 86.2912L283.392 76.7745C283.097 75.1129 282.228 73.6076 280.937 72.5207C279.646 71.4338 278.015 70.8344 276.327 70.8266L266.937 70.3039C262.647 70.0696 258.934 72.9354 258.718 76.6484L258.195 84.9755C258.048 87.4028 258.5 89.829 259.511 92.0409L266.107 106.37Z" fill="#FFB573"/>
<path d="M380.36 110.552C374.683 102.946 356.28 104.73 345.646 116.752C341.248 116.572 324.018 132.162 310.824 135.497C297.63 138.831 288.114 154.783 291.791 163.777C298.586 180.377 303.2 188.325 315.474 189.659C327.748 190.993 343.898 183.044 356.929 173.293C369.961 163.542 390.382 124.052 380.36 110.552Z" fill="#E0E0E0"/>
<path d="M305.165 135.173C294.909 128.576 284.834 139.643 284.834 153.557C284.834 167.472 288.096 179.331 293.089 187.496C298.082 195.661 306.895 194.976 315.114 194.598C322.216 194.255 325.712 191.696 322.324 185.243C318.935 178.791 306.445 169.454 304.588 151.322C303.561 142.148 309.905 138.219 305.165 135.173Z" fill="#FAFAFA"/>
<path d="M302.533 264.135C300.334 266.406 298.748 275.201 303.218 288.377C306.3 297.515 318.43 292.955 318.43 292.955C318.43 292.955 320.557 309.519 335.661 313.07C360.552 318.91 454.439 317.342 470.39 304.959C420.356 304.436 302.533 264.135 302.533 264.135Z" fill="#FAFAFA"/>
<path d="M386.741 104.496C411.305 104.634 435.805 107.011 459.937 111.597C463.917 112.429 467.686 114.065 471.013 116.403C474.339 118.742 477.154 121.734 479.285 125.198C481.416 128.662 482.818 132.523 483.405 136.547C483.992 140.571 483.753 144.672 482.701 148.6C464.677 217.254 474.843 292.648 473.419 306.4C473.419 306.4 329.353 327.146 307.274 284.321C277.624 235.873 328.091 204.222 345.34 136.164C349.9 118.176 368.195 104.388 386.741 104.496Z" fill="#263238"/>
<path opacity="0.1" d="M386.741 104.496C411.305 104.634 435.805 107.011 459.937 111.597C463.917 112.429 467.686 114.065 471.013 116.403C474.339 118.742 477.154 121.734 479.285 125.198C481.416 128.662 482.818 132.523 483.405 136.547C483.992 140.571 483.753 144.672 482.701 148.6C464.677 217.254 474.843 292.648 473.419 306.4C473.419 306.4 329.353 327.146 307.274 284.321C277.624 235.873 328.091 204.222 345.34 136.164C349.9 118.176 368.195 104.388 386.741 104.496Z" fill="white"/>
<path opacity="0.4" d="M434.92 107.686L434.667 107.578L433.874 107.307L433.658 107.47C421.564 106.028 408.965 105.09 396.943 104.712C394.005 104.604 391.104 104.55 388.256 104.514C384.493 106.632 381.596 110.008 380.073 114.048C376.468 123.169 379.027 133.334 387.156 141.229L387.823 141.877L388.778 141.787C406.442 140.075 439.462 125.926 440.85 115.022C441.084 113.183 440.615 109.759 434.92 107.686Z" fill="#FAFAFA"/>
<path d="M486.125 158.063L487.44 160.586L488.612 162.893C489.387 164.425 490.072 165.957 490.793 167.489C492.217 170.535 493.478 173.618 494.758 176.718C497.209 182.918 499.498 189.208 501.409 195.661C502.4 198.869 503.211 202.114 504.185 205.394C505.158 208.674 505.753 211.991 506.438 215.361C507.864 222.157 508.899 229.03 509.538 235.945L509.718 237.747C509.968 240.409 509.649 243.094 508.781 245.623C507.402 249.581 505.299 253.248 502.581 256.438C500.272 259.147 497.568 261.493 494.56 263.395C490.038 266.216 485.071 268.252 479.87 269.415C472.071 271.137 464.067 271.743 456.097 271.217C449.033 270.806 442.009 269.878 435.081 268.442C431.692 267.775 428.358 266.946 425.041 266.063C421.725 265.179 418.553 264.26 415.056 262.963C412.527 262.065 410.381 260.328 408.976 258.041C407.571 255.755 406.991 253.056 407.332 250.394C407.673 247.732 408.915 245.267 410.851 243.409C412.788 241.551 415.302 240.411 417.976 240.18H418.661L427.673 239.423C430.755 239.207 433.801 238.9 436.811 238.594C439.821 238.288 442.813 237.945 445.733 237.567C448.653 237.188 451.501 236.738 454.258 236.197C459.127 235.414 463.884 234.046 468.425 232.123C470.083 231.312 471.255 230.321 471.147 230.123C471.039 229.925 470.714 230.123 470.155 230.591C469.467 231.266 468.916 232.068 468.533 232.953L467.776 242.577C466.424 237.314 465.001 232.051 463.27 226.734C462.423 224.085 461.468 221.327 460.513 218.768C459.557 216.208 458.71 213.36 457.593 210.783C455.502 205.484 453.429 200.149 451.176 194.868L447.788 186.991L444.507 179.584L444.093 178.61C441.683 173.086 441.506 166.842 443.598 161.19C445.69 155.537 449.889 150.914 455.315 148.289C460.741 145.665 466.973 145.243 472.703 147.112C478.433 148.981 483.218 152.996 486.053 158.315L486.125 158.063Z" fill="#FFB573"/>
<path d="M376.918 224.427H350.026C348.653 224.427 347.539 225.541 347.539 226.915V261.629C347.539 263.002 348.653 264.116 350.026 264.116H376.918C378.292 264.116 379.405 263.002 379.405 261.629V226.915C379.405 225.541 378.292 224.427 376.918 224.427Z" fill="#8B70E9"/>
<path d="M376.918 232.124C378.554 232.061 380.185 232.328 381.715 232.911C383.245 233.494 384.642 234.379 385.822 235.514C387.001 236.649 387.94 238.011 388.581 239.517C389.222 241.023 389.552 242.644 389.552 244.281C389.552 245.918 389.222 247.538 388.581 249.044C387.94 250.551 387.001 251.912 385.822 253.048C384.642 254.183 383.245 255.068 381.715 255.651C380.185 256.233 378.554 256.501 376.918 256.438H376.756C375.12 256.501 373.488 256.233 371.958 255.651C370.428 255.068 369.031 254.183 367.852 253.048C366.672 251.912 365.734 250.551 365.093 249.044C364.452 247.538 364.121 245.918 364.121 244.281C364.121 242.644 364.452 241.023 365.093 239.517C365.734 238.011 366.672 236.649 367.852 235.514C369.031 234.379 370.428 233.494 371.958 232.911C373.488 232.328 375.12 232.061 376.756 232.124H376.972M376.972 228.519H376.756C374.634 228.447 372.519 228.803 370.538 229.566C368.556 230.328 366.748 231.482 365.222 232.958C363.696 234.433 362.482 236.201 361.653 238.156C360.824 240.11 360.396 242.212 360.396 244.335C360.396 246.458 360.824 248.559 361.653 250.514C362.482 252.469 363.696 254.236 365.222 255.712C366.748 257.188 368.556 258.341 370.538 259.104C372.519 259.866 374.634 260.223 376.756 260.151H376.972C379.094 260.223 381.208 259.866 383.19 259.104C385.171 258.341 386.979 257.188 388.505 255.712C390.032 254.236 391.246 252.469 392.075 250.514C392.904 248.559 393.331 246.458 393.331 244.335C393.331 242.212 392.904 240.11 392.075 238.156C391.246 236.201 390.032 234.433 388.505 232.958C386.979 231.482 385.171 230.328 383.19 229.566C381.208 228.803 379.094 228.447 376.972 228.519Z" fill="#8B70E9"/>
<path d="M419.131 246.453L419.023 254.96C413.85 268.136 398.061 258.565 398.061 258.565L388.616 257.015C386.975 256.621 385.525 255.664 384.517 254.31C383.509 252.956 383.008 251.292 383.101 249.607V240.199C382.995 238.263 383.648 236.362 384.919 234.898C386.191 233.435 387.982 232.524 389.914 232.358H398.385C400.818 232.374 403.208 232.994 405.342 234.161L414.877 239.243C416.172 239.948 417.252 240.99 418.001 242.26C418.75 243.53 419.14 244.979 419.131 246.453Z" fill="#FFB573"/>
<path d="M465.541 118.717C474.878 116.914 487.17 130.739 486.918 146.798C490.27 149.628 496.074 173.221 503.5 184.648C510.926 196.076 507.105 214.208 498.381 218.335C482.16 225.959 473.364 228.699 463.415 221.381C453.465 214.064 442.038 197.031 440.38 180.863C438.037 157.162 448.977 121.835 465.541 118.717Z" fill="#E0E0E0"/>
<path d="M452.691 212.081C446.779 222.751 458.476 232.106 472.283 231.295C486.089 230.484 497.769 226.356 505.609 220.841C513.449 215.325 512.188 206.602 511.251 198.401C510.457 191.336 507.646 188.019 501.464 191.822C495.281 195.625 486.738 208.693 468.768 211.649C459.756 213.235 455.412 207.161 452.691 212.081Z" fill="#FAFAFA"/>
<path d="M384.29 113.237C386.465 109.6 389.806 106.805 393.771 105.306C395.434 101.656 395.791 97.5449 394.78 93.663L439.335 82.416C434.92 96.655 431.459 107.902 436.397 115.238C427.494 119.96 411.164 128.413 394.041 126.881C376.918 125.349 381.136 119.131 384.29 113.237Z" fill="#FFB573"/>
<path opacity="0.2" d="M395.051 95.0332L427.963 95.1233C417.04 105.451 401.233 108.623 394.42 103.739C395.361 100.936 395.578 97.9419 395.051 95.0332Z" fill="black"/>
<path d="M449.213 60.6618C442.868 80.6864 438.128 94.1323 424.177 99.7738C396.475 110.949 385.174 96.3493 385.408 74.7926C385.624 55.3808 395.97 25.9115 417.851 22.9916C422.705 22.3414 427.644 22.9333 432.207 24.7119C436.77 26.4905 440.807 29.3976 443.94 33.1612C447.074 36.9249 449.201 41.4219 450.123 46.2316C451.045 51.0412 450.732 56.0062 449.213 60.6618Z" fill="#FFB573"/>
<path d="M435.966 76.4147C427.729 72.8099 430.216 70.3046 430.216 70.3046C430.216 70.3046 436.885 62.8787 437.948 58.5529C439.012 54.2272 432.541 44.9809 434.83 40.1324C437.119 35.284 461.307 32.9228 471.563 45.3053C469.16 45.8342 466.706 46.1001 464.245 46.0984C466.313 48.3776 467.645 51.2281 468.066 54.2768C468.488 57.3255 467.979 60.4304 466.606 63.1851C461.884 73.1524 444.743 80.3619 435.966 76.4147Z" fill="#E0E0E0"/>
<path d="M391.176 78.5054L412.462 78.8298C412.462 78.8298 409.452 83.9666 400.512 84.7597C391.572 85.5528 391.176 78.5054 391.176 78.5054Z" fill="#263238"/>
<path d="M391.607 78.5054C392.274 79.8752 394.293 81.9299 400.403 81.3892C403.736 81.1792 406.992 80.2963 409.974 78.7938C406.207 78.7577 398.655 78.6315 391.607 78.5054Z" fill="white"/>
<path opacity="0.2" d="M421.527 57.9218C424.027 57.4294 426.619 57.9479 428.737 59.3637C426.263 59.3516 423.815 58.862 421.527 57.9218Z" fill="black"/>
<path opacity="0.2" d="M421.293 59.6704C422.45 59.6879 423.589 59.9564 424.631 60.4575C425.674 60.9585 426.595 61.6801 427.331 62.5723C425.135 62.0454 423.076 61.0561 421.293 59.6704Z" fill="black"/>
<path opacity="0.2" d="M393.464 51.1808C393.464 51.1808 392.076 48.9278 390.652 49.829C391.009 50.228 391.441 50.5528 391.924 50.7848C392.406 51.0167 392.93 51.1513 393.464 51.1808Z" fill="black"/>
<path opacity="0.2" d="M392.978 52.749C392.978 52.749 391.878 50.7303 390.725 52.3165C391.006 52.6179 391.376 52.8222 391.781 52.8999C392.186 52.9777 392.605 52.9248 392.978 52.749Z" fill="black"/>
<path opacity="0.2" d="M404.531 33.8779C410.746 33.9331 416.914 34.9671 422.808 36.942C416.663 36.2651 410.561 35.2421 404.531 33.8779Z" fill="black"/>
<path opacity="0.2" d="M401.664 36.6895C401.664 36.6895 415.759 38.2756 422.265 42.5112C415.233 41.2108 408.337 39.2619 401.664 36.6895Z" fill="black"/>
<path d="M451.862 81.7134C450.219 83.7333 448.193 85.4097 445.902 86.6468C443.61 87.8838 441.097 88.6573 438.506 88.923C431.531 89.5899 429.224 83.0471 432.144 77.1173C434.757 71.7101 441.552 64.9871 448.059 67.0779C454.566 69.1687 455.864 76.6486 451.862 81.7134Z" fill="#FFB573"/>
<path d="M415.867 57.633C415.453 59.2913 414.245 60.4087 413.164 60.1384C412.082 59.868 411.541 58.336 411.956 56.6237C412.37 54.9114 413.578 53.848 414.659 54.1364C415.741 54.4248 416.282 55.9929 415.867 57.633Z" fill="#263238"/>
<path d="M398.258 53.4699C397.843 55.1281 396.636 56.2456 395.554 55.9572C394.473 55.6688 393.932 54.1548 394.347 52.4605C394.761 50.7663 395.969 49.6848 397.05 49.9732C398.132 50.2616 398.672 51.8117 398.258 53.4699Z" fill="#263238"/>
<path d="M403.629 56.2275L400.186 70.1601C400.186 70.1601 394.563 70.1601 392.021 66.9338C395.662 60.2108 403.629 56.2275 403.629 56.2275Z" fill="#ED893E"/>
<path d="M422.698 53.5777C422.858 53.6215 423.026 53.6215 423.185 53.5777C423.308 53.5285 423.42 53.455 423.514 53.3616C423.609 53.2682 423.683 53.1569 423.734 53.0342C423.784 52.9115 423.809 52.78 423.808 52.6473C423.807 52.5147 423.779 52.3836 423.726 52.262C423.14 50.7744 422.208 49.4477 421.008 48.3915C419.807 47.3353 418.373 46.58 416.823 46.1879C416.689 46.1553 416.55 46.1504 416.414 46.1735C416.279 46.1965 416.149 46.2471 416.034 46.322C415.918 46.3969 415.82 46.4947 415.743 46.6092C415.667 46.7237 415.615 46.8526 415.59 46.988C415.566 47.1233 415.569 47.2623 415.6 47.3964C415.631 47.5304 415.689 47.6566 415.771 47.7674C415.853 47.8781 415.956 47.971 416.075 48.0404C416.194 48.1097 416.326 48.154 416.462 48.1705C417.681 48.5034 418.804 49.1169 419.743 49.962C420.682 50.807 421.41 51.8601 421.869 53.037C421.948 53.1919 422.066 53.3234 422.212 53.4183C422.357 53.5132 422.525 53.5682 422.698 53.5777Z" fill="#E0E0E0"/>
<path d="M389.985 46.0616C390.145 46.1009 390.313 46.1 390.474 46.0592C390.634 46.0183 390.782 45.9387 390.904 45.8273C391.796 44.9419 392.885 44.2797 394.081 43.8944C395.277 43.5092 396.548 43.4119 397.789 43.6103C397.916 43.6423 398.048 43.6484 398.177 43.6283C398.306 43.6082 398.43 43.5623 398.541 43.4934C398.652 43.4244 398.748 43.3338 398.823 43.2269C398.898 43.1201 398.951 42.9991 398.979 42.8714C399.039 42.6134 398.995 42.3422 398.856 42.1163C398.718 41.8904 398.497 41.7278 398.24 41.6638C396.68 41.3812 395.074 41.4777 393.559 41.9451C392.044 42.4124 390.664 43.237 389.534 44.3493C389.346 44.5385 389.24 44.7944 389.24 45.0613C389.24 45.3281 389.346 45.5841 389.534 45.7732C389.656 45.9075 389.812 46.007 389.985 46.0616Z" fill="#E0E0E0"/>
<path d="M282.923 108.047C292.746 101.954 291.736 91.6087 293.467 83.3717C293.773 81.9658 290.565 79.9111 288.672 81.6774C287.42 82.6674 286.379 83.8985 285.612 85.2978C284.844 86.6972 284.365 88.2364 284.202 89.8243C280.598 90.365 271.423 95.3396 272.865 105.451C275.788 107.517 279.366 108.44 282.923 108.047Z" fill="#FFB573"/>
<path d="M398.241 72.3051C398.241 72.3051 397.268 75.91 400.134 76.685C403 77.46 410.425 73.3145 416.536 77.2798C414.391 74.2517 407.668 69.926 398.241 72.3051Z" fill="#E0E0E0"/>
<path d="M395.159 71.7103C395.159 71.7103 394.672 75.0448 392.167 75.3151C389.661 75.5855 385.318 71.0975 379.189 73.9633C381.347 72.0814 384.005 70.8667 386.84 70.4667C389.675 70.0668 392.565 70.4988 395.159 71.7103Z" fill="#E0E0E0"/>
<path d="M388.58 139.769C412.011 137.48 452.583 116.338 434.235 109.597C422.681 118.771 403.27 122.43 394.131 122.448C390.743 119.185 389.679 110.083 393.771 105.307C384.2 104.496 372.178 123.818 388.58 139.769Z" fill="#FAFAFA"/>
<path d="M394.131 122.448C402.638 116.59 429.584 102.369 437.136 102.495C438.023 105.418 438.165 108.515 437.551 111.507C437.551 111.507 427.601 122.393 394.131 122.448Z" fill="#E0E0E0"/>
<path d="M394.131 122.448C394.131 122.448 395.446 104.081 393.788 100.206C392.393 100.749 391.162 101.644 390.215 102.803C389.268 103.962 388.636 105.346 388.381 106.821C388.381 106.821 390.147 119.636 394.131 122.448Z" fill="#E0E0E0"/>
<path d="M458.044 39.5913C445.842 41.0512 409.686 37.6447 397.862 24.0186C386.039 10.3924 394.654 1.1461 407.307 9.02258C407.307 9.02258 398.908 -2.40463 412.408 0.461185C425.151 3.16478 440.237 25.2983 459.396 24.361C475.708 23.5499 470.102 38.2034 458.044 39.5913Z" fill="#E0E0E0"/>
<path d="M452.348 88.5626C446.671 93.1587 439.191 93.3209 435.64 88.9411C432.089 84.5613 433.838 77.2796 439.479 72.7195C445.121 68.1594 452.637 67.9612 456.187 72.341C459.738 76.7209 458.008 83.9665 452.348 88.5626Z" fill="#263238"/>
<path d="M405.342 95.5917C404.694 95.3455 404.127 94.9225 403.707 94.3708C403.286 93.8191 403.029 93.1607 402.964 92.4701C402.898 91.7796 403.028 91.0846 403.337 90.4638C403.647 89.8431 404.124 89.3215 404.715 88.9581C405.306 88.5947 405.986 88.4041 406.68 88.4078C407.374 88.4115 408.052 88.6094 408.639 88.9791C409.226 89.3488 409.698 89.8755 410.001 90.4995C410.303 91.1235 410.425 91.8199 410.353 92.5096C410.084 93.5748 409.409 94.4929 408.473 95.0685C407.538 95.6441 406.414 95.8318 405.342 95.5917Z" fill="#263238"/>
<path d="M451.97 76.4862C451.655 76.4841 451.346 76.4099 451.064 76.2693C450.783 76.1287 450.538 75.9254 450.348 75.6751C450.187 75.4644 450.069 75.2241 450.001 74.9679C449.933 74.7117 449.916 74.4446 449.951 74.1818C449.986 73.919 450.072 73.6658 450.206 73.4365C450.339 73.2072 450.515 73.0063 450.726 72.8453C455.286 69.3667 458.062 60.7152 457.665 51.2165C457.413 45.1965 455.304 30.2186 441.444 21.3688C441.219 21.2268 441.024 21.0419 440.871 20.8246C440.717 20.6074 440.608 20.362 440.55 20.1026C440.491 19.8432 440.484 19.5748 440.529 19.3127C440.575 19.0506 440.671 18.8 440.813 18.5751C440.955 18.3502 441.14 18.1556 441.357 18.0022C441.574 17.8488 441.82 17.7397 442.079 17.6811C442.339 17.6225 442.607 17.6156 442.869 17.6608C443.131 17.7059 443.382 17.8022 443.607 17.9443C454.529 24.9015 461.144 36.9776 461.739 51.0543C462.189 61.8687 458.855 71.6738 453.213 75.9815C452.869 76.2879 452.43 76.4662 451.97 76.4862Z" fill="#263238"/>
<path d="M415.38 95.5917C412.421 95.5876 409.464 95.3889 406.531 94.9969C406.398 94.9814 406.269 94.9395 406.153 94.8738C406.036 94.8081 405.933 94.7198 405.851 94.6141C405.769 94.5085 405.709 94.3875 405.674 94.2583C405.639 94.129 405.63 93.9942 405.647 93.8615C405.688 93.5982 405.829 93.3608 406.04 93.1994C406.252 93.038 406.518 92.9652 406.783 92.9963C428.412 95.826 441.335 86.9402 441.461 86.8501C441.681 86.6948 441.954 86.6331 442.219 86.6788C442.484 86.7244 442.721 86.8735 442.876 87.0934C443.031 87.3133 443.093 87.5859 443.047 87.8513C443.002 88.1166 442.853 88.353 442.633 88.5083C442.164 88.8508 432.395 95.5917 415.38 95.5917Z" fill="#263238"/>
<path d="M356.93 242.866V239.694H355.47L356.227 235.602H353.325L352.586 239.694H350.261L351.018 235.602H348.044L347.539 238.396V252.959H347.918L348.657 248.94H350.964L350.225 252.959H353.163L353.902 248.94H356.93V245.768H354.37L354.911 242.866H356.93ZM351.522 245.768H349.233L349.774 242.866H352.045L351.522 245.768Z" fill="white"/>
<path d="M368.105 235.584V252.689H363.815V241.478C363.2 242.021 362.529 242.498 361.815 242.902C361.028 243.313 360.208 243.657 359.363 243.929V240.072C360.592 239.694 361.737 239.082 362.734 238.27C363.52 237.521 364.135 236.611 364.536 235.602L368.105 235.584Z" fill="white"/>
<path d="M522.462 264.134H6.36328V278.175H522.462V264.134Z" fill="#407BFF"/>
<path d="M522.462 264.134H6.36328V278.175H522.462V264.134Z" fill="white"/>
<path opacity="0.5" d="M522.462 264.134H404.945V278.175H522.462V264.134Z" fill="white"/>
<path d="M402.873 278.157H404.928V264.116H402.873V278.157Z" fill="white"/>
<path d="M513.684 278.175L529.257 539.577H523.075L504.384 287.511H423.005L404.333 539.577H398.15L413.705 278.175H513.684Z" fill="#407BFF"/>
<path opacity="0.5" d="M513.684 278.175L529.257 539.577H523.075L504.384 287.511H423.005L404.333 539.577H398.15L413.705 278.175H513.684Z" fill="white"/>
<path d="M115.534 278.175L131.107 539.577H124.924L106.251 287.511H24.8551L6.18223 539.577H0L15.5727 278.175H115.534Z" fill="#407BFF"/>
<path opacity="0.5" d="M115.534 278.175L131.107 539.577H124.924L106.251 287.511H24.8551L6.18223 539.577H0L15.5727 278.175H115.534Z" fill="white"/>
<path d="M239.701 227.762H49.6201L32.3711 112.462H222.47L239.701 227.762Z" fill="white"/>
<path opacity="0.3" d="M133.883 227.762H160.036L153.781 174.627L145.707 197.013L133.883 227.762Z" fill="black"/>
<path opacity="0.3" d="M239.701 227.762H237.52L220.289 112.462H222.47L239.701 227.762Z" fill="black"/>
<path d="M170.76 259.25H119.031V264.134H175.23L170.76 259.25Z" fill="#407BFF"/>
<path opacity="0.3" d="M170.76 259.25H119.031V264.134H175.23L170.76 259.25Z" fill="black"/>
<path d="M125.735 193.697L125.014 199.014H122.851C121.779 199.016 120.742 199.397 119.924 200.089C119.106 200.782 118.559 201.742 118.381 202.799L113.929 229.961C113.822 230.608 113.857 231.27 114.031 231.902C114.205 232.534 114.515 233.121 114.938 233.622C115.362 234.122 115.889 234.525 116.483 234.801C117.078 235.078 117.725 235.222 118.381 235.224H120.183V237.405H108.197V193.697H125.735Z" fill="#407BFF"/>
<path opacity="0.3" d="M125.735 193.697L125.014 199.014H122.851C121.779 199.016 120.742 199.397 119.924 200.089C119.106 200.782 118.559 201.742 118.381 202.799L113.929 229.961C113.822 230.608 113.857 231.27 114.031 231.902C114.205 232.534 114.515 233.121 114.938 233.622C115.362 234.122 115.889 234.525 116.483 234.801C117.078 235.078 117.725 235.222 118.381 235.224H120.183V237.405H108.197V193.697H125.735Z" fill="black"/>
<path d="M108.199 170.121L92.752 264.134H140.461L155.908 170.121H108.199ZM134.64 204.276L130.17 231.42C129.999 232.479 129.457 233.443 128.642 234.139C127.827 234.836 126.79 235.22 125.718 235.223H116.508C115.851 235.221 115.203 235.077 114.608 234.801C114.013 234.524 113.485 234.122 113.06 233.622C112.635 233.122 112.324 232.535 112.147 231.903C111.971 231.271 111.933 230.608 112.038 229.96L116.508 202.798C116.683 201.74 117.229 200.778 118.047 200.085C118.866 199.391 119.905 199.012 120.978 199.013H130.17C130.832 199.004 131.487 199.141 132.09 199.413C132.694 199.685 133.23 200.086 133.661 200.588C134.093 201.09 134.409 201.68 134.587 202.317C134.766 202.955 134.802 203.623 134.694 204.276H134.64Z" fill="white"/>
<path opacity="0.3" d="M140.514 264.134L138.207 263.828L153.6 170.121H155.961L140.514 264.134Z" fill="black"/>
<path opacity="0.3" d="M133.971 147.05H131.214L127.627 123.078H130.385L133.971 147.05Z" fill="black"/>
<path opacity="0.3" d="M139.108 147.05H136.332L132.764 123.078H135.521L139.108 147.05Z" fill="black"/>
<path opacity="0.3" d="M144.245 147.05H141.47L137.883 123.078H140.658L144.245 147.05Z" fill="black"/>
<path opacity="0.3" d="M149.382 147.05H146.606L143.02 123.078H145.795L149.382 147.05Z" fill="black"/>
<path opacity="0.3" d="M154.503 147.05H151.745L148.158 123.078H150.934L154.503 147.05Z" fill="black"/>
<path opacity="0.3" d="M128.835 147.05H126.077L122.49 123.078H125.248L128.835 147.05Z" fill="black"/>
<path opacity="0.3" d="M123.698 147.05H120.94L117.354 123.078H120.129L123.698 147.05Z" fill="black"/>
<path opacity="0.3" d="M118.561 147.05H115.804L112.217 123.078H114.993L118.561 147.05Z" fill="black"/>
<path opacity="0.3" d="M113.443 147.05H110.667L107.08 123.078H109.856L113.443 147.05Z" fill="black"/>
</svg>
