<svg width="109" height="25" viewBox="0 0 109 25" fill="none" xmlns="http://www.w3.org/2000/svg">
<g clip-path="url(#clip0_2307_54302)">
<path d="M13.8729 11.4623C14.0379 12.0808 14.2221 12.6828 14.3569 13.2952C14.6735 14.7318 14.6955 16.1814 14.4668 17.632C14.2825 18.8037 13.9559 19.9385 13.4243 21.0059C13.0582 21.7403 12.6859 22.4774 12.1357 23.1027C11.6134 23.6962 10.9737 24.0592 10.1388 24.0166C9.30172 23.9734 8.57721 23.2662 8.51972 22.4457C8.47236 21.7704 8.6945 21.1801 9.06151 20.6291C9.76759 19.5686 10.4115 18.4753 10.9533 17.3237C11.2813 16.627 11.4502 15.8924 11.3658 15.1449C11.2765 14.355 10.9538 13.6265 10.42 13.0037C9.63187 12.0843 8.63921 11.6195 7.40732 11.7268C6.4857 11.807 5.60179 12.0515 4.74656 12.3994C4.13629 12.6473 3.52919 12.9047 2.90355 13.1081C2.40886 13.2689 1.88696 13.3143 1.36433 13.1992C0.324921 12.9703 -0.195272 12.1485 0.0656787 11.1376C0.247294 10.434 0.675947 9.89751 1.26559 9.47833C2.00084 8.95537 2.83532 8.70202 3.73388 8.62132C5.19352 8.4898 6.62069 8.72306 8.04615 8.97785C8.53693 9.06549 9.02575 9.16329 9.51531 9.25738C10.0914 9.36798 10.6636 9.50595 11.2442 9.58546C12.7929 9.7972 14.2555 9.50284 15.6015 8.73657C16.5505 8.19568 17.4586 7.58652 18.3908 7.01717C19.272 6.47914 20.1935 6.02206 21.2124 5.78916C21.7205 5.67306 22.2316 5.6727 22.7297 5.85683C23.6179 6.18514 24.111 7.08831 23.9782 8.08377C23.8333 9.16986 23.1542 9.84718 22.2305 10.3446C21.3128 10.8387 20.3122 11.0858 19.2902 11.263C17.6936 11.5406 16.0829 11.557 14.4691 11.5127C14.3633 11.5098 14.2582 11.4852 14.1518 11.476C14.0545 11.4671 13.9556 11.4659 13.8729 11.4623Z" fill="#241B8F"/>
<path d="M14.9829 1.08447C15.085 1.61054 15.2246 2.09058 15.2636 2.57898C15.3351 3.48633 14.7509 4.13435 13.7745 4.28201C13.2171 4.3657 12.6597 4.37049 12.0985 4.26216C11.7736 4.19939 11.4344 4.20238 11.1012 4.19103C11.0482 4.18923 10.9806 4.25607 10.9396 4.30652C10.2538 5.15038 10.6059 6.43315 11.627 6.84875C12.7377 7.30093 13.9094 6.486 13.9604 5.41509C13.9631 5.35926 13.9683 5.30354 13.9726 5.2397C14.3111 6.6645 13.2776 8.18843 11.7803 8.48374C9.96877 8.84099 8.30176 7.48409 8.35168 5.68064C8.37426 4.87539 8.7486 4.20908 9.26891 3.60685C9.94094 2.8297 10.819 2.50067 11.8313 2.44615C12.3297 2.41937 12.8302 2.40239 13.3245 2.34082C14.0367 2.25199 14.5387 1.8566 14.8542 1.2289C14.8664 1.20403 14.8803 1.17952 14.8945 1.15549C14.8972 1.14999 14.9045 1.14676 14.9829 1.08447Z" fill="#241B8F"/>
<path d="M9.41942 15.1721C9.4243 16.1715 8.61326 16.9722 7.59362 16.9748C6.57398 16.9775 5.74902 16.1765 5.74805 15.1856C5.74719 14.1838 6.59803 13.3866 7.57263 13.3906C8.59922 13.3949 9.41454 14.1723 9.41942 15.1721Z" fill="#241B8F"/>
<path d="M19.2402 14.3512C19.2535 15.0993 18.6544 15.8133 17.9179 15.8659C16.8303 15.9435 16.0627 15.2806 16.0834 14.3411C16.1042 13.4016 16.7991 12.8078 17.6475 12.788C18.5422 12.7672 19.2646 13.5093 19.2402 14.3512Z" fill="#1088C5"/>
<path d="M5.48283 7.61926C4.62772 7.61663 3.97534 6.96968 3.97656 6.12546C3.97766 5.29177 4.65421 4.62605 5.4932 4.63286C6.32732 4.63968 7.01277 5.31795 7.01252 6.13622C7.01228 6.9545 6.32561 7.62189 5.48283 7.61926Z" fill="#1088C5"/>
<path d="M16.822 6.60592C16.3612 6.63868 15.7196 6.21137 15.7197 5.505C15.7197 4.92441 16.2273 4.40612 16.8548 4.41616C17.4699 4.42596 17.9797 4.91652 17.9748 5.50667C17.9703 6.12911 17.4674 6.60867 16.822 6.60592Z" fill="#241B8F"/>
<path d="M8.13633 1.97142C8.13462 2.53336 7.68571 2.97573 7.12328 2.9682C6.5417 2.96067 6.11207 2.52439 6.11427 1.94356C6.11622 1.41462 6.58368 0.975119 7.13952 0.980021C7.6973 0.984923 8.13804 1.42311 8.13633 1.97142Z" fill="#241B8F"/>
<path d="M7.42081 19.7551C6.95517 19.7528 6.59634 19.3984 6.59963 18.9439C6.60281 18.495 6.9708 18.1439 7.43716 18.145C7.87875 18.146 8.25273 18.5157 8.25053 18.9487C8.25076 19.0552 8.22941 19.1607 8.18771 19.2591C8.14602 19.3574 8.08481 19.4467 8.00763 19.5217C7.93045 19.5967 7.83884 19.656 7.73811 19.696C7.63738 19.7361 7.52953 19.7562 7.42081 19.7551Z" fill="#1088C5"/>
</g>
<path d="M44.16 5.8V8.02H39.74V19H36.98V8.02H32.54V5.8H44.16ZM49.9798 12.62C49.9798 12.0467 49.8132 11.6 49.4798 11.28C49.1598 10.96 48.7332 10.8 48.1998 10.8C47.7065 10.8 47.2732 10.9267 46.8998 11.18C46.5265 11.4333 46.2532 11.8533 46.0798 12.44L43.7398 11.72C43.9665 10.84 44.4598 10.1333 45.2198 9.6C45.9932 9.06667 47.0265 8.8 48.3198 8.8C49.1998 8.8 49.9665 8.94 50.6198 9.22C51.2732 9.48667 51.7798 9.89333 52.1398 10.44C52.5132 10.9867 52.6998 11.6733 52.6998 12.5V16.56C52.6998 17.0667 52.9398 17.32 53.4198 17.32C53.6465 17.32 53.8598 17.2867 54.0598 17.22L53.8998 18.92C53.5532 19.0933 53.1198 19.18 52.5998 19.18C52.1332 19.18 51.7132 19.1 51.3398 18.94C50.9665 18.78 50.6732 18.54 50.4598 18.22C50.2465 17.8867 50.1398 17.4733 50.1398 16.98V16.9L50.6198 16.82C50.5398 17.3267 50.3198 17.76 49.9598 18.12C49.5998 18.4667 49.1598 18.7333 48.6398 18.92C48.1332 19.1067 47.6065 19.2 47.0598 19.2C46.3798 19.2 45.7932 19.1 45.2998 18.9C44.8065 18.6867 44.4265 18.38 44.1598 17.98C43.8932 17.58 43.7598 17.0867 43.7598 16.5C43.7598 15.7533 43.9998 15.1467 44.4798 14.68C44.9598 14.2 45.6465 13.8733 46.5398 13.7L50.2998 12.94L50.2798 14.64L47.8798 15.12C47.4265 15.2133 47.0798 15.34 46.8398 15.5C46.6132 15.6467 46.4998 15.8933 46.4998 16.24C46.4998 16.5733 46.6198 16.8267 46.8598 17C47.1132 17.1733 47.4132 17.26 47.7598 17.26C48.0398 17.26 48.3132 17.2267 48.5798 17.16C48.8465 17.0933 49.0865 16.9867 49.2998 16.84C49.5132 16.6933 49.6798 16.4933 49.7998 16.24C49.9198 15.9867 49.9798 15.68 49.9798 15.32V12.62ZM55.7642 23.2V9H58.2242L58.4042 12.18L58.0642 11.82C58.1842 11.2333 58.4042 10.7133 58.7242 10.26C59.0576 9.80667 59.4776 9.45333 59.9842 9.2C60.4909 8.93333 61.0576 8.8 61.6842 8.8C62.4976 8.8 63.2242 9.00667 63.8642 9.42C64.5042 9.83333 65.0042 10.4267 65.3642 11.2C65.7376 11.96 65.9242 12.8867 65.9242 13.98C65.9242 15.0733 65.7376 16.0133 65.3642 16.8C64.9909 17.5733 64.4776 18.1667 63.8242 18.58C63.1842 18.9933 62.4509 19.2 61.6242 19.2C60.7442 19.2 60.0109 18.9533 59.4242 18.46C58.8509 17.9667 58.4576 17.3467 58.2442 16.6L58.5042 16.18V23.2H55.7642ZM60.8242 17.1C61.5576 17.1 62.1309 16.84 62.5442 16.32C62.9709 15.7867 63.1842 15.0133 63.1842 14C63.1842 12.9867 62.9776 12.22 62.5642 11.7C62.1642 11.1667 61.5976 10.9 60.8642 10.9C60.3976 10.9 59.9842 11.0267 59.6242 11.28C59.2776 11.52 59.0042 11.8733 58.8042 12.34C58.6042 12.7933 58.5042 13.3467 58.5042 14C58.5042 14.64 58.5976 15.1933 58.7842 15.66C58.9709 16.1267 59.2376 16.4867 59.5842 16.74C59.9442 16.98 60.3576 17.1 60.8242 17.1ZM72.9433 19.2C71.8899 19.2 70.9699 18.9933 70.1833 18.58C69.4099 18.1667 68.8099 17.5733 68.3833 16.8C67.9566 16.0267 67.7433 15.0933 67.7433 14C67.7433 12.9067 67.9566 11.9733 68.3833 11.2C68.8099 10.4267 69.4033 9.83333 70.1633 9.42C70.9366 9.00667 71.8166 8.8 72.8033 8.8C73.8166 8.8 74.6766 9.00667 75.3833 9.42C76.0899 9.82 76.6299 10.3733 77.0033 11.08C77.3766 11.7733 77.5633 12.5667 77.5633 13.46C77.5633 13.7267 77.5566 13.98 77.5433 14.22C77.5299 14.46 77.5099 14.6733 77.4833 14.86H69.5033V12.96H76.2833L74.9633 13.44C74.9633 12.6 74.7699 11.9533 74.3833 11.5C74.0099 11.0467 73.4766 10.82 72.7833 10.82C72.2766 10.82 71.8366 10.94 71.4633 11.18C71.1033 11.42 70.8299 11.78 70.6433 12.26C70.4566 12.7267 70.3633 13.32 70.3633 14.04C70.3633 14.7467 70.4633 15.3333 70.6633 15.8C70.8766 16.2533 71.1699 16.5933 71.5433 16.82C71.9299 17.0467 72.3899 17.16 72.9233 17.16C73.5099 17.16 73.9833 17.0467 74.3433 16.82C74.7033 16.5933 74.9833 16.28 75.1833 15.88L77.3633 16.72C77.1499 17.24 76.8233 17.6867 76.3833 18.06C75.9566 18.4333 75.4433 18.72 74.8433 18.92C74.2566 19.1067 73.6233 19.2 72.9433 19.2ZM91.4105 19H88.5505L87.4505 15.78H82.3905L81.2905 19H78.4705L83.2905 5.8H86.5905L91.4105 19ZM83.0105 13.74H86.8305L84.9105 7.98L83.0105 13.74ZM93.0884 19V9H95.4684L95.6484 10.96C95.9151 10.2667 96.3018 9.73333 96.8084 9.36C97.3284 8.98667 97.9751 8.8 98.7484 8.8C98.9751 8.8 99.1818 8.82 99.3684 8.86C99.5551 8.9 99.7084 8.95333 99.8284 9.02L99.5084 11.32C99.3751 11.2667 99.2084 11.2267 99.0084 11.2C98.8218 11.1733 98.5751 11.16 98.2684 11.16C97.8684 11.16 97.4818 11.26 97.1084 11.46C96.7351 11.6467 96.4284 11.94 96.1884 12.34C95.9484 12.7267 95.8284 13.22 95.8284 13.82V19H93.0884ZM104.695 5.94V15.74C104.695 16.22 104.815 16.5733 105.055 16.8C105.308 17.0133 105.648 17.12 106.075 17.12C106.408 17.12 106.702 17.0733 106.955 16.98C107.208 16.8733 107.435 16.7333 107.635 16.56L108.075 18.38C107.755 18.6333 107.355 18.8333 106.875 18.98C106.395 19.1267 105.888 19.2 105.355 19.2C104.688 19.2 104.095 19.1 103.575 18.9C103.068 18.7 102.668 18.38 102.375 17.94C102.095 17.5 101.955 16.9133 101.955 16.18V6.7L104.695 5.94ZM107.895 9V11.04H100.115V9H107.895Z" fill="url(#paint0_linear_2307_54302)"/>
<defs>
<linearGradient id="paint0_linear_2307_54302" x1="70.5" y1="1" x2="70.5" y2="24" gradientUnits="userSpaceOnUse">
<stop stop-color="#241B8F"/>
<stop offset="1" stop-color="#322173"/>
</linearGradient>
<clipPath id="clip0_2307_54302">
<rect width="24" height="23.04" fill="white" transform="translate(0 0.97998)"/>
</clipPath>
</defs>
</svg>
