<svg width="150" height="42" viewBox="0 0 150 42" fill="none" xmlns="http://www.w3.org/2000/svg">
<rect width="150" height="41.0911" fill="white"/>
<path d="M104.678 25.3126C105.141 25.3255 105.602 25.2461 106.034 25.0791C106.465 24.912 106.86 24.6606 107.194 24.3395L108.441 25.6988C107.618 26.5478 106.475 27.1792 104.699 27.1792C101.655 27.1792 99.6891 25.1566 99.6891 22.4166C99.6777 21.7889 99.7922 21.1653 100.026 20.5827C100.259 20.0002 100.607 19.4705 101.049 19.0252C101.49 18.5799 102.017 18.2279 102.596 17.9902C103.176 17.7525 103.798 17.6339 104.424 17.6414C107.447 17.6414 109.161 19.9473 109.011 23.1435H101.864C102.118 24.47 103.047 25.3189 104.675 25.3189M106.853 21.6197C106.658 20.3781 105.921 19.4655 104.442 19.4655C103.069 19.4655 102.111 20.2444 101.864 21.6197H106.853ZM57.7557 25.2139L63.2563 19.6141H57.8881V17.8462H65.808V19.6502L60.3075 25.2478H65.8811V27.0062H57.7578L57.7557 25.2139ZM72.055 25.3136C72.5178 25.3266 72.9785 25.2472 73.4104 25.0801C73.8422 24.9131 74.2367 24.6617 74.5708 24.3405L75.8202 25.6988C74.9964 26.5478 73.854 27.1792 72.0783 27.1792C69.0342 27.1792 67.068 25.1566 67.068 22.4166C67.0566 21.7889 67.1711 21.1653 67.4047 20.5827C67.6382 20.0002 67.9861 19.4705 68.4277 19.0252C68.8692 18.5799 69.3955 18.2279 69.9753 17.9902C70.5551 17.7525 71.1767 17.6339 71.8031 17.6414C74.826 17.6414 76.5402 19.9473 76.3899 23.1435H69.2428C69.4969 24.47 70.4255 25.3189 72.054 25.3189M74.232 21.6197C74.0382 20.3781 73.3002 19.4655 71.8211 19.4655C70.4478 19.4655 69.4895 20.2444 69.2428 21.6197H74.232ZM88.2634 22.405C88.2634 19.4846 90.4446 17.6456 92.8481 17.6456C93.4248 17.6379 93.9961 17.7568 94.522 17.994C95.0479 18.2312 95.5156 18.581 95.8922 19.0188V13.6227H97.8351V26.9935H95.8922V25.7201C95.5226 26.1757 95.0555 26.5421 94.5254 26.7923C93.9954 27.0425 93.416 27.17 92.8301 27.1654C90.4986 27.1654 88.2645 25.3189 88.2645 22.4082M96.0013 22.3912C95.9324 19.8231 92.8248 18.6028 91.0248 20.4429C89.2248 22.2829 90.5378 25.3752 93.1033 25.3741C94.772 25.3741 96.0002 24.0371 96.0002 22.4029M110.276 25.0558L112.036 24.141C112.51 24.99 113.412 25.5025 114.383 25.4781C115.485 25.4781 116.052 24.9115 116.052 24.2705C116.052 23.5277 114.989 23.3728 113.834 23.1351C112.28 22.8167 110.662 22.2914 110.662 20.4079C110.662 18.9615 112.035 17.6255 114.198 17.6446C115.892 17.6446 117.169 18.3237 117.889 19.4188L116.259 20.3166C116.033 19.982 115.726 19.7105 115.366 19.5278C115.007 19.3451 114.607 19.2572 114.204 19.2724C113.159 19.2724 112.616 19.7849 112.616 20.3707C112.616 21.0286 113.459 21.2122 114.78 21.5062C116.284 21.8245 117.989 22.3296 117.989 24.2334C117.989 25.5068 116.887 27.1972 114.286 27.1792C112.38 27.1792 111.042 26.4098 110.27 25.0568M123.264 22.9345L121.723 24.6186V26.9956H119.78V13.6249H121.723V22.3731L125.848 17.8345H128.215L124.638 21.7608L128.306 26.9945H126.107L123.264 22.9345ZM82.3806 17.6605C80.0703 17.6605 78.1454 19.162 78.1454 21.6505V26.9956H80.1254V21.8786C80.1254 20.3771 80.9862 19.4804 82.4569 19.4804C83.9276 19.4804 84.6592 20.3781 84.6592 21.8786V26.9765H86.6286V21.6314C86.6286 19.1429 84.6857 17.6414 82.3933 17.6414M35.6095 14.8749V32.0871H21.3843L35.6095 14.8749ZM35.6095 8.69678C35.6098 10.5877 34.8607 12.4013 33.527 13.7388C32.1933 15.0762 30.3841 15.8281 28.4974 15.8289C26.6107 15.8281 24.8016 15.0762 23.4679 13.7388C22.1342 12.4013 21.3851 10.5877 21.3854 8.69678H35.6095ZM37.9527 32.085C37.9535 30.1948 38.7031 28.3823 40.0367 27.0457C41.3703 25.7092 43.1788 24.9579 45.0647 24.9571C46.9507 24.9579 48.7592 25.7092 50.0928 27.0457C51.4264 28.3823 52.176 30.1948 52.1768 32.085H37.9527ZM37.9527 25.9068V8.6989H52.1779L37.9527 25.9068Z" fill="#495057" fill-opacity="0.5"/>
</svg>
