<svg width="24" height="24" viewBox="0 0 24 24" fill="none" xmlns="http://www.w3.org/2000/svg">
<path fill-rule="evenodd" clip-rule="evenodd" d="M22 4.00904C21 4.49904 20.02 4.69804 19 4.99904C17.879 3.73404 16.217 3.66404 14.62 4.26204C13.023 4.86004 11.977 6.32204 12 7.99904V8.99904C8.755 9.08204 5.865 7.60404 4 4.99904C4 4.99904 -0.182 12.432 8 15.999C6.128 17.246 4.261 18.087 2 17.999C5.308 19.802 8.913 20.422 12.034 19.516C15.614 18.476 18.556 15.793 19.685 11.774C20.0218 10.5517 20.189 9.2889 20.182 8.02104C20.18 7.77204 21.692 5.24904 22 4.00804V4.00904Z" stroke="#2B292F" stroke-width="2" stroke-linecap="round" stroke-linejoin="round"/>
</svg>
