<svg width="52" height="30" viewBox="0 0 52 30" fill="none" xmlns="http://www.w3.org/2000/svg">
<path fill-rule="evenodd" clip-rule="evenodd" d="M32.4672 25.0648C32.2668 25.3793 32.2581 25.7792 32.4445 26.1021L33.4836 27.9019C33.8591 28.5523 34.7908 28.5721 35.1936 27.9383L51.6337 2.07219C52.0539 1.41107 51.5852 0.545422 50.8019 0.535856L48.6718 0.50984C48.3258 0.505614 48.0021 0.680593 47.8162 0.972453L32.4672 25.0648ZM29.5765 20.0595C29.3766 20.3739 29.368 20.7734 29.5543 21.0962L30.5654 22.8475C30.9405 23.4971 31.8707 23.5179 32.2743 22.8856L45.5269 2.1281C45.9506 1.4645 45.4768 0.594266 44.6895 0.58999L42.5221 0.578218C42.1782 0.57635 41.8575 0.75133 41.6729 1.04151L29.5765 20.0595ZM29.3837 17.8759C28.9807 18.5095 28.0493 18.4895 27.6739 17.8392L26.6359 16.0414C26.4487 15.7171 26.4583 15.3155 26.6608 15.0006L35.6326 1.04668C35.8167 0.760318 36.1339 0.587301 36.4743 0.587498L38.559 0.588709C39.3477 0.589167 39.8255 1.45989 39.4021 2.12541L29.3837 17.8759ZM19.3241 4.93521C19.5245 4.6207 19.5332 4.22084 19.3468 3.89789L18.3077 2.09813C17.9322 1.44775 17.0005 1.42792 16.5977 2.06172L0.157598 27.9278C-0.262599 28.589 0.206049 29.4546 0.989345 29.4642L3.11949 29.4902C3.46552 29.4944 3.78914 29.3194 3.97508 29.0276L19.3241 4.93521ZM22.2147 9.94056C22.4147 9.62614 22.4233 9.22659 22.237 8.90388L21.2258 7.15254C20.8508 6.50293 19.9206 6.48218 19.5169 7.11441L6.26437 27.8719C5.8407 28.5355 6.3145 29.4058 7.1018 29.41L9.26914 29.4218C9.61305 29.4237 9.93378 29.2487 10.1184 28.9585L22.2147 9.94056ZM22.4076 12.1241C22.8105 11.4906 23.7419 11.5106 24.1174 12.1608L25.1553 13.9587C25.3426 14.2829 25.3329 14.6845 25.1305 14.9995L16.1587 28.9534C15.9745 29.2397 15.6574 29.4127 15.3169 29.4125L13.2323 29.4113C12.4436 29.4109 11.9658 28.5401 12.3891 27.8746L22.4076 12.1241Z" fill="#8B70E9"/>
</svg>
