<svg width="40" height="40" viewBox="0 0 40 40" fill="none" xmlns="http://www.w3.org/2000/svg">
<g clip-path="url(#clip0_2802_42473)">
<path d="M23.1216 18.1984C23.3966 19.2722 23.7036 20.3173 23.9284 21.3805C24.4561 23.8746 24.4927 26.3912 24.1115 28.9097C23.8043 30.9439 23.2599 32.914 22.374 34.7671C21.7638 36.042 21.1433 37.3217 20.2263 38.4073C19.3558 39.4377 18.2897 40.0679 16.8981 39.994C15.503 39.9191 14.2955 38.6913 14.1997 37.2667C14.1208 36.0944 14.491 35.0696 15.1027 34.1129C16.2795 32.2717 17.3527 30.3737 18.2557 28.3744C18.8023 27.1649 19.0839 25.8895 18.9431 24.5918C18.7944 23.2204 18.2565 21.9556 17.3668 20.8744C16.0533 19.2782 14.3988 18.4714 12.3457 18.6575C10.8097 18.7968 9.33647 19.2213 7.91109 19.8253C6.89398 20.2556 5.88215 20.7025 4.83941 21.0556C4.01493 21.3348 3.1451 21.4137 2.27404 21.2138C0.541697 20.8165 -0.32529 19.3897 0.109627 17.6346C0.41232 16.4131 1.12674 15.4817 2.10947 14.754C3.33489 13.846 4.72569 13.4062 6.22329 13.2661C8.65602 13.0378 11.0346 13.4427 13.4104 13.8851C14.2284 14.0372 15.0431 14.207 15.859 14.3704C16.8192 14.5624 17.7728 14.8019 18.7405 14.9399C21.3217 15.3076 23.7593 14.7965 26.0027 13.4662C27.5843 12.5271 29.0978 11.4696 30.6515 10.4811C32.1202 9.54704 33.656 8.7535 35.3542 8.34915C36.2011 8.1476 37.0528 8.14698 37.883 8.46663C39.3633 9.03662 40.1851 10.6046 39.9638 12.3329C39.7223 14.2184 38.5905 15.3943 37.051 16.2578C35.5214 17.1157 33.8538 17.5448 32.1505 17.8524C29.4895 18.3344 26.805 18.3628 24.1153 18.2858C23.939 18.2808 23.7638 18.238 23.5864 18.2221C23.4243 18.2067 23.2595 18.2046 23.1216 18.1984Z" fill="#2800C7"/>
<path d="M24.9717 0.182617C25.142 1.09593 25.3747 1.92933 25.4396 2.77726C25.5588 4.35251 24.5852 5.47755 22.9579 5.7339C22.0288 5.8792 21.0998 5.8875 20.1645 5.69944C19.6229 5.59047 19.0576 5.59566 18.5023 5.57594C18.414 5.57283 18.3013 5.68886 18.233 5.77645C17.0899 7.24149 17.6768 9.46852 19.3786 10.19C21.2298 10.9751 23.1826 9.56027 23.2677 7.70105C23.2721 7.60412 23.2809 7.50739 23.288 7.39655C23.8521 9.87017 22.1297 12.5159 19.6341 13.0286C16.6149 13.6488 13.8366 11.2931 13.9198 8.16207C13.9574 6.76408 14.5813 5.60728 15.4485 4.56175C16.5686 3.21253 18.032 2.6413 19.7192 2.54664C20.5497 2.50015 21.384 2.47067 22.2078 2.36377C23.3948 2.20955 24.2315 1.52311 24.7573 0.433362C24.7777 0.390187 24.8009 0.347636 24.8245 0.305915C24.8289 0.296366 24.8411 0.290762 24.9717 0.182617Z" fill="#71D3FF"/>
<path d="M15.6985 24.6397C15.7067 26.3748 14.3549 27.7649 12.6555 27.7695C10.9562 27.774 9.58122 26.3835 9.57959 24.6632C9.57817 22.9239 10.9962 21.5398 12.6206 21.5469C14.3315 21.5544 15.6904 22.904 15.6985 24.6397Z" fill="#71D3FF"/>
<path d="M32.0682 23.2135C32.0903 24.5123 31.0917 25.7519 29.8643 25.8433C28.0516 25.978 26.7723 24.8272 26.8068 23.1961C26.8414 21.565 27.9997 20.534 29.4137 20.4998C30.9048 20.4636 32.1088 21.752 32.0682 23.2135Z" fill="#1088C5"/>
<path d="M9.13837 11.5266C7.71319 11.522 6.6259 10.3989 6.62793 8.93321C6.62976 7.48581 7.75733 6.33006 9.15566 6.34189C10.5459 6.35372 11.6883 7.53127 11.6879 8.95189C11.6875 10.3725 10.543 11.5312 9.13837 11.5266Z" fill="#1088C5"/>
<path d="M28.0373 9.76774C27.2694 9.82461 26.2 9.08275 26.2002 7.85642C26.2002 6.84846 27.0462 5.94863 28.092 5.96607C29.1171 5.98309 29.9668 6.83475 29.9586 7.85933C29.9511 8.93994 29.113 9.77251 28.0373 9.76774Z" fill="#71D3FF"/>
<path d="M13.5601 1.72223C13.5572 2.69781 12.809 3.46582 11.8717 3.45275C10.9023 3.43967 10.1863 2.68224 10.19 1.67386C10.1932 0.755568 10.9723 -0.00746335 11.8987 0.00104707C12.8283 0.00955749 13.5629 0.770305 13.5601 1.72223Z" fill="#71D3FF"/>
<path d="M12.3672 32.5961C11.5911 32.592 10.9931 31.9768 10.9986 31.1878C11.0039 30.4083 11.6172 29.7989 12.3945 29.8008C13.1304 29.8024 13.7537 30.4443 13.7501 31.1961C13.7505 31.381 13.7149 31.5641 13.6454 31.7349C13.5759 31.9056 13.4739 32.0606 13.3452 32.1909C13.2166 32.3211 13.0639 32.424 12.896 32.4935C12.7281 32.5631 12.5484 32.598 12.3672 32.5961Z" fill="#1088C5"/>
</g>
<defs>
<clipPath id="clip0_2802_42473">
<rect width="40" height="40" fill="white"/>
</clipPath>
</defs>
</svg>
