<svg width="70" height="112" viewBox="0 0 70 112" fill="none" xmlns="http://www.w3.org/2000/svg">
<path d="M68.1221 94.1061C64.8599 97.9297 61.5959 101.764 58.3302 105.608C60.614 97.0875 62.9381 88.4921 64.2028 79.3342C65.5621 69.7917 65.4155 59.8038 63.7779 50.3898C60.2455 29.952 50.2706 15.3172 39.2326 6.72439C32.9175 1.69972 25.9214 -0.294839 18.9937 0.954335C15.5682 1.69962 12.238 3.40455 9.13695 6.00056C5.85085 8.47691 2.93568 12.1928 0.610195 16.8695C-0.0926714 18.3875 1.19471 20.4336 1.90957 18.9147C5.57401 11.0675 11.8835 5.98251 17.6021 4.32835C23.4711 2.73606 29.4802 3.69205 35.0763 7.10834C40.8606 10.594 46.2254 15.8488 50.9087 22.6161C55.7824 29.6129 59.4948 38.6746 61.6743 48.894C63.593 58.2906 63.9012 68.4282 62.5626 78.114C61.4845 86.2831 59.4763 94.0141 57.4473 101.634L57.9168 81.1411C57.9487 79.2182 56.1903 79.3313 56.1526 81.2649L55.4859 109.813C55.4828 110.084 55.524 110.35 55.6049 110.583C55.6857 110.816 55.803 111.005 55.9436 111.13C56.0841 111.255 56.2422 111.31 56.4001 111.289C56.558 111.268 56.7094 111.173 56.8371 111.013C60.9347 106.268 65.0035 101.49 69.0435 96.6811C69.9962 95.5564 69.0633 93.0027 68.1221 94.1061Z" fill="white" fill-opacity="0.5"/>
</svg>
