<svg width="32" height="32" viewBox="0 0 32 32" fill="none" xmlns="http://www.w3.org/2000/svg">
<path d="M29.074 13.3887H28V13.3334H16V18.6667H23.5353C22.436 21.7714 19.482 24.0001 16 24.0001C11.582 24.0001 7.99996 20.4181 7.99996 16.0001C7.99996 11.5821 11.582 8.00008 16 8.00008C18.0393 8.00008 19.8946 8.76941 21.3073 10.0261L25.0786 6.25475C22.6973 4.03541 19.512 2.66675 16 2.66675C8.63663 2.66675 2.66663 8.63675 2.66663 16.0001C2.66663 23.3634 8.63663 29.3334 16 29.3334C23.3633 29.3334 29.3333 23.3634 29.3333 16.0001C29.3333 15.1061 29.2413 14.2334 29.074 13.3887Z" fill="#FFC107"/>
<path d="M4.20398 9.79408L8.58465 13.0067C9.76998 10.0721 12.6406 8.00008 16 8.00008C18.0393 8.00008 19.8946 8.76941 21.3073 10.0261L25.0786 6.25475C22.6973 4.03541 19.512 2.66675 16 2.66675C10.8786 2.66675 6.43731 5.55808 4.20398 9.79408Z" fill="#FF3D00"/>
<path d="M16 29.3333C19.444 29.3333 22.5733 28.0153 24.9393 25.872L20.8127 22.38C19.429 23.4322 17.7383 24.0013 16 24C12.532 24 9.58734 21.7886 8.478 18.7026L4.13 22.0526C6.33667 26.3706 10.818 29.3333 16 29.3333Z" fill="#4CAF50"/>
<path d="M29.074 13.3886H28V13.3333H16V18.6666H23.5353C23.0095 20.1442 22.0622 21.4354 20.8107 22.3806L20.8127 22.3793L24.9393 25.8713C24.6473 26.1366 29.3333 22.6666 29.3333 15.9999C29.3333 15.1059 29.2413 14.2333 29.074 13.3886Z" fill="#1976D2"/>
</svg>
