<svg width="41" height="41" viewBox="0 0 41 41" fill="none" xmlns="http://www.w3.org/2000/svg">
<path d="M27.3148 3.4585H13.9814C7.31478 3.4585 3.98145 6.79183 3.98145 13.4585V35.1252C3.98145 36.0418 4.73145 36.7918 5.64811 36.7918H27.3148C33.9814 36.7918 37.3148 33.4585 37.3148 26.7918V13.4585C37.3148 6.79183 33.9814 3.4585 27.3148 3.4585Z" stroke="#8648DB" stroke-width="1.5" stroke-linecap="round" stroke-linejoin="round"/>
<path d="M22.1651 13.1919L13.5151 21.8419C13.1817 22.1753 12.8651 22.8253 12.7984 23.2919L12.3318 26.5919C12.1651 27.7919 12.9984 28.6253 14.1984 28.4586L17.4984 27.9919C17.9651 27.9253 18.6151 27.6086 18.9484 27.2753L27.5984 18.6253C29.0818 17.1419 29.7984 15.4086 27.5984 13.2086C25.3984 10.9919 23.6651 11.6919 22.1651 13.1919Z" stroke="#8648DB" stroke-width="1.5" stroke-miterlimit="10" stroke-linecap="round" stroke-linejoin="round"/>
<path d="M20.9316 14.4253C21.665 17.042 23.715 19.1086 26.3483 19.842" stroke="#8648DB" stroke-width="1.5" stroke-miterlimit="10" stroke-linecap="round" stroke-linejoin="round"/>
</svg>
