<svg width="40" height="40" viewBox="0 0 40 40" fill="none" xmlns="http://www.w3.org/2000/svg">
<g clip-path="url(#clip0_2307_55817)">
<path d="M23.1211 18.1984C23.3961 19.2722 23.7031 20.3173 23.9279 21.3805C24.4556 23.8746 24.4922 26.3912 24.111 28.9097C23.8038 30.9439 23.2594 32.914 22.3735 34.7671C21.7633 36.042 21.1428 37.3217 20.2258 38.4073C19.3554 39.4377 18.2892 40.0679 16.8976 39.994C15.5025 39.9191 14.295 38.6913 14.1992 37.2667C14.1203 36.0944 14.4905 35.0696 15.1022 34.1129C16.279 32.2717 17.3523 30.3737 18.2552 28.3744C18.8018 27.1649 19.0834 25.8895 18.9426 24.5918C18.7939 23.2204 18.2561 21.9556 17.3663 20.8744C16.0528 19.2782 14.3984 18.4714 12.3452 18.6575C10.8092 18.7968 9.33598 19.2213 7.9106 19.8253C6.89349 20.2556 5.88166 20.7025 4.83892 21.0556C4.01445 21.3348 3.14461 21.4137 2.27356 21.2138C0.541209 20.8165 -0.325779 19.3897 0.109139 17.6346C0.411832 16.4131 1.12625 15.4817 2.10899 14.754C3.3344 13.846 4.7252 13.4062 6.2228 13.2661C8.65553 13.0378 11.0342 13.4427 13.4099 13.8851C14.2279 14.0372 15.0426 14.207 15.8585 14.3704C16.8187 14.5624 17.7723 14.8019 18.74 14.9399C21.3212 15.3076 23.7588 14.7965 26.0022 13.4662C27.5838 12.5271 29.0973 11.4696 30.651 10.4811C32.1197 9.54704 33.6556 8.7535 35.3537 8.34915C36.2006 8.1476 37.0523 8.14698 37.8825 8.46663C39.3628 9.03662 40.1846 10.6046 39.9633 12.3329C39.7218 14.2184 38.59 15.3943 37.0505 16.2578C35.5209 17.1157 33.8533 17.5448 32.15 17.8524C29.4891 18.3344 26.8045 18.3628 24.1148 18.2858C23.9385 18.2808 23.7633 18.238 23.5859 18.2221C23.4238 18.2067 23.259 18.2046 23.1211 18.1984Z" fill="#2800C7"/>
<path d="M24.9717 0.182129C25.142 1.09544 25.3747 1.92884 25.4396 2.77677C25.5588 4.35203 24.5852 5.47706 22.9579 5.73341C22.0288 5.87871 21.0998 5.88701 20.1645 5.69896C19.6229 5.58998 19.0576 5.59517 18.5023 5.57545C18.414 5.57234 18.3013 5.68837 18.233 5.77596C17.0899 7.241 17.6768 9.46803 19.3786 10.1895C21.2298 10.9746 23.1826 9.55978 23.2677 7.70057C23.2721 7.60363 23.2809 7.5069 23.288 7.39606C23.8521 9.86968 22.1297 12.5154 19.6341 13.0281C16.6149 13.6483 13.8366 11.2926 13.9198 8.16158C13.9574 6.76359 14.5813 5.60679 15.4485 4.56126C16.5686 3.21204 18.032 2.64081 19.7192 2.54616C20.5497 2.49966 21.384 2.47019 22.2078 2.36329C23.3948 2.20906 24.2315 1.52262 24.7573 0.432874C24.7777 0.389699 24.8009 0.347148 24.8245 0.305426C24.8289 0.295878 24.8411 0.290273 24.9717 0.182129Z" fill="#71D3FF"/>
<path d="M15.699 24.6397C15.7072 26.3748 14.3554 27.7649 12.656 27.7695C10.9566 27.774 9.58171 26.3835 9.58008 24.6632C9.57866 22.9239 10.9967 21.5398 12.621 21.5469C14.332 21.5544 15.6909 22.904 15.699 24.6397Z" fill="#71D3FF"/>
<path d="M32.0687 23.2135C32.0908 24.5123 31.0922 25.7519 29.8648 25.8433C28.0521 25.978 26.7727 24.8272 26.8073 23.1961C26.8419 21.565 28.0002 20.534 29.4142 20.4998C30.9053 20.4636 32.1093 21.752 32.0687 23.2135Z" fill="#1088C5"/>
<path d="M9.13739 11.5266C7.71222 11.522 6.62492 10.3989 6.62696 8.93321C6.62879 7.48581 7.75636 6.33006 9.15469 6.34189C10.5449 6.35372 11.6873 7.53127 11.6869 8.95189C11.6865 10.3725 10.542 11.5312 9.13739 11.5266Z" fill="#1088C5"/>
<path d="M28.0383 9.76774C27.2704 9.82461 26.201 9.08275 26.2012 7.85642C26.2012 6.84846 27.0472 5.94863 28.093 5.96607C29.118 5.98309 29.9677 6.83475 29.9596 7.85933C29.9521 8.93994 29.114 9.77251 28.0383 9.76774Z" fill="#71D3FF"/>
<path d="M13.5596 1.72174C13.5567 2.69732 12.8085 3.46534 11.8712 3.45226C10.9019 3.43918 10.1858 2.68176 10.1895 1.67337C10.1927 0.755079 10.9718 -0.00795163 11.8982 0.00055879C12.8279 0.00906921 13.5624 0.769817 13.5596 1.72174Z" fill="#71D3FF"/>
<path d="M12.3667 32.5961C11.5907 32.592 10.9926 31.9768 10.9981 31.1878C11.0034 30.4083 11.6167 29.7989 12.394 29.8008C13.13 29.8024 13.7532 30.4443 13.7496 31.1961C13.75 31.381 13.7144 31.5641 13.6449 31.7349C13.5754 31.9056 13.4734 32.0606 13.3447 32.1909C13.2161 32.3211 13.0634 32.424 12.8955 32.4935C12.7277 32.5631 12.5479 32.598 12.3667 32.5961Z" fill="#1088C5"/>
</g>
<defs>
<clipPath id="clip0_2307_55817">
<rect width="40" height="40" fill="white"/>
</clipPath>
</defs>
</svg>
